<ttFont>
    <TTGlyph name=".notdef" xMin="100" yMin="0" xMax="658" yMax="531">
      <contour>
        <pt x="100" y="0" on="1"/>
        <pt x="100" y="531" on="1"/>
        <pt x="658" y="531" on="1"/>
        <pt x="658" y="0" on="1"/>
      </contour>
      <contour>
        <pt x="114" y="22" on="1"/>
        <pt x="370" y="266" on="1"/>
        <pt x="114" y="507" on="1"/>
      </contour>
      <contour>
        <pt x="124" y="518" on="1"/>
        <pt x="381" y="276" on="1"/>
        <pt x="635" y="518" on="1"/>
      </contour>
      <contour>
        <pt x="127" y="13" on="1"/>
        <pt x="634" y="13" on="1"/>
        <pt x="381" y="256" on="1"/>
      </contour>
      <contour>
        <pt x="392" y="266" on="1"/>
        <pt x="644" y="25" on="1"/>
        <pt x="644" y="506" on="1"/>
      </contour>
    </TTGlyph>
    <TTGlyph name="A" xMin="42" yMin="0" xMax="654" yMax="732">
      <contour>
        <pt x="42" y="0" on="1"/>
        <pt x="421" y="732" on="1"/>
        <pt x="518" y="732" on="1"/>
        <pt x="654" y="0" on="1"/>
        <pt x="560" y="0" on="1"/>
        <pt x="524" y="193" on="1"/>
        <pt x="243" y="193" on="1"/>
        <pt x="143" y="0" on="1"/>
      </contour>
      <contour>
        <pt x="287" y="280" on="1"/>
        <pt x="510" y="280" on="1"/>
        <pt x="453" y="607" on="1"/>
      </contour>
    </TTGlyph>
    <TTGlyph name="AE" xMin="28" yMin="-6" xMax="1002" yMax="733">
      <contour>
        <pt x="625" y="733" on="1"/>
        <pt x="665" y="732" on="1"/>
        <pt x="675" y="732" on="0"/>
        <pt x="984" y="718" on="0"/>
        <pt x="1001" y="716" on="1"/>
        <pt x="990" y="641" on="1"/>
        <pt x="681" y="641" on="1"/>
        <pt x="646" y="641" on="0"/>
        <pt x="635" y="624" on="1"/>
        <pt x="627" y="611" on="0"/>
        <pt x="622" y="588" on="1"/>
        <pt x="593" y="405" on="1"/>
        <pt x="909" y="395" on="1"/>
        <pt x="897" y="321" on="1"/>
        <pt x="578" y="311" on="1"/>
        <pt x="550" y="137" on="1"/>
        <pt x="544" y="99" on="0"/>
        <pt x="564" y="91" on="1"/>
        <pt x="579" y="85" on="0"/>
        <pt x="605" y="85" on="1"/>
        <pt x="902" y="85" on="1"/>
        <pt x="889" y="12" on="1"/>
        <pt x="581" y="-5" on="1"/>
        <pt x="576" y="-5" on="0"/>
        <pt x="550" y="-5" on="0"/>
        <pt x="529" y="1" on="1"/>
        <pt x="454" y="20" on="0"/>
        <pt x="454" y="97" on="1"/>
        <pt x="454" y="109" on="0"/>
        <pt x="456" y="121" on="1"/>
        <pt x="470" y="221" on="1"/>
        <pt x="277" y="221" on="1"/>
        <pt x="133" y="0" on="1"/>
        <pt x="28" y="0" on="1"/>
        <pt x="417" y="596" on="1"/>
        <pt x="472" y="680" on="0"/>
        <pt x="527" y="708" on="1"/>
        <pt x="576" y="733" on="0"/>
      </contour>
      <contour>
        <pt x="333" y="308" on="1"/>
        <pt x="485" y="308" on="1"/>
        <pt x="536" y="616" on="1"/>
      </contour>
    </TTGlyph>
    <TTGlyph name="Aacute" xMin="42" yMin="0" xMax="669" yMax="932">
      <contour>
        <pt x="443" y="797" on="1"/>
        <pt x="566" y="932" on="1"/>
        <pt x="669" y="932" on="1"/>
        <pt x="518" y="797" on="1"/>
      </contour>
      <contour>
        <pt x="42" y="0" on="1"/>
        <pt x="421" y="732" on="1"/>
        <pt x="518" y="732" on="1"/>
        <pt x="654" y="0" on="1"/>
        <pt x="560" y="0" on="1"/>
        <pt x="524" y="193" on="1"/>
        <pt x="243" y="193" on="1"/>
        <pt x="143" y="0" on="1"/>
      </contour>
      <contour>
        <pt x="287" y="280" on="1"/>
        <pt x="510" y="280" on="1"/>
        <pt x="453" y="607" on="1"/>
      </contour>
    </TTGlyph>
    <TTGlyph name="Abreve" xMin="42" yMin="0" xMax="654" yMax="911">
      <contour>
        <pt x="434" y="911" on="1"/>
        <pt x="433" y="905" on="0"/>
        <pt x="433" y="887" on="0"/>
        <pt x="438" y="874" on="1"/>
        <pt x="451" y="846" on="0"/>
        <pt x="489" y="846" on="1"/>
        <pt x="553" y="846" on="0"/>
        <pt x="563" y="911" on="1"/>
        <pt x="612" y="911" on="1"/>
        <pt x="597" y="797" on="0"/>
        <pt x="486" y="797" on="1"/>
        <pt x="442" y="797" on="0"/>
        <pt x="384" y="855" on="0"/>
        <pt x="384" y="898" on="1"/>
        <pt x="384" y="904" on="0"/>
        <pt x="384" y="911" on="1"/>
      </contour>
      <contour>
        <pt x="42" y="0" on="1"/>
        <pt x="421" y="732" on="1"/>
        <pt x="518" y="732" on="1"/>
        <pt x="654" y="0" on="1"/>
        <pt x="560" y="0" on="1"/>
        <pt x="524" y="193" on="1"/>
        <pt x="243" y="193" on="1"/>
        <pt x="143" y="0" on="1"/>
      </contour>
      <contour>
        <pt x="287" y="280" on="1"/>
        <pt x="510" y="280" on="1"/>
        <pt x="453" y="607" on="1"/>
      </contour>
    </TTGlyph>
    <TTGlyph name="Acircumflex" xMin="42" yMin="0" xMax="654" yMax="929">
      <contour>
        <pt x="332" y="797" on="1"/>
        <pt x="467" y="928" on="1"/>
        <pt x="547" y="928" on="1"/>
        <pt x="628" y="797" on="1"/>
        <pt x="556" y="797" on="1"/>
        <pt x="503" y="875" on="1"/>
        <pt x="418" y="797" on="1"/>
      </contour>
      <contour>
        <pt x="42" y="0" on="1"/>
        <pt x="421" y="732" on="1"/>
        <pt x="518" y="732" on="1"/>
        <pt x="654" y="0" on="1"/>
        <pt x="560" y="0" on="1"/>
        <pt x="524" y="193" on="1"/>
        <pt x="243" y="193" on="1"/>
        <pt x="143" y="0" on="1"/>
      </contour>
      <contour>
        <pt x="287" y="280" on="1"/>
        <pt x="510" y="280" on="1"/>
        <pt x="453" y="607" on="1"/>
      </contour>
    </TTGlyph>
    <TTGlyph name="Adieresis" xMin="42" yMin="0" xMax="670" yMax="903">
      <contour>
        <pt x="348" y="902" on="0"/>
        <pt x="392" y="902" on="0"/>
        <pt x="415" y="875" on="0"/>
        <pt x="415" y="865" on="1"/>
        <pt x="415" y="832" on="0"/>
        <pt x="375" y="797" on="0"/>
        <pt x="331" y="797" on="0"/>
        <pt x="308" y="825" on="0"/>
        <pt x="308" y="836" on="1"/>
        <pt x="308" y="869" on="0"/>
      </contour>
      <contour>
        <pt x="603" y="902" on="0"/>
        <pt x="647" y="902" on="0"/>
        <pt x="670" y="875" on="0"/>
        <pt x="670" y="865" on="1"/>
        <pt x="670" y="832" on="0"/>
        <pt x="630" y="797" on="0"/>
        <pt x="586" y="797" on="0"/>
        <pt x="563" y="825" on="0"/>
        <pt x="563" y="836" on="1"/>
        <pt x="563" y="869" on="0"/>
      </contour>
      <contour>
        <pt x="42" y="0" on="1"/>
        <pt x="421" y="732" on="1"/>
        <pt x="518" y="732" on="1"/>
        <pt x="654" y="0" on="1"/>
        <pt x="560" y="0" on="1"/>
        <pt x="524" y="193" on="1"/>
        <pt x="243" y="193" on="1"/>
        <pt x="143" y="0" on="1"/>
      </contour>
      <contour>
        <pt x="287" y="280" on="1"/>
        <pt x="510" y="280" on="1"/>
        <pt x="453" y="607" on="1"/>
      </contour>
    </TTGlyph>
    <TTGlyph name="Agrave" xMin="42" yMin="0" xMax="654" yMax="932">
      <contour>
        <pt x="324" y="932" on="1"/>
        <pt x="419" y="932" on="1"/>
        <pt x="518" y="797" on="1"/>
        <pt x="443" y="797" on="1"/>
      </contour>
      <contour>
        <pt x="42" y="0" on="1"/>
        <pt x="421" y="732" on="1"/>
        <pt x="518" y="732" on="1"/>
        <pt x="654" y="0" on="1"/>
        <pt x="560" y="0" on="1"/>
        <pt x="524" y="193" on="1"/>
        <pt x="243" y="193" on="1"/>
        <pt x="143" y="0" on="1"/>
      </contour>
      <contour>
        <pt x="287" y="280" on="1"/>
        <pt x="510" y="280" on="1"/>
        <pt x="453" y="607" on="1"/>
      </contour>
    </TTGlyph>
    <TTGlyph name="Amacron" xMin="42" yMin="0" xMax="654" yMax="865">
      <contour>
        <pt x="334" y="797" on="1"/>
        <pt x="345" y="864" on="1"/>
        <pt x="637" y="864" on="1"/>
        <pt x="626" y="797" on="1"/>
      </contour>
      <contour>
        <pt x="42" y="0" on="1"/>
        <pt x="421" y="732" on="1"/>
        <pt x="518" y="732" on="1"/>
        <pt x="654" y="0" on="1"/>
        <pt x="560" y="0" on="1"/>
        <pt x="524" y="193" on="1"/>
        <pt x="243" y="193" on="1"/>
        <pt x="143" y="0" on="1"/>
      </contour>
      <contour>
        <pt x="287" y="280" on="1"/>
        <pt x="510" y="280" on="1"/>
        <pt x="453" y="607" on="1"/>
      </contour>
    </TTGlyph>
    <TTGlyph name="Aogonek" xMin="128" yMin="-185" xMax="741" yMax="732">
      <contour>
        <pt x="579" y="-109" on="1"/>
        <pt x="579" y="-40" on="0"/>
        <pt x="675" y="0" on="1"/>
        <pt x="719" y="0" on="1"/>
        <pt x="649" y="-50" on="0"/>
        <pt x="649" y="-87" on="1"/>
        <pt x="649" y="-118" on="0"/>
        <pt x="696" y="-118" on="1"/>
        <pt x="700" y="-118" on="0"/>
        <pt x="705" y="-118" on="1"/>
        <pt x="694" y="-182" on="1"/>
        <pt x="682" y="-184" on="0"/>
        <pt x="670" y="-184" on="1"/>
        <pt x="630" y="-184" on="0"/>
        <pt x="579" y="-138" on="0"/>
      </contour>
      <contour>
        <pt x="129" y="0" on="1"/>
        <pt x="508" y="732" on="1"/>
        <pt x="605" y="732" on="1"/>
        <pt x="741" y="0" on="1"/>
        <pt x="647" y="0" on="1"/>
        <pt x="611" y="193" on="1"/>
        <pt x="330" y="193" on="1"/>
        <pt x="230" y="0" on="1"/>
      </contour>
      <contour>
        <pt x="374" y="280" on="1"/>
        <pt x="597" y="280" on="1"/>
        <pt x="540" y="607" on="1"/>
      </contour>
    </TTGlyph>
    <TTGlyph name="Aring" xMin="42" yMin="0" xMax="654" yMax="935">
      <contour>
        <pt x="537" y="934" on="0"/>
        <pt x="453" y="934" on="0"/>
        <pt x="384" y="871" on="0"/>
        <pt x="384" y="822" on="1"/>
        <pt x="384" y="786" on="0"/>
        <pt x="435" y="730" on="0"/>
        <pt x="520" y="730" on="0"/>
        <pt x="588" y="793" on="0"/>
        <pt x="588" y="842" on="1"/>
        <pt x="588" y="878" on="0"/>
      </contour>
      <contour>
        <pt x="469" y="884" on="0"/>
        <pt x="512" y="884" on="0"/>
        <pt x="537" y="855" on="0"/>
        <pt x="537" y="837" on="1"/>
        <pt x="537" y="804" on="0"/>
        <pt x="508" y="788" on="1"/>
        <pt x="496" y="781" on="0"/>
        <pt x="460" y="781" on="0"/>
        <pt x="434" y="809" on="0"/>
        <pt x="434" y="851" on="0"/>
      </contour>
      <contour>
        <pt x="42" y="0" on="1"/>
        <pt x="421" y="732" on="1"/>
        <pt x="518" y="732" on="1"/>
        <pt x="654" y="0" on="1"/>
        <pt x="560" y="0" on="1"/>
        <pt x="524" y="193" on="1"/>
        <pt x="243" y="193" on="1"/>
        <pt x="143" y="0" on="1"/>
      </contour>
      <contour>
        <pt x="287" y="280" on="1"/>
        <pt x="510" y="280" on="1"/>
        <pt x="453" y="607" on="1"/>
      </contour>
    </TTGlyph>
    <TTGlyph name="Atilde" xMin="42" yMin="0" xMax="661" yMax="909">
      <contour>
        <pt x="473" y="906" on="0"/>
        <pt x="533" y="874" on="0"/>
        <pt x="547" y="873" on="0"/>
        <pt x="565" y="873" on="0"/>
        <pt x="636" y="901" on="0"/>
        <pt x="646" y="908" on="1"/>
        <pt x="661" y="861" on="1"/>
        <pt x="654" y="856" on="0"/>
        <pt x="621" y="832" on="0"/>
        <pt x="602" y="820" on="0"/>
        <pt x="588" y="812" on="1"/>
        <pt x="539" y="785" on="0"/>
        <pt x="494" y="807" on="1"/>
        <pt x="476" y="816" on="0"/>
        <pt x="447" y="832" on="0"/>
        <pt x="417" y="832" on="0"/>
        <pt x="387" y="824" on="0"/>
        <pt x="370" y="817" on="0"/>
        <pt x="338" y="800" on="0"/>
        <pt x="332" y="797" on="1"/>
        <pt x="317" y="842" on="1"/>
        <pt x="369" y="883" on="0"/>
        <pt x="426" y="907" on="0"/>
      </contour>
      <contour>
        <pt x="42" y="0" on="1"/>
        <pt x="421" y="732" on="1"/>
        <pt x="518" y="732" on="1"/>
        <pt x="654" y="0" on="1"/>
        <pt x="560" y="0" on="1"/>
        <pt x="524" y="193" on="1"/>
        <pt x="243" y="193" on="1"/>
        <pt x="143" y="0" on="1"/>
      </contour>
      <contour>
        <pt x="287" y="280" on="1"/>
        <pt x="510" y="280" on="1"/>
        <pt x="453" y="607" on="1"/>
      </contour>
    </TTGlyph>
    <TTGlyph name="B" xMin="74" yMin="0" xMax="645" yMax="732">
      <contour>
        <pt x="478" y="732" on="1"/>
        <pt x="563" y="732" on="0"/>
        <pt x="603" y="689" on="1"/>
        <pt x="644" y="643" on="0"/>
        <pt x="644" y="576" on="1"/>
        <pt x="644" y="556" on="0"/>
        <pt x="643" y="535" on="1"/>
        <pt x="634" y="468" on="0"/>
        <pt x="570" y="392" on="0"/>
        <pt x="522" y="380" on="1"/>
        <pt x="552" y="375" on="0"/>
        <pt x="577" y="330" on="1"/>
        <pt x="598" y="294" on="0"/>
        <pt x="598" y="237" on="1"/>
        <pt x="598" y="219" on="0"/>
        <pt x="595" y="200" on="1"/>
        <pt x="583" y="102" on="0"/>
        <pt x="473" y="0" on="0"/>
        <pt x="362" y="0" on="1"/>
        <pt x="75" y="0" on="1"/>
        <pt x="191" y="732" on="1"/>
      </contour>
      <contour>
        <pt x="503" y="210" on="1"/>
        <pt x="506" y="227" on="0"/>
        <pt x="506" y="277" on="0"/>
        <pt x="491" y="303" on="1"/>
        <pt x="469" y="341" on="0"/>
        <pt x="415" y="341" on="1"/>
        <pt x="222" y="341" on="1"/>
        <pt x="182" y="88" on="1"/>
        <pt x="375" y="87" on="1"/>
        <pt x="483" y="87" on="0"/>
      </contour>
      <contour>
        <pt x="553" y="570" on="1"/>
        <pt x="553" y="606" on="0"/>
        <pt x="512" y="644" on="0"/>
        <pt x="463" y="644" on="1"/>
        <pt x="270" y="644" on="1"/>
        <pt x="236" y="427" on="1"/>
        <pt x="427" y="427" on="1"/>
        <pt x="532" y="427" on="0"/>
        <pt x="550" y="537" on="1"/>
        <pt x="553" y="555" on="0"/>
      </contour>
    </TTGlyph>
    <TTGlyph name="C" xMin="100" yMin="-7" xMax="657" yMax="740">
      <contour>
        <pt x="264" y="707" on="0"/>
        <pt x="355" y="740" on="0"/>
        <pt x="517" y="740" on="0"/>
        <pt x="656" y="708" on="1"/>
        <pt x="645" y="636" on="1"/>
        <pt x="531" y="651" on="0"/>
        <pt x="432" y="651" on="1"/>
        <pt x="422" y="651" on="0"/>
        <pt x="410" y="651" on="0"/>
        <pt x="395" y="651" on="0"/>
        <pt x="381" y="650" on="0"/>
        <pt x="354" y="647" on="0"/>
        <pt x="336" y="638" on="0"/>
        <pt x="309" y="625" on="0"/>
        <pt x="289" y="603" on="0"/>
        <pt x="265" y="574" on="0"/>
        <pt x="246" y="531" on="0"/>
        <pt x="236" y="504" on="1"/>
        <pt x="217" y="453" on="0"/>
        <pt x="192" y="304" on="0"/>
        <pt x="192" y="256" on="1"/>
        <pt x="192" y="91" on="0"/>
        <pt x="316" y="83" on="1"/>
        <pt x="334" y="82" on="0"/>
        <pt x="433" y="82" on="0"/>
        <pt x="561" y="91" on="1"/>
        <pt x="551" y="18" on="1"/>
        <pt x="466" y="-6" on="0"/>
        <pt x="311" y="-6" on="1"/>
        <pt x="191" y="-6" on="0"/>
        <pt x="143" y="75" on="1"/>
        <pt x="101" y="145" on="0"/>
        <pt x="101" y="256" on="1"/>
        <pt x="101" y="366" on="0"/>
        <pt x="138" y="501" on="1"/>
        <pt x="172" y="624" on="0"/>
        <pt x="232" y="679" on="1"/>
      </contour>
    </TTGlyph>
    <TTGlyph name="Cacute" xMin="100" yMin="-7" xMax="657" yMax="935">
      <contour>
        <pt x="409" y="800" on="1"/>
        <pt x="532" y="934" on="1"/>
        <pt x="635" y="934" on="1"/>
        <pt x="484" y="800" on="1"/>
      </contour>
      <contour>
        <pt x="414" y="740" on="1"/>
        <pt x="517" y="740" on="0"/>
        <pt x="656" y="708" on="1"/>
        <pt x="645" y="636" on="1"/>
        <pt x="531" y="651" on="0"/>
        <pt x="432" y="651" on="1"/>
        <pt x="422" y="651" on="0"/>
        <pt x="410" y="651" on="0"/>
        <pt x="395" y="651" on="0"/>
        <pt x="381" y="650" on="0"/>
        <pt x="354" y="647" on="0"/>
        <pt x="336" y="638" on="0"/>
        <pt x="309" y="625" on="0"/>
        <pt x="289" y="603" on="0"/>
        <pt x="265" y="574" on="0"/>
        <pt x="246" y="531" on="0"/>
        <pt x="236" y="504" on="1"/>
        <pt x="217" y="453" on="0"/>
        <pt x="192" y="304" on="0"/>
        <pt x="192" y="256" on="1"/>
        <pt x="192" y="91" on="0"/>
        <pt x="316" y="83" on="1"/>
        <pt x="334" y="82" on="0"/>
        <pt x="433" y="82" on="0"/>
        <pt x="561" y="91" on="1"/>
        <pt x="551" y="18" on="1"/>
        <pt x="466" y="-6" on="0"/>
        <pt x="311" y="-6" on="1"/>
        <pt x="191" y="-6" on="0"/>
        <pt x="143" y="75" on="1"/>
        <pt x="101" y="145" on="0"/>
        <pt x="101" y="256" on="1"/>
        <pt x="101" y="354" on="0"/>
        <pt x="133" y="481" on="1"/>
        <pt x="160" y="589" on="0"/>
        <pt x="202" y="644" on="1"/>
        <pt x="252" y="710" on="0"/>
        <pt x="325" y="729" on="1"/>
        <pt x="364" y="740" on="0"/>
      </contour>
    </TTGlyph>
    <TTGlyph name="Ccaron" xMin="100" yMin="-7" xMax="657" yMax="932">
      <contour>
        <pt x="327" y="932" on="1"/>
        <pt x="399" y="932" on="1"/>
        <pt x="453" y="853" on="1"/>
        <pt x="537" y="932" on="1"/>
        <pt x="624" y="932" on="1"/>
        <pt x="488" y="800" on="1"/>
        <pt x="409" y="800" on="1"/>
      </contour>
      <contour>
        <pt x="414" y="740" on="1"/>
        <pt x="517" y="740" on="0"/>
        <pt x="656" y="708" on="1"/>
        <pt x="645" y="636" on="1"/>
        <pt x="531" y="651" on="0"/>
        <pt x="432" y="651" on="1"/>
        <pt x="422" y="651" on="0"/>
        <pt x="410" y="651" on="0"/>
        <pt x="395" y="651" on="0"/>
        <pt x="381" y="650" on="0"/>
        <pt x="354" y="647" on="0"/>
        <pt x="336" y="638" on="0"/>
        <pt x="309" y="625" on="0"/>
        <pt x="289" y="603" on="0"/>
        <pt x="265" y="574" on="0"/>
        <pt x="246" y="531" on="0"/>
        <pt x="236" y="504" on="1"/>
        <pt x="217" y="453" on="0"/>
        <pt x="192" y="304" on="0"/>
        <pt x="192" y="256" on="1"/>
        <pt x="192" y="91" on="0"/>
        <pt x="316" y="83" on="1"/>
        <pt x="334" y="82" on="0"/>
        <pt x="433" y="82" on="0"/>
        <pt x="561" y="91" on="1"/>
        <pt x="551" y="18" on="1"/>
        <pt x="466" y="-6" on="0"/>
        <pt x="311" y="-6" on="1"/>
        <pt x="191" y="-6" on="0"/>
        <pt x="143" y="75" on="1"/>
        <pt x="101" y="145" on="0"/>
        <pt x="101" y="256" on="1"/>
        <pt x="101" y="354" on="0"/>
        <pt x="133" y="481" on="1"/>
        <pt x="160" y="589" on="0"/>
        <pt x="202" y="644" on="1"/>
        <pt x="252" y="710" on="0"/>
        <pt x="325" y="729" on="1"/>
        <pt x="364" y="740" on="0"/>
      </contour>
    </TTGlyph>
    <TTGlyph name="Ccedilla" xMin="100" yMin="-175" xMax="657" yMax="740">
      <contour>
        <pt x="264" y="707" on="0"/>
        <pt x="355" y="740" on="0"/>
        <pt x="517" y="740" on="0"/>
        <pt x="656" y="708" on="1"/>
        <pt x="645" y="636" on="1"/>
        <pt x="531" y="651" on="0"/>
        <pt x="432" y="651" on="1"/>
        <pt x="422" y="651" on="0"/>
        <pt x="410" y="651" on="0"/>
        <pt x="393" y="651" on="0"/>
        <pt x="378" y="650" on="0"/>
        <pt x="348" y="645" on="0"/>
        <pt x="328" y="635" on="0"/>
        <pt x="298" y="615" on="0"/>
        <pt x="277" y="587" on="0"/>
        <pt x="251" y="544" on="0"/>
        <pt x="241" y="516" on="1"/>
        <pt x="218" y="451" on="0"/>
        <pt x="195" y="303" on="0"/>
        <pt x="195" y="236" on="0"/>
        <pt x="196" y="222" on="1"/>
        <pt x="200" y="161" on="0"/>
        <pt x="260" y="87" on="0"/>
        <pt x="316" y="83" on="1"/>
        <pt x="334" y="82" on="0"/>
        <pt x="433" y="82" on="0"/>
        <pt x="561" y="91" on="1"/>
        <pt x="551" y="18" on="1"/>
        <pt x="466" y="-6" on="0"/>
        <pt x="311" y="-6" on="1"/>
        <pt x="191" y="-6" on="0"/>
        <pt x="143" y="75" on="1"/>
        <pt x="101" y="145" on="0"/>
        <pt x="101" y="256" on="1"/>
        <pt x="101" y="366" on="0"/>
        <pt x="138" y="501" on="1"/>
        <pt x="172" y="624" on="0"/>
        <pt x="232" y="679" on="1"/>
      </contour>
      <contour>
        <pt x="238" y="-174" on="1"/>
        <pt x="185" y="-174" on="1"/>
        <pt x="192" y="-131" on="1"/>
        <pt x="245" y="-116" on="1"/>
        <pt x="266" y="-110" on="0"/>
        <pt x="284" y="-71" on="0"/>
        <pt x="290" y="-37" on="1"/>
        <pt x="364" y="-37" on="1"/>
        <pt x="356" y="-89" on="0"/>
        <pt x="328" y="-147" on="0"/>
        <pt x="279" y="-174" on="0"/>
      </contour>
    </TTGlyph>
    <TTGlyph name="Ccircumflex" xMin="100" yMin="-7" xMax="657" yMax="932">
      <contour>
        <pt x="297" y="800" on="1"/>
        <pt x="432" y="932" on="1"/>
        <pt x="512" y="932" on="1"/>
        <pt x="593" y="800" on="1"/>
        <pt x="521" y="800" on="1"/>
        <pt x="468" y="878" on="1"/>
        <pt x="383" y="800" on="1"/>
      </contour>
      <contour>
        <pt x="414" y="740" on="1"/>
        <pt x="517" y="740" on="0"/>
        <pt x="656" y="708" on="1"/>
        <pt x="645" y="636" on="1"/>
        <pt x="531" y="651" on="0"/>
        <pt x="432" y="651" on="1"/>
        <pt x="422" y="651" on="0"/>
        <pt x="410" y="651" on="0"/>
        <pt x="395" y="651" on="0"/>
        <pt x="381" y="650" on="0"/>
        <pt x="354" y="647" on="0"/>
        <pt x="336" y="638" on="0"/>
        <pt x="309" y="625" on="0"/>
        <pt x="289" y="603" on="0"/>
        <pt x="265" y="574" on="0"/>
        <pt x="246" y="531" on="0"/>
        <pt x="236" y="504" on="1"/>
        <pt x="217" y="453" on="0"/>
        <pt x="192" y="304" on="0"/>
        <pt x="192" y="256" on="1"/>
        <pt x="192" y="91" on="0"/>
        <pt x="316" y="83" on="1"/>
        <pt x="334" y="82" on="0"/>
        <pt x="433" y="82" on="0"/>
        <pt x="561" y="91" on="1"/>
        <pt x="551" y="18" on="1"/>
        <pt x="466" y="-6" on="0"/>
        <pt x="311" y="-6" on="1"/>
        <pt x="191" y="-6" on="0"/>
        <pt x="143" y="75" on="1"/>
        <pt x="101" y="145" on="0"/>
        <pt x="101" y="256" on="1"/>
        <pt x="101" y="354" on="0"/>
        <pt x="133" y="481" on="1"/>
        <pt x="160" y="589" on="0"/>
        <pt x="202" y="644" on="1"/>
        <pt x="252" y="710" on="0"/>
        <pt x="325" y="729" on="1"/>
        <pt x="364" y="740" on="0"/>
      </contour>
    </TTGlyph>
    <TTGlyph name="Cdotaccent" xMin="100" yMin="-7" xMax="657" yMax="908">
      <contour>
        <pt x="419" y="908" on="1"/>
        <pt x="475" y="908" on="1"/>
        <pt x="498" y="908" on="0"/>
        <pt x="494" y="883" on="1"/>
        <pt x="484" y="823" on="1"/>
        <pt x="481" y="800" on="0"/>
        <pt x="458" y="800" on="1"/>
        <pt x="402" y="800" on="1"/>
        <pt x="392" y="800" on="0"/>
        <pt x="380" y="813" on="0"/>
        <pt x="381" y="823" on="1"/>
        <pt x="391" y="883" on="1"/>
        <pt x="394" y="908" on="0"/>
      </contour>
      <contour>
        <pt x="414" y="740" on="1"/>
        <pt x="517" y="740" on="0"/>
        <pt x="656" y="708" on="1"/>
        <pt x="645" y="636" on="1"/>
        <pt x="531" y="651" on="0"/>
        <pt x="432" y="651" on="1"/>
        <pt x="422" y="651" on="0"/>
        <pt x="410" y="651" on="0"/>
        <pt x="395" y="651" on="0"/>
        <pt x="381" y="650" on="0"/>
        <pt x="354" y="647" on="0"/>
        <pt x="336" y="638" on="0"/>
        <pt x="309" y="625" on="0"/>
        <pt x="289" y="603" on="0"/>
        <pt x="265" y="574" on="0"/>
        <pt x="246" y="531" on="0"/>
        <pt x="236" y="504" on="1"/>
        <pt x="217" y="453" on="0"/>
        <pt x="192" y="304" on="0"/>
        <pt x="192" y="256" on="1"/>
        <pt x="192" y="91" on="0"/>
        <pt x="316" y="83" on="1"/>
        <pt x="334" y="82" on="0"/>
        <pt x="433" y="82" on="0"/>
        <pt x="561" y="91" on="1"/>
        <pt x="551" y="18" on="1"/>
        <pt x="466" y="-6" on="0"/>
        <pt x="311" y="-6" on="1"/>
        <pt x="191" y="-6" on="0"/>
        <pt x="143" y="75" on="1"/>
        <pt x="101" y="145" on="0"/>
        <pt x="101" y="256" on="1"/>
        <pt x="101" y="354" on="0"/>
        <pt x="133" y="481" on="1"/>
        <pt x="160" y="589" on="0"/>
        <pt x="202" y="644" on="1"/>
        <pt x="252" y="710" on="0"/>
        <pt x="325" y="729" on="1"/>
        <pt x="364" y="740" on="0"/>
      </contour>
    </TTGlyph>
    <TTGlyph name="D" xMin="74" yMin="0" xMax="681" yMax="732">
      <contour>
        <pt x="470" y="732" on="1"/>
        <pt x="578" y="732" on="0"/>
        <pt x="626" y="665" on="1"/>
        <pt x="674" y="600" on="0"/>
        <pt x="679" y="516" on="1"/>
        <pt x="681" y="490" on="0"/>
        <pt x="681" y="470" on="1"/>
        <pt x="681" y="413" on="0"/>
        <pt x="671" y="358" on="1"/>
        <pt x="642" y="184" on="0"/>
        <pt x="491" y="0" on="0"/>
        <pt x="357" y="0" on="1"/>
        <pt x="75" y="0" on="1"/>
        <pt x="191" y="731" on="1"/>
        <pt x="191" y="732" on="0"/>
      </contour>
      <contour>
        <pt x="366" y="90" on="1"/>
        <pt x="423" y="90" on="0"/>
        <pt x="469" y="129" on="1"/>
        <pt x="553" y="200" on="0"/>
        <pt x="580" y="364" on="1"/>
        <pt x="590" y="427" on="0"/>
        <pt x="590" y="483" on="1"/>
        <pt x="590" y="645" on="0"/>
        <pt x="452" y="645" on="1"/>
        <pt x="269" y="645" on="1"/>
        <pt x="181" y="90" on="1"/>
      </contour>
    </TTGlyph>
    <TTGlyph name="Dcaron" xMin="88" yMin="0" xMax="695" yMax="925">
      <contour>
        <pt x="333" y="924" on="1"/>
        <pt x="405" y="924" on="1"/>
        <pt x="458" y="846" on="1"/>
        <pt x="543" y="924" on="1"/>
        <pt x="629" y="924" on="1"/>
        <pt x="494" y="793" on="1"/>
        <pt x="414" y="793" on="1"/>
      </contour>
      <contour>
        <pt x="484" y="732" on="1"/>
        <pt x="591" y="732" on="0"/>
        <pt x="640" y="665" on="1"/>
        <pt x="687" y="600" on="0"/>
        <pt x="693" y="516" on="1"/>
        <pt x="694" y="490" on="0"/>
        <pt x="694" y="470" on="1"/>
        <pt x="694" y="413" on="0"/>
        <pt x="685" y="358" on="1"/>
        <pt x="656" y="184" on="0"/>
        <pt x="505" y="0" on="0"/>
        <pt x="370" y="0" on="1"/>
        <pt x="88" y="0" on="1"/>
        <pt x="204" y="731" on="1"/>
        <pt x="204" y="732" on="0"/>
      </contour>
      <contour>
        <pt x="379" y="90" on="1"/>
        <pt x="437" y="90" on="0"/>
        <pt x="482" y="129" on="1"/>
        <pt x="567" y="200" on="0"/>
        <pt x="593" y="364" on="1"/>
        <pt x="603" y="427" on="0"/>
        <pt x="603" y="483" on="1"/>
        <pt x="603" y="644" on="0"/>
        <pt x="466" y="644" on="1"/>
        <pt x="282" y="644" on="1"/>
        <pt x="194" y="90" on="1"/>
      </contour>
    </TTGlyph>
    <TTGlyph name="Dcroat" xMin="85" yMin="0" xMax="703" yMax="732">
      <contour>
        <pt x="492" y="732" on="1"/>
        <pt x="600" y="732" on="0"/>
        <pt x="648" y="665" on="1"/>
        <pt x="696" y="599" on="0"/>
        <pt x="701" y="515" on="1"/>
        <pt x="703" y="489" on="0"/>
        <pt x="703" y="469" on="1"/>
        <pt x="703" y="412" on="0"/>
        <pt x="694" y="358" on="1"/>
        <pt x="664" y="185" on="0"/>
        <pt x="513" y="0" on="0"/>
        <pt x="379" y="0" on="1"/>
        <pt x="96" y="0" on="1"/>
        <pt x="151" y="344" on="1"/>
        <pt x="86" y="344" on="1"/>
        <pt x="95" y="402" on="1"/>
        <pt x="160" y="402" on="1"/>
        <pt x="212" y="731" on="1"/>
        <pt x="212" y="732" on="0"/>
      </contour>
      <contour>
        <pt x="388" y="90" on="1"/>
        <pt x="445" y="90" on="0"/>
        <pt x="490" y="129" on="1"/>
        <pt x="574" y="200" on="0"/>
        <pt x="601" y="364" on="1"/>
        <pt x="611" y="427" on="0"/>
        <pt x="611" y="484" on="1"/>
        <pt x="611" y="644" on="0"/>
        <pt x="475" y="644" on="1"/>
        <pt x="290" y="644" on="1"/>
        <pt x="252" y="402" on="1"/>
        <pt x="384" y="402" on="1"/>
        <pt x="374" y="344" on="1"/>
        <pt x="243" y="344" on="1"/>
        <pt x="202" y="90" on="1"/>
      </contour>
    </TTGlyph>
    <TTGlyph name="E" xMin="90" yMin="-4" xMax="637" yMax="733">
      <contour>
        <pt x="313" y="732" on="1"/>
        <pt x="318" y="732" on="0"/>
        <pt x="619" y="718" on="0"/>
        <pt x="636" y="716" on="1"/>
        <pt x="625" y="642" on="1"/>
        <pt x="318" y="642" on="1"/>
        <pt x="274" y="642" on="0"/>
        <pt x="262" y="607" on="1"/>
        <pt x="259" y="598" on="0"/>
        <pt x="257" y="586" on="1"/>
        <pt x="229" y="410" on="1"/>
        <pt x="545" y="400" on="1"/>
        <pt x="533" y="326" on="1"/>
        <pt x="215" y="316" on="1"/>
        <pt x="186" y="139" on="1"/>
        <pt x="181" y="101" on="0"/>
        <pt x="201" y="93" on="1"/>
        <pt x="216" y="87" on="0"/>
        <pt x="241" y="87" on="1"/>
        <pt x="538" y="87" on="1"/>
        <pt x="525" y="14" on="1"/>
        <pt x="217" y="-3" on="1"/>
        <pt x="212" y="-3" on="0"/>
        <pt x="186" y="-3" on="0"/>
        <pt x="164" y="3" on="1"/>
        <pt x="91" y="23" on="0"/>
        <pt x="91" y="102" on="1"/>
        <pt x="91" y="116" on="0"/>
        <pt x="93" y="130" on="1"/>
        <pt x="167" y="598" on="1"/>
        <pt x="189" y="732" on="0"/>
      </contour>
    </TTGlyph>
    <TTGlyph name="Eacute" xMin="90" yMin="-4" xMax="637" yMax="927">
      <contour>
        <pt x="394" y="792" on="1"/>
        <pt x="517" y="926" on="1"/>
        <pt x="620" y="926" on="1"/>
        <pt x="468" y="792" on="1"/>
      </contour>
      <contour>
        <pt x="313" y="732" on="1"/>
        <pt x="318" y="732" on="0"/>
        <pt x="619" y="718" on="0"/>
        <pt x="636" y="716" on="1"/>
        <pt x="625" y="642" on="1"/>
        <pt x="318" y="642" on="1"/>
        <pt x="274" y="642" on="0"/>
        <pt x="262" y="607" on="1"/>
        <pt x="259" y="598" on="0"/>
        <pt x="257" y="586" on="1"/>
        <pt x="229" y="410" on="1"/>
        <pt x="545" y="400" on="1"/>
        <pt x="533" y="326" on="1"/>
        <pt x="215" y="316" on="1"/>
        <pt x="186" y="139" on="1"/>
        <pt x="181" y="101" on="0"/>
        <pt x="201" y="93" on="1"/>
        <pt x="216" y="87" on="0"/>
        <pt x="241" y="87" on="1"/>
        <pt x="538" y="87" on="1"/>
        <pt x="525" y="14" on="1"/>
        <pt x="217" y="-3" on="1"/>
        <pt x="212" y="-3" on="0"/>
        <pt x="186" y="-3" on="0"/>
        <pt x="164" y="3" on="1"/>
        <pt x="91" y="23" on="0"/>
        <pt x="91" y="102" on="1"/>
        <pt x="91" y="116" on="0"/>
        <pt x="93" y="130" on="1"/>
        <pt x="167" y="598" on="1"/>
        <pt x="189" y="732" on="0"/>
      </contour>
    </TTGlyph>
    <TTGlyph name="Ecaron" xMin="90" yMin="-4" xMax="637" yMax="929">
      <contour>
        <pt x="321" y="928" on="1"/>
        <pt x="393" y="928" on="1"/>
        <pt x="446" y="850" on="1"/>
        <pt x="531" y="928" on="1"/>
        <pt x="617" y="928" on="1"/>
        <pt x="482" y="797" on="1"/>
        <pt x="402" y="797" on="1"/>
      </contour>
      <contour>
        <pt x="313" y="732" on="1"/>
        <pt x="318" y="732" on="0"/>
        <pt x="619" y="718" on="0"/>
        <pt x="636" y="716" on="1"/>
        <pt x="625" y="642" on="1"/>
        <pt x="318" y="642" on="1"/>
        <pt x="274" y="642" on="0"/>
        <pt x="262" y="607" on="1"/>
        <pt x="259" y="598" on="0"/>
        <pt x="257" y="586" on="1"/>
        <pt x="229" y="410" on="1"/>
        <pt x="545" y="400" on="1"/>
        <pt x="533" y="326" on="1"/>
        <pt x="215" y="316" on="1"/>
        <pt x="186" y="139" on="1"/>
        <pt x="181" y="101" on="0"/>
        <pt x="201" y="93" on="1"/>
        <pt x="216" y="87" on="0"/>
        <pt x="241" y="87" on="1"/>
        <pt x="538" y="87" on="1"/>
        <pt x="525" y="14" on="1"/>
        <pt x="217" y="-3" on="1"/>
        <pt x="212" y="-3" on="0"/>
        <pt x="186" y="-3" on="0"/>
        <pt x="164" y="3" on="1"/>
        <pt x="91" y="23" on="0"/>
        <pt x="91" y="102" on="1"/>
        <pt x="91" y="116" on="0"/>
        <pt x="93" y="130" on="1"/>
        <pt x="167" y="598" on="1"/>
        <pt x="189" y="732" on="0"/>
      </contour>
    </TTGlyph>
    <TTGlyph name="Ecircumflex" xMin="90" yMin="-4" xMax="637" yMax="925">
      <contour>
        <pt x="282" y="792" on="1"/>
        <pt x="418" y="924" on="1"/>
        <pt x="498" y="924" on="1"/>
        <pt x="579" y="792" on="1"/>
        <pt x="504" y="792" on="1"/>
        <pt x="455" y="868" on="1"/>
        <pt x="374" y="792" on="1"/>
      </contour>
      <contour>
        <pt x="313" y="732" on="1"/>
        <pt x="318" y="732" on="0"/>
        <pt x="619" y="718" on="0"/>
        <pt x="636" y="716" on="1"/>
        <pt x="625" y="642" on="1"/>
        <pt x="318" y="642" on="1"/>
        <pt x="274" y="642" on="0"/>
        <pt x="262" y="607" on="1"/>
        <pt x="259" y="598" on="0"/>
        <pt x="257" y="586" on="1"/>
        <pt x="229" y="410" on="1"/>
        <pt x="545" y="400" on="1"/>
        <pt x="533" y="326" on="1"/>
        <pt x="215" y="316" on="1"/>
        <pt x="186" y="139" on="1"/>
        <pt x="181" y="101" on="0"/>
        <pt x="201" y="93" on="1"/>
        <pt x="216" y="87" on="0"/>
        <pt x="241" y="87" on="1"/>
        <pt x="538" y="87" on="1"/>
        <pt x="525" y="14" on="1"/>
        <pt x="217" y="-3" on="1"/>
        <pt x="212" y="-3" on="0"/>
        <pt x="186" y="-3" on="0"/>
        <pt x="164" y="3" on="1"/>
        <pt x="91" y="23" on="0"/>
        <pt x="91" y="102" on="1"/>
        <pt x="91" y="116" on="0"/>
        <pt x="93" y="130" on="1"/>
        <pt x="167" y="598" on="1"/>
        <pt x="189" y="732" on="0"/>
      </contour>
    </TTGlyph>
    <TTGlyph name="Edieresis" xMin="90" yMin="-4" xMax="637" yMax="896">
      <contour>
        <pt x="290" y="895" on="0"/>
        <pt x="334" y="895" on="0"/>
        <pt x="357" y="868" on="0"/>
        <pt x="357" y="858" on="1"/>
        <pt x="357" y="824" on="0"/>
        <pt x="317" y="790" on="0"/>
        <pt x="274" y="790" on="0"/>
        <pt x="250" y="818" on="0"/>
        <pt x="250" y="828" on="1"/>
        <pt x="250" y="862" on="0"/>
      </contour>
      <contour>
        <pt x="545" y="895" on="0"/>
        <pt x="589" y="895" on="0"/>
        <pt x="612" y="868" on="0"/>
        <pt x="612" y="858" on="1"/>
        <pt x="612" y="824" on="0"/>
        <pt x="572" y="790" on="0"/>
        <pt x="529" y="790" on="0"/>
        <pt x="505" y="818" on="0"/>
        <pt x="505" y="828" on="1"/>
        <pt x="505" y="862" on="0"/>
      </contour>
      <contour>
        <pt x="313" y="732" on="1"/>
        <pt x="318" y="732" on="0"/>
        <pt x="619" y="718" on="0"/>
        <pt x="636" y="716" on="1"/>
        <pt x="625" y="642" on="1"/>
        <pt x="318" y="642" on="1"/>
        <pt x="274" y="642" on="0"/>
        <pt x="262" y="607" on="1"/>
        <pt x="259" y="598" on="0"/>
        <pt x="257" y="586" on="1"/>
        <pt x="229" y="410" on="1"/>
        <pt x="545" y="400" on="1"/>
        <pt x="533" y="326" on="1"/>
        <pt x="215" y="316" on="1"/>
        <pt x="186" y="139" on="1"/>
        <pt x="181" y="101" on="0"/>
        <pt x="201" y="93" on="1"/>
        <pt x="216" y="87" on="0"/>
        <pt x="241" y="87" on="1"/>
        <pt x="538" y="87" on="1"/>
        <pt x="525" y="14" on="1"/>
        <pt x="217" y="-3" on="1"/>
        <pt x="212" y="-3" on="0"/>
        <pt x="186" y="-3" on="0"/>
        <pt x="164" y="3" on="1"/>
        <pt x="91" y="23" on="0"/>
        <pt x="91" y="102" on="1"/>
        <pt x="91" y="116" on="0"/>
        <pt x="93" y="130" on="1"/>
        <pt x="167" y="598" on="1"/>
        <pt x="189" y="732" on="0"/>
      </contour>
    </TTGlyph>
    <TTGlyph name="Edotaccent" xMin="90" yMin="-4" xMax="637" yMax="905">
      <contour>
        <pt x="428" y="905" on="1"/>
        <pt x="484" y="905" on="1"/>
        <pt x="507" y="905" on="0"/>
        <pt x="503" y="880" on="1"/>
        <pt x="493" y="820" on="1"/>
        <pt x="490" y="797" on="0"/>
        <pt x="467" y="797" on="1"/>
        <pt x="411" y="797" on="1"/>
        <pt x="401" y="797" on="0"/>
        <pt x="389" y="810" on="0"/>
        <pt x="390" y="820" on="1"/>
        <pt x="400" y="880" on="1"/>
        <pt x="404" y="905" on="0"/>
      </contour>
      <contour>
        <pt x="313" y="732" on="1"/>
        <pt x="318" y="732" on="0"/>
        <pt x="619" y="718" on="0"/>
        <pt x="636" y="716" on="1"/>
        <pt x="625" y="642" on="1"/>
        <pt x="318" y="642" on="1"/>
        <pt x="274" y="642" on="0"/>
        <pt x="262" y="607" on="1"/>
        <pt x="259" y="598" on="0"/>
        <pt x="257" y="586" on="1"/>
        <pt x="229" y="410" on="1"/>
        <pt x="545" y="400" on="1"/>
        <pt x="533" y="326" on="1"/>
        <pt x="215" y="316" on="1"/>
        <pt x="186" y="139" on="1"/>
        <pt x="181" y="101" on="0"/>
        <pt x="201" y="93" on="1"/>
        <pt x="216" y="87" on="0"/>
        <pt x="241" y="87" on="1"/>
        <pt x="538" y="87" on="1"/>
        <pt x="525" y="14" on="1"/>
        <pt x="217" y="-3" on="1"/>
        <pt x="212" y="-3" on="0"/>
        <pt x="186" y="-3" on="0"/>
        <pt x="164" y="3" on="1"/>
        <pt x="91" y="23" on="0"/>
        <pt x="91" y="102" on="1"/>
        <pt x="91" y="116" on="0"/>
        <pt x="93" y="130" on="1"/>
        <pt x="167" y="598" on="1"/>
        <pt x="189" y="732" on="0"/>
      </contour>
    </TTGlyph>
    <TTGlyph name="Egrave" xMin="90" yMin="-4" xMax="637" yMax="927">
      <contour>
        <pt x="278" y="926" on="1"/>
        <pt x="374" y="926" on="1"/>
        <pt x="472" y="792" on="1"/>
        <pt x="397" y="792" on="1"/>
      </contour>
      <contour>
        <pt x="313" y="732" on="1"/>
        <pt x="318" y="732" on="0"/>
        <pt x="619" y="718" on="0"/>
        <pt x="636" y="716" on="1"/>
        <pt x="625" y="642" on="1"/>
        <pt x="318" y="642" on="1"/>
        <pt x="274" y="642" on="0"/>
        <pt x="262" y="607" on="1"/>
        <pt x="259" y="598" on="0"/>
        <pt x="257" y="586" on="1"/>
        <pt x="229" y="410" on="1"/>
        <pt x="545" y="400" on="1"/>
        <pt x="533" y="326" on="1"/>
        <pt x="215" y="316" on="1"/>
        <pt x="186" y="139" on="1"/>
        <pt x="181" y="101" on="0"/>
        <pt x="201" y="93" on="1"/>
        <pt x="216" y="87" on="0"/>
        <pt x="241" y="87" on="1"/>
        <pt x="538" y="87" on="1"/>
        <pt x="525" y="14" on="1"/>
        <pt x="217" y="-3" on="1"/>
        <pt x="212" y="-3" on="0"/>
        <pt x="186" y="-3" on="0"/>
        <pt x="164" y="3" on="1"/>
        <pt x="91" y="23" on="0"/>
        <pt x="91" y="102" on="1"/>
        <pt x="91" y="116" on="0"/>
        <pt x="93" y="130" on="1"/>
        <pt x="167" y="598" on="1"/>
        <pt x="189" y="732" on="0"/>
      </contour>
    </TTGlyph>
    <TTGlyph name="Emacron" xMin="90" yMin="-4" xMax="637" yMax="860">
      <contour>
        <pt x="278" y="792" on="1"/>
        <pt x="288" y="860" on="1"/>
        <pt x="580" y="860" on="1"/>
        <pt x="570" y="792" on="1"/>
      </contour>
      <contour>
        <pt x="313" y="732" on="1"/>
        <pt x="318" y="732" on="0"/>
        <pt x="619" y="718" on="0"/>
        <pt x="636" y="716" on="1"/>
        <pt x="625" y="642" on="1"/>
        <pt x="318" y="642" on="1"/>
        <pt x="274" y="642" on="0"/>
        <pt x="262" y="607" on="1"/>
        <pt x="259" y="598" on="0"/>
        <pt x="257" y="586" on="1"/>
        <pt x="229" y="410" on="1"/>
        <pt x="545" y="400" on="1"/>
        <pt x="533" y="326" on="1"/>
        <pt x="215" y="316" on="1"/>
        <pt x="186" y="139" on="1"/>
        <pt x="181" y="101" on="0"/>
        <pt x="201" y="93" on="1"/>
        <pt x="216" y="87" on="0"/>
        <pt x="241" y="87" on="1"/>
        <pt x="538" y="87" on="1"/>
        <pt x="525" y="14" on="1"/>
        <pt x="217" y="-3" on="1"/>
        <pt x="212" y="-3" on="0"/>
        <pt x="186" y="-3" on="0"/>
        <pt x="164" y="3" on="1"/>
        <pt x="91" y="23" on="0"/>
        <pt x="91" y="102" on="1"/>
        <pt x="91" y="116" on="0"/>
        <pt x="93" y="130" on="1"/>
        <pt x="167" y="598" on="1"/>
        <pt x="189" y="732" on="0"/>
      </contour>
    </TTGlyph>
    <TTGlyph name="Eng" xMin="74" yMin="-258" xMax="722" yMax="732">
      <contour>
        <pt x="413" y="-255" on="1"/>
        <pt x="385" y="-257" on="0"/>
        <pt x="348" y="-257" on="0"/>
        <pt x="340" y="-257" on="1"/>
        <pt x="351" y="-188" on="1"/>
        <pt x="360" y="-186" on="0"/>
        <pt x="394" y="-180" on="0"/>
        <pt x="415" y="-175" on="0"/>
        <pt x="445" y="-165" on="0"/>
        <pt x="465" y="-150" on="0"/>
        <pt x="475" y="-138" on="1"/>
        <pt x="495" y="-116" on="0"/>
        <pt x="503" y="-68" on="1"/>
        <pt x="515" y="5" on="1"/>
        <pt x="256" y="560" on="1"/>
        <pt x="168" y="0" on="1"/>
        <pt x="75" y="0" on="1"/>
        <pt x="191" y="732" on="1"/>
        <pt x="281" y="732" on="1"/>
        <pt x="541" y="171" on="1"/>
        <pt x="630" y="732" on="1"/>
        <pt x="722" y="732" on="1"/>
        <pt x="593" y="-81" on="1"/>
        <pt x="568" y="-240" on="0"/>
      </contour>
    </TTGlyph>
    <TTGlyph name="Eogonek" xMin="94" yMin="-171" xMax="641" yMax="733">
      <contour>
        <pt x="389" y="-95" on="1"/>
        <pt x="389" y="-26" on="0"/>
        <pt x="486" y="14" on="1"/>
        <pt x="529" y="14" on="1"/>
        <pt x="459" y="-36" on="0"/>
        <pt x="459" y="-73" on="1"/>
        <pt x="459" y="-104" on="0"/>
        <pt x="506" y="-104" on="1"/>
        <pt x="511" y="-104" on="0"/>
        <pt x="515" y="-104" on="1"/>
        <pt x="505" y="-168" on="1"/>
        <pt x="492" y="-171" on="0"/>
        <pt x="480" y="-171" on="1"/>
        <pt x="440" y="-171" on="0"/>
        <pt x="389" y="-124" on="0"/>
      </contour>
      <contour>
        <pt x="318" y="732" on="1"/>
        <pt x="323" y="732" on="0"/>
        <pt x="623" y="718" on="0"/>
        <pt x="641" y="716" on="1"/>
        <pt x="629" y="642" on="1"/>
        <pt x="323" y="642" on="1"/>
        <pt x="278" y="642" on="0"/>
        <pt x="266" y="607" on="1"/>
        <pt x="264" y="598" on="0"/>
        <pt x="262" y="586" on="1"/>
        <pt x="234" y="410" on="1"/>
        <pt x="549" y="400" on="1"/>
        <pt x="537" y="326" on="1"/>
        <pt x="219" y="316" on="1"/>
        <pt x="191" y="139" on="1"/>
        <pt x="185" y="101" on="0"/>
        <pt x="205" y="93" on="1"/>
        <pt x="220" y="87" on="0"/>
        <pt x="246" y="87" on="1"/>
        <pt x="542" y="87" on="1"/>
        <pt x="530" y="14" on="1"/>
        <pt x="221" y="-3" on="1"/>
        <pt x="216" y="-3" on="0"/>
        <pt x="190" y="-3" on="0"/>
        <pt x="169" y="3" on="1"/>
        <pt x="95" y="23" on="0"/>
        <pt x="95" y="102" on="1"/>
        <pt x="95" y="116" on="0"/>
        <pt x="97" y="130" on="1"/>
        <pt x="171" y="598" on="1"/>
        <pt x="193" y="732" on="0"/>
      </contour>
    </TTGlyph>
    <TTGlyph name="Eth" xMin="63" yMin="0" xMax="681" yMax="732">
      <contour>
        <pt x="470" y="732" on="1"/>
        <pt x="578" y="732" on="0"/>
        <pt x="626" y="665" on="1"/>
        <pt x="674" y="599" on="0"/>
        <pt x="679" y="515" on="1"/>
        <pt x="681" y="489" on="0"/>
        <pt x="681" y="469" on="1"/>
        <pt x="681" y="412" on="0"/>
        <pt x="671" y="358" on="1"/>
        <pt x="642" y="185" on="0"/>
        <pt x="491" y="0" on="0"/>
        <pt x="357" y="0" on="1"/>
        <pt x="74" y="0" on="1"/>
        <pt x="129" y="344" on="1"/>
        <pt x="64" y="344" on="1"/>
        <pt x="73" y="402" on="1"/>
        <pt x="138" y="402" on="1"/>
        <pt x="190" y="731" on="1"/>
        <pt x="190" y="732" on="0"/>
      </contour>
      <contour>
        <pt x="366" y="90" on="1"/>
        <pt x="423" y="90" on="0"/>
        <pt x="468" y="129" on="1"/>
        <pt x="552" y="200" on="0"/>
        <pt x="579" y="364" on="1"/>
        <pt x="589" y="427" on="0"/>
        <pt x="589" y="484" on="1"/>
        <pt x="589" y="644" on="0"/>
        <pt x="453" y="644" on="1"/>
        <pt x="268" y="644" on="1"/>
        <pt x="230" y="402" on="1"/>
        <pt x="362" y="402" on="1"/>
        <pt x="352" y="344" on="1"/>
        <pt x="221" y="344" on="1"/>
        <pt x="180" y="90" on="1"/>
      </contour>
    </TTGlyph>
    <TTGlyph name="Euro" xMin="66" yMin="-6" xMax="710" yMax="740">
      <contour>
        <pt x="334" y="717" on="0"/>
        <pt x="416" y="740" on="0"/>
        <pt x="505" y="740" on="0"/>
        <pt x="658" y="720" on="0"/>
        <pt x="710" y="708" on="1"/>
        <pt x="699" y="638" on="1"/>
        <pt x="542" y="652" on="0"/>
        <pt x="418" y="652" on="0"/>
        <pt x="356" y="632" on="0"/>
        <pt x="320" y="602" on="0"/>
        <pt x="308" y="575" on="1"/>
        <pt x="290" y="538" on="0"/>
        <pt x="278" y="472" on="1"/>
        <pt x="511" y="464" on="1"/>
        <pt x="503" y="412" on="1"/>
        <pt x="268" y="406" on="1"/>
        <pt x="253" y="314" on="1"/>
        <pt x="485" y="306" on="1"/>
        <pt x="477" y="254" on="1"/>
        <pt x="338" y="251" on="0"/>
        <pt x="275" y="248" on="1"/>
        <pt x="242" y="246" on="1"/>
        <pt x="237" y="219" on="0"/>
        <pt x="237" y="186" on="0"/>
        <pt x="242" y="147" on="0"/>
        <pt x="261" y="110" on="0"/>
        <pt x="280" y="99" on="1"/>
        <pt x="314" y="80" on="0"/>
        <pt x="363" y="80" on="1"/>
        <pt x="454" y="80" on="0"/>
        <pt x="576" y="94" on="1"/>
        <pt x="617" y="98" on="1"/>
        <pt x="606" y="30" on="1"/>
        <pt x="486" y="-6" on="0"/>
        <pt x="347" y="-6" on="1"/>
        <pt x="284" y="-6" on="0"/>
        <pt x="242" y="14" on="1"/>
        <pt x="195" y="37" on="0"/>
        <pt x="177" y="67" on="1"/>
        <pt x="145" y="118" on="0"/>
        <pt x="145" y="202" on="0"/>
        <pt x="150" y="246" on="1"/>
        <pt x="66" y="254" on="1"/>
        <pt x="74" y="306" on="1"/>
        <pt x="161" y="314" on="1"/>
        <pt x="176" y="406" on="1"/>
        <pt x="92" y="414" on="1"/>
        <pt x="100" y="462" on="1"/>
        <pt x="186" y="472" on="1"/>
        <pt x="186" y="473" on="0"/>
        <pt x="190" y="500" on="0"/>
        <pt x="196" y="530" on="0"/>
        <pt x="214" y="591" on="0"/>
        <pt x="237" y="633" on="0"/>
        <pt x="280" y="685" on="0"/>
      </contour>
    </TTGlyph>
    <TTGlyph name="Euro.smcp" xMin="45" yMin="-5" xMax="569" yMax="578">
      <contour>
        <pt x="362" y="577" on="1"/>
        <pt x="397" y="577" on="0"/>
        <pt x="524" y="562" on="0"/>
        <pt x="568" y="554" on="1"/>
        <pt x="557" y="480" on="1"/>
        <pt x="424" y="491" on="0"/>
        <pt x="331" y="491" on="0"/>
        <pt x="286" y="474" on="0"/>
        <pt x="260" y="450" on="0"/>
        <pt x="251" y="432" on="1"/>
        <pt x="238" y="406" on="0"/>
        <pt x="231" y="369" on="1"/>
        <pt x="413" y="363" on="1"/>
        <pt x="404" y="313" on="1"/>
        <pt x="221" y="308" on="1"/>
        <pt x="213" y="255" on="1"/>
        <pt x="394" y="250" on="1"/>
        <pt x="387" y="198" on="1"/>
        <pt x="201" y="194" on="0"/>
        <pt x="203" y="192" on="1"/>
        <pt x="196" y="140" on="0"/>
        <pt x="212" y="110" on="0"/>
        <pt x="227" y="94" on="0"/>
        <pt x="240" y="90" on="1"/>
        <pt x="261" y="82" on="0"/>
        <pt x="294" y="82" on="1"/>
        <pt x="364" y="82" on="0"/>
        <pt x="465" y="93" on="1"/>
        <pt x="499" y="96" on="1"/>
        <pt x="487" y="23" on="1"/>
        <pt x="392" y="-5" on="0"/>
        <pt x="275" y="-5" on="1"/>
        <pt x="221" y="-5" on="0"/>
        <pt x="154" y="27" on="0"/>
        <pt x="137" y="48" on="1"/>
        <pt x="107" y="83" on="0"/>
        <pt x="107" y="148" on="1"/>
        <pt x="107" y="169" on="0"/>
        <pt x="111" y="192" on="1"/>
        <pt x="46" y="198" on="1"/>
        <pt x="54" y="250" on="1"/>
        <pt x="120" y="255" on="1"/>
        <pt x="128" y="308" on="1"/>
        <pt x="64" y="314" on="1"/>
        <pt x="71" y="362" on="1"/>
        <pt x="138" y="369" on="1"/>
        <pt x="149" y="440" on="0"/>
        <pt x="170" y="477" on="1"/>
        <pt x="198" y="525" on="0"/>
        <pt x="237" y="547" on="1"/>
        <pt x="291" y="577" on="0"/>
      </contour>
    </TTGlyph>
    <TTGlyph name="F" xMin="74" yMin="0" xMax="638" yMax="733">
      <contour>
        <pt x="315" y="732" on="1"/>
        <pt x="320" y="732" on="0"/>
        <pt x="620" y="718" on="0"/>
        <pt x="638" y="716" on="1"/>
        <pt x="626" y="642" on="1"/>
        <pt x="320" y="642" on="1"/>
        <pt x="275" y="642" on="0"/>
        <pt x="263" y="607" on="1"/>
        <pt x="260" y="598" on="0"/>
        <pt x="259" y="586" on="1"/>
        <pt x="231" y="410" on="1"/>
        <pt x="546" y="399" on="1"/>
        <pt x="535" y="325" on="1"/>
        <pt x="216" y="315" on="1"/>
        <pt x="166" y="0" on="1"/>
        <pt x="74" y="0" on="1"/>
        <pt x="168" y="594" on="1"/>
        <pt x="190" y="732" on="0"/>
      </contour>
    </TTGlyph>
    <TTGlyph name="G" xMin="102" yMin="0" xMax="657" yMax="740">
      <contour>
        <pt x="422" y="739" on="1"/>
        <pt x="514" y="739" on="0"/>
        <pt x="656" y="709" on="1"/>
        <pt x="646" y="636" on="1"/>
        <pt x="557" y="650" on="0"/>
        <pt x="413" y="652" on="1"/>
        <pt x="350" y="652" on="0"/>
        <pt x="318" y="629" on="1"/>
        <pt x="279" y="599" on="0"/>
        <pt x="255" y="547" on="1"/>
        <pt x="224" y="476" on="0"/>
        <pt x="199" y="303" on="0"/>
        <pt x="199" y="235" on="0"/>
        <pt x="200" y="219" on="1"/>
        <pt x="204" y="157" on="0"/>
        <pt x="264" y="83" on="0"/>
        <pt x="317" y="83" on="1"/>
        <pt x="318" y="83" on="0"/>
        <pt x="319" y="83" on="1"/>
        <pt x="352" y="83" on="0"/>
        <pt x="441" y="110" on="0"/>
        <pt x="468" y="123" on="1"/>
        <pt x="495" y="137" on="1"/>
        <pt x="526" y="311" on="1"/>
        <pt x="375" y="311" on="1"/>
        <pt x="385" y="372" on="1"/>
        <pt x="468" y="396" on="0"/>
        <pt x="564" y="396" on="1"/>
        <pt x="595" y="396" on="0"/>
        <pt x="631" y="394" on="1"/>
        <pt x="568" y="0" on="1"/>
        <pt x="499" y="0" on="1"/>
        <pt x="484" y="56" on="1"/>
        <pt x="447" y="22" on="0"/>
        <pt x="374" y="3" on="1"/>
        <pt x="273" y="-23" on="0"/>
        <pt x="205" y="16" on="1"/>
        <pt x="133" y="57" on="0"/>
        <pt x="112" y="164" on="1"/>
        <pt x="103" y="209" on="0"/>
        <pt x="103" y="261" on="0"/>
        <pt x="104" y="318" on="0"/>
        <pt x="126" y="448" on="0"/>
        <pt x="156" y="556" on="0"/>
        <pt x="203" y="650" on="0"/>
        <pt x="235" y="678" on="1"/>
        <pt x="302" y="739" on="0"/>
        <pt x="415" y="739" on="1"/>
        <pt x="419" y="739" on="0"/>
      </contour>
    </TTGlyph>
    <TTGlyph name="Gbreve" xMin="102" yMin="-7" xMax="657" yMax="913">
      <contour>
        <pt x="386" y="913" on="1"/>
        <pt x="385" y="907" on="0"/>
        <pt x="385" y="880" on="0"/>
        <pt x="413" y="848" on="0"/>
        <pt x="439" y="848" on="1"/>
        <pt x="440" y="848" on="0"/>
        <pt x="442" y="848" on="1"/>
        <pt x="505" y="848" on="0"/>
        <pt x="515" y="913" on="1"/>
        <pt x="564" y="913" on="1"/>
        <pt x="550" y="799" on="0"/>
        <pt x="439" y="799" on="1"/>
        <pt x="394" y="799" on="0"/>
        <pt x="336" y="857" on="0"/>
        <pt x="336" y="901" on="1"/>
        <pt x="336" y="907" on="0"/>
        <pt x="337" y="913" on="1"/>
      </contour>
      <contour>
        <pt x="422" y="739" on="1"/>
        <pt x="514" y="739" on="0"/>
        <pt x="656" y="709" on="1"/>
        <pt x="646" y="636" on="1"/>
        <pt x="557" y="650" on="0"/>
        <pt x="413" y="652" on="1"/>
        <pt x="350" y="652" on="0"/>
        <pt x="318" y="629" on="1"/>
        <pt x="279" y="599" on="0"/>
        <pt x="255" y="547" on="1"/>
        <pt x="224" y="476" on="0"/>
        <pt x="199" y="303" on="0"/>
        <pt x="199" y="235" on="0"/>
        <pt x="200" y="219" on="1"/>
        <pt x="204" y="157" on="0"/>
        <pt x="264" y="83" on="0"/>
        <pt x="317" y="83" on="1"/>
        <pt x="361" y="83" on="0"/>
        <pt x="398" y="96" on="1"/>
        <pt x="459" y="118" on="0"/>
        <pt x="484" y="131" on="1"/>
        <pt x="495" y="137" on="1"/>
        <pt x="526" y="311" on="1"/>
        <pt x="375" y="311" on="1"/>
        <pt x="385" y="372" on="1"/>
        <pt x="468" y="396" on="0"/>
        <pt x="564" y="396" on="1"/>
        <pt x="595" y="396" on="0"/>
        <pt x="631" y="394" on="1"/>
        <pt x="568" y="0" on="1"/>
        <pt x="499" y="0" on="1"/>
        <pt x="484" y="56" on="1"/>
        <pt x="458" y="31" on="0"/>
        <pt x="406" y="13" on="1"/>
        <pt x="353" y="-7" on="0"/>
        <pt x="245" y="-7" on="0"/>
        <pt x="205" y="16" on="1"/>
        <pt x="133" y="57" on="0"/>
        <pt x="112" y="164" on="1"/>
        <pt x="103" y="209" on="0"/>
        <pt x="103" y="261" on="0"/>
        <pt x="104" y="318" on="0"/>
        <pt x="126" y="448" on="0"/>
        <pt x="156" y="556" on="0"/>
        <pt x="203" y="650" on="0"/>
        <pt x="235" y="678" on="1"/>
        <pt x="302" y="739" on="0"/>
        <pt x="415" y="739" on="1"/>
        <pt x="419" y="739" on="0"/>
      </contour>
    </TTGlyph>
    <TTGlyph name="Gcircumflex" xMin="102" yMin="-7" xMax="657" yMax="931">
      <contour>
        <pt x="285" y="799" on="1"/>
        <pt x="420" y="931" on="1"/>
        <pt x="500" y="931" on="1"/>
        <pt x="581" y="799" on="1"/>
        <pt x="509" y="799" on="1"/>
        <pt x="456" y="877" on="1"/>
        <pt x="371" y="799" on="1"/>
      </contour>
      <contour>
        <pt x="422" y="739" on="1"/>
        <pt x="514" y="739" on="0"/>
        <pt x="656" y="709" on="1"/>
        <pt x="646" y="636" on="1"/>
        <pt x="557" y="650" on="0"/>
        <pt x="413" y="652" on="1"/>
        <pt x="350" y="652" on="0"/>
        <pt x="318" y="629" on="1"/>
        <pt x="279" y="599" on="0"/>
        <pt x="255" y="547" on="1"/>
        <pt x="224" y="476" on="0"/>
        <pt x="199" y="303" on="0"/>
        <pt x="199" y="235" on="0"/>
        <pt x="200" y="219" on="1"/>
        <pt x="204" y="157" on="0"/>
        <pt x="264" y="83" on="0"/>
        <pt x="317" y="83" on="1"/>
        <pt x="361" y="83" on="0"/>
        <pt x="398" y="96" on="1"/>
        <pt x="459" y="118" on="0"/>
        <pt x="484" y="131" on="1"/>
        <pt x="495" y="137" on="1"/>
        <pt x="526" y="311" on="1"/>
        <pt x="375" y="311" on="1"/>
        <pt x="385" y="372" on="1"/>
        <pt x="468" y="396" on="0"/>
        <pt x="564" y="396" on="1"/>
        <pt x="595" y="396" on="0"/>
        <pt x="631" y="394" on="1"/>
        <pt x="568" y="0" on="1"/>
        <pt x="499" y="0" on="1"/>
        <pt x="484" y="56" on="1"/>
        <pt x="458" y="31" on="0"/>
        <pt x="406" y="13" on="1"/>
        <pt x="353" y="-7" on="0"/>
        <pt x="245" y="-7" on="0"/>
        <pt x="205" y="16" on="1"/>
        <pt x="133" y="57" on="0"/>
        <pt x="112" y="164" on="1"/>
        <pt x="103" y="209" on="0"/>
        <pt x="103" y="261" on="0"/>
        <pt x="104" y="318" on="0"/>
        <pt x="126" y="448" on="0"/>
        <pt x="156" y="556" on="0"/>
        <pt x="203" y="650" on="0"/>
        <pt x="235" y="678" on="1"/>
        <pt x="302" y="739" on="0"/>
        <pt x="415" y="739" on="1"/>
        <pt x="419" y="739" on="0"/>
      </contour>
    </TTGlyph>
    <TTGlyph name="Gcommaaccent" xMin="102" yMin="-258" xMax="657" yMax="740">
      <contour>
        <pt x="294" y="-176" on="1"/>
        <pt x="284" y="-176" on="0"/>
        <pt x="273" y="-164" on="0"/>
        <pt x="275" y="-154" on="1"/>
        <pt x="284" y="-97" on="1"/>
        <pt x="288" y="-72" on="0"/>
        <pt x="310" y="-72" on="1"/>
        <pt x="364" y="-72" on="1"/>
        <pt x="382" y="-72" on="0"/>
        <pt x="382" y="-91" on="1"/>
        <pt x="382" y="-93" on="0"/>
        <pt x="382" y="-97" on="1"/>
        <pt x="368" y="-186" on="1"/>
        <pt x="364" y="-211" on="0"/>
        <pt x="352" y="-227" on="1"/>
        <pt x="329" y="-257" on="0"/>
        <pt x="282" y="-257" on="1"/>
        <pt x="277" y="-257" on="0"/>
        <pt x="263" y="-255" on="1"/>
        <pt x="269" y="-222" on="1"/>
        <pt x="288" y="-223" on="0"/>
        <pt x="293" y="-215" on="1"/>
        <pt x="299" y="-205" on="0"/>
        <pt x="301" y="-196" on="1"/>
        <pt x="304" y="-176" on="1"/>
      </contour>
      <contour>
        <pt x="422" y="739" on="1"/>
        <pt x="514" y="739" on="0"/>
        <pt x="656" y="709" on="1"/>
        <pt x="646" y="636" on="1"/>
        <pt x="557" y="650" on="0"/>
        <pt x="413" y="652" on="1"/>
        <pt x="350" y="652" on="0"/>
        <pt x="318" y="629" on="1"/>
        <pt x="279" y="599" on="0"/>
        <pt x="255" y="547" on="1"/>
        <pt x="224" y="476" on="0"/>
        <pt x="199" y="303" on="0"/>
        <pt x="199" y="235" on="0"/>
        <pt x="200" y="219" on="1"/>
        <pt x="204" y="157" on="0"/>
        <pt x="264" y="83" on="0"/>
        <pt x="317" y="83" on="1"/>
        <pt x="361" y="83" on="0"/>
        <pt x="398" y="96" on="1"/>
        <pt x="459" y="118" on="0"/>
        <pt x="484" y="131" on="1"/>
        <pt x="495" y="137" on="1"/>
        <pt x="526" y="311" on="1"/>
        <pt x="375" y="311" on="1"/>
        <pt x="385" y="372" on="1"/>
        <pt x="468" y="396" on="0"/>
        <pt x="564" y="396" on="1"/>
        <pt x="595" y="396" on="0"/>
        <pt x="631" y="394" on="1"/>
        <pt x="568" y="0" on="1"/>
        <pt x="499" y="0" on="1"/>
        <pt x="484" y="56" on="1"/>
        <pt x="458" y="31" on="0"/>
        <pt x="406" y="13" on="1"/>
        <pt x="353" y="-7" on="0"/>
        <pt x="245" y="-7" on="0"/>
        <pt x="205" y="16" on="1"/>
        <pt x="133" y="57" on="0"/>
        <pt x="112" y="164" on="1"/>
        <pt x="103" y="209" on="0"/>
        <pt x="103" y="261" on="0"/>
        <pt x="104" y="318" on="0"/>
        <pt x="126" y="448" on="0"/>
        <pt x="156" y="556" on="0"/>
        <pt x="203" y="650" on="0"/>
        <pt x="235" y="678" on="1"/>
        <pt x="302" y="739" on="0"/>
        <pt x="415" y="739" on="1"/>
        <pt x="419" y="739" on="0"/>
      </contour>
    </TTGlyph>
    <TTGlyph name="Gdotaccent" xMin="102" yMin="-7" xMax="657" yMax="908">
      <contour>
        <pt x="428" y="908" on="1"/>
        <pt x="484" y="908" on="1"/>
        <pt x="506" y="908" on="0"/>
        <pt x="503" y="883" on="1"/>
        <pt x="493" y="823" on="1"/>
        <pt x="490" y="800" on="0"/>
        <pt x="467" y="800" on="1"/>
        <pt x="411" y="800" on="1"/>
        <pt x="400" y="800" on="0"/>
        <pt x="388" y="813" on="0"/>
        <pt x="390" y="823" on="1"/>
        <pt x="400" y="883" on="1"/>
        <pt x="403" y="908" on="0"/>
      </contour>
      <contour>
        <pt x="422" y="739" on="1"/>
        <pt x="514" y="739" on="0"/>
        <pt x="656" y="709" on="1"/>
        <pt x="646" y="636" on="1"/>
        <pt x="557" y="650" on="0"/>
        <pt x="413" y="652" on="1"/>
        <pt x="350" y="652" on="0"/>
        <pt x="318" y="629" on="1"/>
        <pt x="279" y="599" on="0"/>
        <pt x="255" y="547" on="1"/>
        <pt x="224" y="476" on="0"/>
        <pt x="199" y="303" on="0"/>
        <pt x="199" y="235" on="0"/>
        <pt x="200" y="219" on="1"/>
        <pt x="204" y="157" on="0"/>
        <pt x="264" y="83" on="0"/>
        <pt x="317" y="83" on="1"/>
        <pt x="361" y="83" on="0"/>
        <pt x="398" y="96" on="1"/>
        <pt x="459" y="118" on="0"/>
        <pt x="484" y="131" on="1"/>
        <pt x="495" y="137" on="1"/>
        <pt x="526" y="311" on="1"/>
        <pt x="375" y="311" on="1"/>
        <pt x="385" y="372" on="1"/>
        <pt x="468" y="396" on="0"/>
        <pt x="564" y="396" on="1"/>
        <pt x="595" y="396" on="0"/>
        <pt x="631" y="394" on="1"/>
        <pt x="568" y="0" on="1"/>
        <pt x="499" y="0" on="1"/>
        <pt x="484" y="56" on="1"/>
        <pt x="458" y="31" on="0"/>
        <pt x="406" y="13" on="1"/>
        <pt x="353" y="-7" on="0"/>
        <pt x="245" y="-7" on="0"/>
        <pt x="205" y="16" on="1"/>
        <pt x="133" y="57" on="0"/>
        <pt x="112" y="164" on="1"/>
        <pt x="103" y="209" on="0"/>
        <pt x="103" y="261" on="0"/>
        <pt x="104" y="318" on="0"/>
        <pt x="126" y="448" on="0"/>
        <pt x="156" y="556" on="0"/>
        <pt x="203" y="650" on="0"/>
        <pt x="235" y="678" on="1"/>
        <pt x="302" y="739" on="0"/>
        <pt x="415" y="739" on="1"/>
        <pt x="419" y="739" on="0"/>
      </contour>
    </TTGlyph>
    <TTGlyph name="H" xMin="79" yMin="0" xMax="702" yMax="732">
      <contour>
        <pt x="79" y="0" on="1"/>
        <pt x="195" y="732" on="1"/>
        <pt x="287" y="732" on="1"/>
        <pt x="233" y="398" on="1"/>
        <pt x="556" y="398" on="1"/>
        <pt x="610" y="732" on="1"/>
        <pt x="702" y="732" on="1"/>
        <pt x="586" y="0" on="1"/>
        <pt x="494" y="0" on="1"/>
        <pt x="544" y="310" on="1"/>
        <pt x="221" y="310" on="1"/>
        <pt x="171" y="0" on="1"/>
      </contour>
    </TTGlyph>
    <TTGlyph name="Hbar" xMin="79" yMin="0" xMax="737" yMax="732">
      <contour>
        <pt x="79" y="0" on="1"/>
        <pt x="161" y="517" on="1"/>
        <pt x="100" y="517" on="1"/>
        <pt x="108" y="575" on="1"/>
        <pt x="170" y="575" on="1"/>
        <pt x="195" y="732" on="1"/>
        <pt x="287" y="732" on="1"/>
        <pt x="262" y="575" on="1"/>
        <pt x="585" y="575" on="1"/>
        <pt x="610" y="732" on="1"/>
        <pt x="702" y="732" on="1"/>
        <pt x="677" y="575" on="1"/>
        <pt x="737" y="575" on="1"/>
        <pt x="728" y="517" on="1"/>
        <pt x="668" y="517" on="1"/>
        <pt x="586" y="0" on="1"/>
        <pt x="494" y="0" on="1"/>
        <pt x="545" y="310" on="1"/>
        <pt x="222" y="310" on="1"/>
        <pt x="171" y="0" on="1"/>
      </contour>
      <contour>
        <pt x="234" y="400" on="1"/>
        <pt x="557" y="400" on="1"/>
        <pt x="576" y="517" on="1"/>
        <pt x="253" y="517" on="1"/>
      </contour>
    </TTGlyph>
    <TTGlyph name="Hcircumflex" xMin="79" yMin="0" xMax="702" yMax="929">
      <contour>
        <pt x="311" y="797" on="1"/>
        <pt x="446" y="928" on="1"/>
        <pt x="526" y="928" on="1"/>
        <pt x="607" y="797" on="1"/>
        <pt x="535" y="797" on="1"/>
        <pt x="482" y="875" on="1"/>
        <pt x="397" y="797" on="1"/>
      </contour>
      <contour>
        <pt x="79" y="0" on="1"/>
        <pt x="195" y="732" on="1"/>
        <pt x="287" y="732" on="1"/>
        <pt x="233" y="398" on="1"/>
        <pt x="556" y="398" on="1"/>
        <pt x="610" y="732" on="1"/>
        <pt x="702" y="732" on="1"/>
        <pt x="586" y="0" on="1"/>
        <pt x="494" y="0" on="1"/>
        <pt x="544" y="310" on="1"/>
        <pt x="221" y="310" on="1"/>
        <pt x="171" y="0" on="1"/>
      </contour>
    </TTGlyph>
    <TTGlyph name="I" xMin="83" yMin="0" xMax="292" yMax="732">
      <contour>
        <pt x="83" y="0" on="1"/>
        <pt x="199" y="732" on="1"/>
        <pt x="291" y="732" on="1"/>
        <pt x="175" y="0" on="1"/>
      </contour>
    </TTGlyph>
    <TTGlyph name="Iacute" xMin="83" yMin="0" xMax="445" yMax="932">
      <contour>
        <pt x="218" y="797" on="1"/>
        <pt x="342" y="932" on="1"/>
        <pt x="445" y="932" on="1"/>
        <pt x="293" y="797" on="1"/>
      </contour>
      <contour>
        <pt x="83" y="0" on="1"/>
        <pt x="199" y="732" on="1"/>
        <pt x="291" y="732" on="1"/>
        <pt x="175" y="0" on="1"/>
      </contour>
    </TTGlyph>
    <TTGlyph name="Icircumflex" xMin="83" yMin="0" xMax="404" yMax="929">
      <contour>
        <pt x="107" y="797" on="1"/>
        <pt x="243" y="928" on="1"/>
        <pt x="323" y="928" on="1"/>
        <pt x="404" y="797" on="1"/>
        <pt x="332" y="797" on="1"/>
        <pt x="279" y="875" on="1"/>
        <pt x="194" y="797" on="1"/>
      </contour>
      <contour>
        <pt x="83" y="0" on="1"/>
        <pt x="199" y="732" on="1"/>
        <pt x="291" y="732" on="1"/>
        <pt x="175" y="0" on="1"/>
      </contour>
    </TTGlyph>
    <TTGlyph name="Idieresis" xMin="83" yMin="0" xMax="446" yMax="903">
      <contour>
        <pt x="123" y="902" on="0"/>
        <pt x="167" y="902" on="0"/>
        <pt x="190" y="875" on="0"/>
        <pt x="190" y="865" on="1"/>
        <pt x="190" y="832" on="0"/>
        <pt x="151" y="797" on="0"/>
        <pt x="107" y="797" on="0"/>
        <pt x="83" y="825" on="0"/>
        <pt x="83" y="836" on="1"/>
        <pt x="83" y="869" on="0"/>
      </contour>
      <contour>
        <pt x="378" y="902" on="0"/>
        <pt x="422" y="902" on="0"/>
        <pt x="445" y="875" on="0"/>
        <pt x="445" y="865" on="1"/>
        <pt x="445" y="832" on="0"/>
        <pt x="406" y="797" on="0"/>
        <pt x="362" y="797" on="0"/>
        <pt x="338" y="825" on="0"/>
        <pt x="338" y="836" on="1"/>
        <pt x="338" y="869" on="0"/>
      </contour>
      <contour>
        <pt x="83" y="0" on="1"/>
        <pt x="199" y="732" on="1"/>
        <pt x="291" y="732" on="1"/>
        <pt x="175" y="0" on="1"/>
      </contour>
    </TTGlyph>
    <TTGlyph name="Idotaccent" xMin="83" yMin="0" xMax="321" yMax="905">
      <contour>
        <pt x="301" y="905" on="1"/>
        <pt x="321" y="905" on="0"/>
        <pt x="321" y="885" on="1"/>
        <pt x="321" y="883" on="0"/>
        <pt x="320" y="880" on="1"/>
        <pt x="311" y="820" on="1"/>
        <pt x="308" y="797" on="0"/>
        <pt x="285" y="797" on="1"/>
        <pt x="229" y="797" on="1"/>
        <pt x="218" y="797" on="0"/>
        <pt x="206" y="810" on="0"/>
        <pt x="208" y="820" on="1"/>
        <pt x="217" y="880" on="1"/>
        <pt x="221" y="905" on="0"/>
        <pt x="245" y="905" on="1"/>
      </contour>
      <contour>
        <pt x="83" y="0" on="1"/>
        <pt x="199" y="732" on="1"/>
        <pt x="291" y="732" on="1"/>
        <pt x="175" y="0" on="1"/>
      </contour>
    </TTGlyph>
    <TTGlyph name="Idotaccent.smcp" xMin="55" yMin="0" xMax="266" yMax="737">
      <contour>
        <pt x="55" y="0" on="1"/>
        <pt x="145" y="570" on="1"/>
        <pt x="237" y="570" on="1"/>
        <pt x="147" y="0" on="1"/>
      </contour>
      <contour>
        <pt x="246" y="737" on="1"/>
        <pt x="265" y="737" on="0"/>
        <pt x="265" y="717" on="1"/>
        <pt x="265" y="715" on="0"/>
        <pt x="265" y="712" on="1"/>
        <pt x="255" y="652" on="1"/>
        <pt x="252" y="629" on="0"/>
        <pt x="229" y="629" on="1"/>
        <pt x="173" y="629" on="1"/>
        <pt x="163" y="629" on="0"/>
        <pt x="151" y="642" on="0"/>
        <pt x="152" y="652" on="1"/>
        <pt x="162" y="712" on="1"/>
        <pt x="165" y="737" on="0"/>
        <pt x="190" y="737" on="1"/>
      </contour>
    </TTGlyph>
    <TTGlyph name="Igrave" xMin="83" yMin="0" xMax="294" yMax="932">
      <contour>
        <pt x="99" y="932" on="1"/>
        <pt x="195" y="932" on="1"/>
        <pt x="293" y="797" on="1"/>
        <pt x="218" y="797" on="1"/>
      </contour>
      <contour>
        <pt x="83" y="0" on="1"/>
        <pt x="199" y="732" on="1"/>
        <pt x="291" y="732" on="1"/>
        <pt x="175" y="0" on="1"/>
      </contour>
    </TTGlyph>
    <TTGlyph name="Imacron" xMin="42" yMin="0" xMax="362" yMax="861">
      <contour>
        <pt x="59" y="793" on="1"/>
        <pt x="70" y="860" on="1"/>
        <pt x="362" y="860" on="1"/>
        <pt x="351" y="793" on="1"/>
      </contour>
      <contour>
        <pt x="42" y="0" on="1"/>
        <pt x="158" y="732" on="1"/>
        <pt x="250" y="732" on="1"/>
        <pt x="134" y="0" on="1"/>
      </contour>
    </TTGlyph>
    <TTGlyph name="Iogonek" xMin="14" yMin="-185" xMax="292" yMax="732">
      <contour>
        <pt x="14" y="-109" on="1"/>
        <pt x="14" y="-40" on="0"/>
        <pt x="111" y="0" on="1"/>
        <pt x="154" y="0" on="1"/>
        <pt x="84" y="-50" on="0"/>
        <pt x="84" y="-87" on="1"/>
        <pt x="84" y="-118" on="0"/>
        <pt x="131" y="-118" on="1"/>
        <pt x="135" y="-118" on="0"/>
        <pt x="140" y="-118" on="1"/>
        <pt x="129" y="-182" on="1"/>
        <pt x="117" y="-184" on="0"/>
        <pt x="105" y="-184" on="1"/>
        <pt x="65" y="-184" on="0"/>
        <pt x="14" y="-138" on="0"/>
      </contour>
      <contour>
        <pt x="83" y="0" on="1"/>
        <pt x="199" y="732" on="1"/>
        <pt x="291" y="732" on="1"/>
        <pt x="175" y="0" on="1"/>
      </contour>
    </TTGlyph>
    <TTGlyph name="Itilde" xMin="83" yMin="0" xMax="437" yMax="909">
      <contour>
        <pt x="248" y="906" on="0"/>
        <pt x="309" y="874" on="0"/>
        <pt x="322" y="873" on="0"/>
        <pt x="341" y="873" on="0"/>
        <pt x="412" y="901" on="0"/>
        <pt x="421" y="908" on="1"/>
        <pt x="436" y="861" on="1"/>
        <pt x="429" y="856" on="0"/>
        <pt x="396" y="832" on="0"/>
        <pt x="377" y="820" on="0"/>
        <pt x="363" y="812" on="1"/>
        <pt x="309" y="782" on="0"/>
        <pt x="253" y="815" on="1"/>
        <pt x="225" y="832" on="0"/>
        <pt x="208" y="832" on="1"/>
        <pt x="180" y="832" on="0"/>
        <pt x="146" y="817" on="0"/>
        <pt x="114" y="800" on="0"/>
        <pt x="108" y="797" on="1"/>
        <pt x="92" y="842" on="1"/>
        <pt x="145" y="883" on="0"/>
        <pt x="201" y="907" on="0"/>
      </contour>
      <contour>
        <pt x="83" y="0" on="1"/>
        <pt x="199" y="732" on="1"/>
        <pt x="291" y="732" on="1"/>
        <pt x="175" y="0" on="1"/>
      </contour>
    </TTGlyph>
    <TTGlyph name="J" xMin="35" yMin="-6" xMax="419" yMax="732">
      <contour>
        <pt x="50" y="91" on="1"/>
        <pt x="107" y="79" on="0"/>
        <pt x="144" y="79" on="0"/>
        <pt x="163" y="82" on="0"/>
        <pt x="197" y="94" on="0"/>
        <pt x="207" y="106" on="1"/>
        <pt x="232" y="134" on="0"/>
        <pt x="239" y="182" on="1"/>
        <pt x="326" y="732" on="1"/>
        <pt x="418" y="732" on="1"/>
        <pt x="328" y="165" on="1"/>
        <pt x="316" y="84" on="0"/>
        <pt x="287" y="47" on="1"/>
        <pt x="244" y="-6" on="0"/>
        <pt x="148" y="-6" on="1"/>
        <pt x="74" y="-6" on="0"/>
        <pt x="36" y="22" on="1"/>
      </contour>
    </TTGlyph>
    <TTGlyph name="Jcircumflex" xMin="35" yMin="-6" xMax="531" yMax="929">
      <contour>
        <pt x="234" y="797" on="1"/>
        <pt x="370" y="928" on="1"/>
        <pt x="450" y="928" on="1"/>
        <pt x="531" y="797" on="1"/>
        <pt x="459" y="797" on="1"/>
        <pt x="406" y="875" on="1"/>
        <pt x="321" y="797" on="1"/>
      </contour>
      <contour>
        <pt x="50" y="91" on="1"/>
        <pt x="107" y="79" on="0"/>
        <pt x="144" y="79" on="0"/>
        <pt x="163" y="82" on="0"/>
        <pt x="197" y="94" on="0"/>
        <pt x="207" y="106" on="1"/>
        <pt x="232" y="134" on="0"/>
        <pt x="239" y="182" on="1"/>
        <pt x="326" y="732" on="1"/>
        <pt x="418" y="732" on="1"/>
        <pt x="328" y="165" on="1"/>
        <pt x="316" y="84" on="0"/>
        <pt x="287" y="47" on="1"/>
        <pt x="244" y="-6" on="0"/>
        <pt x="148" y="-6" on="1"/>
        <pt x="74" y="-6" on="0"/>
        <pt x="36" y="22" on="1"/>
      </contour>
    </TTGlyph>
    <TTGlyph name="K" xMin="74" yMin="0" xMax="685" yMax="732">
      <contour>
        <pt x="75" y="0" on="1"/>
        <pt x="191" y="732" on="1"/>
        <pt x="281" y="732" on="1"/>
        <pt x="230" y="410" on="1"/>
        <pt x="309" y="410" on="1"/>
        <pt x="572" y="732" on="1"/>
        <pt x="685" y="732" on="1"/>
        <pt x="388" y="360" on="1"/>
        <pt x="569" y="0" on="1"/>
        <pt x="460" y="0" on="1"/>
        <pt x="302" y="322" on="1"/>
        <pt x="217" y="322" on="1"/>
        <pt x="166" y="0" on="1"/>
      </contour>
    </TTGlyph>
    <TTGlyph name="Kcommaaccent" xMin="74" yMin="-253" xMax="685" yMax="732">
      <contour>
        <pt x="262" y="-171" on="1"/>
        <pt x="252" y="-171" on="0"/>
        <pt x="241" y="-159" on="0"/>
        <pt x="243" y="-148" on="1"/>
        <pt x="252" y="-92" on="1"/>
        <pt x="256" y="-68" on="0"/>
        <pt x="279" y="-68" on="1"/>
        <pt x="333" y="-68" on="1"/>
        <pt x="350" y="-68" on="0"/>
        <pt x="350" y="-86" on="1"/>
        <pt x="350" y="-88" on="0"/>
        <pt x="350" y="-92" on="1"/>
        <pt x="336" y="-181" on="1"/>
        <pt x="332" y="-206" on="0"/>
        <pt x="320" y="-222" on="1"/>
        <pt x="297" y="-252" on="0"/>
        <pt x="250" y="-252" on="1"/>
        <pt x="245" y="-252" on="0"/>
        <pt x="232" y="-250" on="1"/>
        <pt x="237" y="-217" on="1"/>
        <pt x="249" y="-218" on="0"/>
        <pt x="257" y="-213" on="1"/>
        <pt x="266" y="-206" on="0"/>
        <pt x="269" y="-191" on="1"/>
        <pt x="272" y="-171" on="1"/>
      </contour>
      <contour>
        <pt x="75" y="0" on="1"/>
        <pt x="191" y="732" on="1"/>
        <pt x="281" y="732" on="1"/>
        <pt x="230" y="410" on="1"/>
        <pt x="309" y="410" on="1"/>
        <pt x="572" y="732" on="1"/>
        <pt x="685" y="732" on="1"/>
        <pt x="388" y="360" on="1"/>
        <pt x="569" y="0" on="1"/>
        <pt x="460" y="0" on="1"/>
        <pt x="302" y="322" on="1"/>
        <pt x="217" y="322" on="1"/>
        <pt x="166" y="0" on="1"/>
      </contour>
    </TTGlyph>
    <TTGlyph name="L" xMin="91" yMin="0" xMax="534" yMax="732">
      <contour>
        <pt x="243" y="89" on="1"/>
        <pt x="534" y="89" on="1"/>
        <pt x="520" y="0" on="1"/>
        <pt x="214" y="0" on="1"/>
        <pt x="155" y="0" on="0"/>
        <pt x="92" y="56" on="0"/>
        <pt x="92" y="101" on="1"/>
        <pt x="92" y="115" on="0"/>
        <pt x="94" y="130" on="1"/>
        <pt x="191" y="732" on="1"/>
        <pt x="283" y="732" on="1"/>
        <pt x="188" y="141" on="1"/>
        <pt x="182" y="103" on="0"/>
        <pt x="202" y="95" on="1"/>
        <pt x="217" y="89" on="0"/>
      </contour>
    </TTGlyph>
    <TTGlyph name="Lacute" xMin="33" yMin="0" xMax="476" yMax="927">
      <contour>
        <pt x="150" y="792" on="1"/>
        <pt x="274" y="926" on="1"/>
        <pt x="377" y="926" on="1"/>
        <pt x="225" y="792" on="1"/>
      </contour>
      <contour>
        <pt x="184" y="89" on="1"/>
        <pt x="475" y="89" on="1"/>
        <pt x="462" y="0" on="1"/>
        <pt x="155" y="0" on="1"/>
        <pt x="96" y="0" on="0"/>
        <pt x="33" y="56" on="0"/>
        <pt x="33" y="101" on="1"/>
        <pt x="33" y="115" on="0"/>
        <pt x="36" y="130" on="1"/>
        <pt x="133" y="732" on="1"/>
        <pt x="224" y="732" on="1"/>
        <pt x="129" y="141" on="1"/>
        <pt x="124" y="103" on="0"/>
        <pt x="144" y="95" on="1"/>
        <pt x="158" y="89" on="0"/>
      </contour>
    </TTGlyph>
    <TTGlyph name="Lcaron" xMin="91" yMin="0" xMax="534" yMax="772">
      <contour>
        <pt x="243" y="89" on="1"/>
        <pt x="534" y="89" on="1"/>
        <pt x="520" y="0" on="1"/>
        <pt x="214" y="0" on="1"/>
        <pt x="155" y="0" on="0"/>
        <pt x="92" y="56" on="0"/>
        <pt x="92" y="101" on="1"/>
        <pt x="92" y="115" on="0"/>
        <pt x="94" y="130" on="1"/>
        <pt x="191" y="732" on="1"/>
        <pt x="283" y="732" on="1"/>
        <pt x="188" y="141" on="1"/>
        <pt x="182" y="103" on="0"/>
        <pt x="202" y="95" on="1"/>
        <pt x="217" y="89" on="0"/>
      </contour>
      <contour>
        <pt x="336" y="571" on="1"/>
        <pt x="346" y="705" on="1"/>
        <pt x="357" y="772" on="1"/>
        <pt x="437" y="772" on="1"/>
        <pt x="426" y="705" on="1"/>
        <pt x="395" y="571" on="1"/>
      </contour>
    </TTGlyph>
    <TTGlyph name="Lcommaaccent" xMin="91" yMin="-253" xMax="534" yMax="732">
      <contour>
        <pt x="261" y="-171" on="1"/>
        <pt x="251" y="-171" on="0"/>
        <pt x="240" y="-159" on="0"/>
        <pt x="242" y="-148" on="1"/>
        <pt x="250" y="-92" on="1"/>
        <pt x="254" y="-68" on="0"/>
        <pt x="277" y="-68" on="1"/>
        <pt x="331" y="-68" on="1"/>
        <pt x="349" y="-68" on="0"/>
        <pt x="349" y="-86" on="1"/>
        <pt x="349" y="-88" on="0"/>
        <pt x="348" y="-92" on="1"/>
        <pt x="334" y="-181" on="1"/>
        <pt x="330" y="-206" on="0"/>
        <pt x="318" y="-222" on="1"/>
        <pt x="296" y="-252" on="0"/>
        <pt x="249" y="-252" on="1"/>
        <pt x="244" y="-252" on="0"/>
        <pt x="230" y="-250" on="1"/>
        <pt x="235" y="-217" on="1"/>
        <pt x="254" y="-218" on="0"/>
        <pt x="259" y="-210" on="1"/>
        <pt x="266" y="-200" on="0"/>
        <pt x="267" y="-191" on="1"/>
        <pt x="271" y="-171" on="1"/>
      </contour>
      <contour>
        <pt x="243" y="89" on="1"/>
        <pt x="534" y="89" on="1"/>
        <pt x="520" y="0" on="1"/>
        <pt x="214" y="0" on="1"/>
        <pt x="155" y="0" on="0"/>
        <pt x="92" y="56" on="0"/>
        <pt x="92" y="101" on="1"/>
        <pt x="92" y="115" on="0"/>
        <pt x="94" y="130" on="1"/>
        <pt x="191" y="732" on="1"/>
        <pt x="283" y="732" on="1"/>
        <pt x="188" y="141" on="1"/>
        <pt x="182" y="103" on="0"/>
        <pt x="202" y="95" on="1"/>
        <pt x="217" y="89" on="0"/>
      </contour>
    </TTGlyph>
    <TTGlyph name="Lslash" xMin="40" yMin="0" xMax="533" yMax="733">
      <contour>
        <pt x="241" y="89" on="1"/>
        <pt x="532" y="89" on="1"/>
        <pt x="518" y="0" on="1"/>
        <pt x="213" y="0" on="1"/>
        <pt x="153" y="0" on="0"/>
        <pt x="90" y="56" on="0"/>
        <pt x="90" y="101" on="1"/>
        <pt x="90" y="115" on="0"/>
        <pt x="93" y="130" on="1"/>
        <pt x="128" y="352" on="1"/>
        <pt x="40" y="316" on="1"/>
        <pt x="51" y="380" on="1"/>
        <pt x="139" y="415" on="1"/>
        <pt x="189" y="732" on="1"/>
        <pt x="280" y="732" on="1"/>
        <pt x="236" y="455" on="1"/>
        <pt x="377" y="512" on="1"/>
        <pt x="366" y="448" on="1"/>
        <pt x="227" y="392" on="1"/>
        <pt x="187" y="141" on="1"/>
        <pt x="182" y="109" on="0"/>
        <pt x="194" y="100" on="1"/>
        <pt x="197" y="97" on="0"/>
        <pt x="202" y="93" on="0"/>
        <pt x="212" y="91" on="0"/>
        <pt x="217" y="90" on="0"/>
        <pt x="223" y="89" on="1"/>
        <pt x="231" y="89" on="0"/>
      </contour>
    </TTGlyph>
    <TTGlyph name="M" xMin="65" yMin="0" xMax="833" yMax="732">
      <contour>
        <pt x="65" y="0" on="1"/>
        <pt x="234" y="732" on="1"/>
        <pt x="356" y="732" on="1"/>
        <pt x="442" y="153" on="1"/>
        <pt x="706" y="732" on="1"/>
        <pt x="833" y="732" on="1"/>
        <pt x="776" y="0" on="1"/>
        <pt x="685" y="0" on="1"/>
        <pt x="732" y="569" on="1"/>
        <pt x="471" y="0" on="1"/>
        <pt x="372" y="0" on="1"/>
        <pt x="288" y="568" on="1"/>
        <pt x="157" y="0" on="1"/>
      </contour>
    </TTGlyph>
    <TTGlyph name="M.salt" xMin="51" yMin="0" xMax="822" yMax="737">
      <contour>
        <pt x="334" y="735" on="0"/>
        <pt x="392" y="691" on="0"/>
        <pt x="396" y="648" on="1"/>
        <pt x="439" y="281" on="1"/>
        <pt x="441" y="267" on="0"/>
        <pt x="461" y="269" on="0"/>
        <pt x="465" y="281" on="1"/>
        <pt x="616" y="666" on="1"/>
        <pt x="628" y="697" on="0"/>
        <pt x="654" y="716" on="1"/>
        <pt x="683" y="737" on="0"/>
        <pt x="743" y="737" on="0"/>
        <pt x="791" y="722" on="0"/>
        <pt x="821" y="677" on="0"/>
        <pt x="821" y="651" on="1"/>
        <pt x="821" y="646" on="0"/>
        <pt x="821" y="642" on="1"/>
        <pt x="767" y="0" on="1"/>
        <pt x="673" y="0" on="1"/>
        <pt x="727" y="624" on="1"/>
        <pt x="729" y="637" on="0"/>
        <pt x="704" y="641" on="0"/>
        <pt x="699" y="629" on="1"/>
        <pt x="548" y="247" on="1"/>
        <pt x="534" y="212" on="0"/>
        <pt x="473" y="175" on="0"/>
        <pt x="442" y="175" on="1"/>
        <pt x="408" y="175" on="0"/>
        <pt x="354" y="221" on="0"/>
        <pt x="350" y="263" on="1"/>
        <pt x="307" y="625" on="1"/>
        <pt x="306" y="633" on="0"/>
        <pt x="294" y="641" on="0"/>
        <pt x="281" y="633" on="0"/>
        <pt x="279" y="623" on="1"/>
        <pt x="142" y="0" on="1"/>
        <pt x="51" y="0" on="1"/>
        <pt x="192" y="644" on="1"/>
        <pt x="198" y="685" on="0"/>
        <pt x="230" y="709" on="1"/>
        <pt x="264" y="735" on="0"/>
      </contour>
    </TTGlyph>
    <TTGlyph name="N" xMin="74" yMin="0" xMax="722" yMax="732">
      <contour>
        <pt x="75" y="0" on="1"/>
        <pt x="191" y="732" on="1"/>
        <pt x="281" y="732" on="1"/>
        <pt x="541" y="170" on="1"/>
        <pt x="630" y="732" on="1"/>
        <pt x="722" y="732" on="1"/>
        <pt x="606" y="0" on="1"/>
        <pt x="517" y="0" on="1"/>
        <pt x="256" y="560" on="1"/>
        <pt x="168" y="0" on="1"/>
      </contour>
    </TTGlyph>
    <TTGlyph name="N.salt" xMin="74" yMin="-8" xMax="745" yMax="737">
      <contour>
        <pt x="179" y="676" on="0"/>
        <pt x="221" y="724" on="0"/>
        <pt x="268" y="736" on="0"/>
        <pt x="282" y="736" on="1"/>
        <pt x="328" y="736" on="0"/>
        <pt x="376" y="694" on="0"/>
        <pt x="382" y="665" on="1"/>
        <pt x="528" y="100" on="1"/>
        <pt x="531" y="86" on="0"/>
        <pt x="550" y="87" on="0"/>
        <pt x="553" y="103" on="1"/>
        <pt x="652" y="732" on="1"/>
        <pt x="744" y="732" on="1"/>
        <pt x="646" y="91" on="1"/>
        <pt x="639" y="47" on="0"/>
        <pt x="609" y="21" on="1"/>
        <pt x="576" y="-7" on="0"/>
        <pt x="506" y="-7" on="0"/>
        <pt x="445" y="39" on="0"/>
        <pt x="436" y="84" on="1"/>
        <pt x="293" y="640" on="1"/>
        <pt x="291" y="647" on="0"/>
        <pt x="280" y="650" on="0"/>
        <pt x="268" y="641" on="0"/>
        <pt x="267" y="633" on="1"/>
        <pt x="167" y="0" on="1"/>
        <pt x="75" y="0" on="1"/>
        <pt x="174" y="641" on="1"/>
      </contour>
    </TTGlyph>
    <TTGlyph name="Nacute" xMin="74" yMin="0" xMax="722" yMax="932">
      <contour>
        <pt x="429" y="797" on="1"/>
        <pt x="553" y="932" on="1"/>
        <pt x="655" y="932" on="1"/>
        <pt x="504" y="797" on="1"/>
      </contour>
      <contour>
        <pt x="75" y="0" on="1"/>
        <pt x="191" y="732" on="1"/>
        <pt x="281" y="732" on="1"/>
        <pt x="541" y="170" on="1"/>
        <pt x="630" y="732" on="1"/>
        <pt x="722" y="732" on="1"/>
        <pt x="606" y="0" on="1"/>
        <pt x="517" y="0" on="1"/>
        <pt x="256" y="560" on="1"/>
        <pt x="168" y="0" on="1"/>
      </contour>
    </TTGlyph>
    <TTGlyph name="Nacute.salt" xMin="74" yMin="-8" xMax="745" yMax="933">
      <contour>
        <pt x="453" y="798" on="1"/>
        <pt x="576" y="932" on="1"/>
        <pt x="679" y="932" on="1"/>
        <pt x="528" y="798" on="1"/>
      </contour>
      <contour>
        <pt x="179" y="676" on="0"/>
        <pt x="221" y="724" on="0"/>
        <pt x="268" y="736" on="0"/>
        <pt x="282" y="736" on="1"/>
        <pt x="328" y="736" on="0"/>
        <pt x="376" y="694" on="0"/>
        <pt x="382" y="665" on="1"/>
        <pt x="528" y="100" on="1"/>
        <pt x="531" y="86" on="0"/>
        <pt x="550" y="87" on="0"/>
        <pt x="553" y="103" on="1"/>
        <pt x="652" y="732" on="1"/>
        <pt x="744" y="732" on="1"/>
        <pt x="646" y="91" on="1"/>
        <pt x="639" y="47" on="0"/>
        <pt x="609" y="21" on="1"/>
        <pt x="576" y="-7" on="0"/>
        <pt x="506" y="-7" on="0"/>
        <pt x="445" y="39" on="0"/>
        <pt x="436" y="84" on="1"/>
        <pt x="293" y="640" on="1"/>
        <pt x="291" y="647" on="0"/>
        <pt x="280" y="650" on="0"/>
        <pt x="268" y="641" on="0"/>
        <pt x="267" y="633" on="1"/>
        <pt x="167" y="0" on="1"/>
        <pt x="75" y="0" on="1"/>
        <pt x="174" y="641" on="1"/>
      </contour>
    </TTGlyph>
    <TTGlyph name="Ncaron" xMin="74" yMin="0" xMax="722" yMax="929">
      <contour>
        <pt x="339" y="928" on="1"/>
        <pt x="411" y="928" on="1"/>
        <pt x="465" y="850" on="1"/>
        <pt x="549" y="928" on="1"/>
        <pt x="636" y="928" on="1"/>
        <pt x="500" y="797" on="1"/>
        <pt x="421" y="797" on="1"/>
      </contour>
      <contour>
        <pt x="75" y="0" on="1"/>
        <pt x="191" y="732" on="1"/>
        <pt x="281" y="732" on="1"/>
        <pt x="541" y="170" on="1"/>
        <pt x="630" y="732" on="1"/>
        <pt x="722" y="732" on="1"/>
        <pt x="606" y="0" on="1"/>
        <pt x="517" y="0" on="1"/>
        <pt x="256" y="560" on="1"/>
        <pt x="168" y="0" on="1"/>
      </contour>
    </TTGlyph>
    <TTGlyph name="Ncaron.salt" xMin="74" yMin="-8" xMax="745" yMax="930">
      <contour>
        <pt x="372" y="929" on="1"/>
        <pt x="444" y="929" on="1"/>
        <pt x="498" y="851" on="1"/>
        <pt x="582" y="929" on="1"/>
        <pt x="669" y="929" on="1"/>
        <pt x="533" y="798" on="1"/>
        <pt x="454" y="798" on="1"/>
      </contour>
      <contour>
        <pt x="179" y="676" on="0"/>
        <pt x="221" y="724" on="0"/>
        <pt x="268" y="736" on="0"/>
        <pt x="282" y="736" on="1"/>
        <pt x="328" y="736" on="0"/>
        <pt x="376" y="694" on="0"/>
        <pt x="382" y="665" on="1"/>
        <pt x="528" y="100" on="1"/>
        <pt x="531" y="86" on="0"/>
        <pt x="550" y="87" on="0"/>
        <pt x="553" y="103" on="1"/>
        <pt x="652" y="732" on="1"/>
        <pt x="744" y="732" on="1"/>
        <pt x="646" y="91" on="1"/>
        <pt x="639" y="47" on="0"/>
        <pt x="609" y="21" on="1"/>
        <pt x="576" y="-7" on="0"/>
        <pt x="506" y="-7" on="0"/>
        <pt x="445" y="39" on="0"/>
        <pt x="436" y="84" on="1"/>
        <pt x="293" y="640" on="1"/>
        <pt x="291" y="647" on="0"/>
        <pt x="280" y="650" on="0"/>
        <pt x="268" y="641" on="0"/>
        <pt x="267" y="633" on="1"/>
        <pt x="167" y="0" on="1"/>
        <pt x="75" y="0" on="1"/>
        <pt x="174" y="641" on="1"/>
      </contour>
    </TTGlyph>
    <TTGlyph name="Ncommaaccent" xMin="74" yMin="-253" xMax="722" yMax="732">
      <contour>
        <pt x="305" y="-171" on="1"/>
        <pt x="295" y="-171" on="0"/>
        <pt x="284" y="-159" on="0"/>
        <pt x="286" y="-148" on="1"/>
        <pt x="295" y="-92" on="1"/>
        <pt x="299" y="-68" on="0"/>
        <pt x="322" y="-68" on="1"/>
        <pt x="376" y="-68" on="1"/>
        <pt x="393" y="-68" on="0"/>
        <pt x="393" y="-86" on="1"/>
        <pt x="393" y="-88" on="0"/>
        <pt x="393" y="-92" on="1"/>
        <pt x="379" y="-181" on="1"/>
        <pt x="375" y="-206" on="0"/>
        <pt x="363" y="-222" on="1"/>
        <pt x="340" y="-252" on="0"/>
        <pt x="293" y="-252" on="1"/>
        <pt x="288" y="-252" on="0"/>
        <pt x="275" y="-250" on="1"/>
        <pt x="280" y="-217" on="1"/>
        <pt x="292" y="-218" on="0"/>
        <pt x="300" y="-213" on="1"/>
        <pt x="309" y="-206" on="0"/>
        <pt x="312" y="-191" on="1"/>
        <pt x="315" y="-171" on="1"/>
      </contour>
      <contour>
        <pt x="75" y="0" on="1"/>
        <pt x="191" y="732" on="1"/>
        <pt x="281" y="732" on="1"/>
        <pt x="541" y="170" on="1"/>
        <pt x="630" y="732" on="1"/>
        <pt x="722" y="732" on="1"/>
        <pt x="606" y="0" on="1"/>
        <pt x="517" y="0" on="1"/>
        <pt x="256" y="560" on="1"/>
        <pt x="168" y="0" on="1"/>
      </contour>
    </TTGlyph>
    <TTGlyph name="Ncommaaccent.salt" xMin="74" yMin="-264" xMax="745" yMax="737">
      <contour>
        <pt x="299" y="-181" on="1"/>
        <pt x="289" y="-181" on="0"/>
        <pt x="278" y="-169" on="0"/>
        <pt x="280" y="-158" on="1"/>
        <pt x="288" y="-100" on="1"/>
        <pt x="293" y="-76" on="0"/>
        <pt x="316" y="-76" on="1"/>
        <pt x="371" y="-76" on="1"/>
        <pt x="389" y="-76" on="0"/>
        <pt x="389" y="-94" on="1"/>
        <pt x="389" y="-97" on="0"/>
        <pt x="388" y="-100" on="1"/>
        <pt x="374" y="-191" on="1"/>
        <pt x="370" y="-216" on="0"/>
        <pt x="357" y="-233" on="1"/>
        <pt x="335" y="-264" on="0"/>
        <pt x="287" y="-264" on="1"/>
        <pt x="282" y="-264" on="0"/>
        <pt x="268" y="-261" on="1"/>
        <pt x="273" y="-228" on="1"/>
        <pt x="286" y="-228" on="0"/>
        <pt x="293" y="-223" on="1"/>
        <pt x="303" y="-216" on="0"/>
        <pt x="306" y="-201" on="1"/>
        <pt x="309" y="-181" on="1"/>
      </contour>
      <contour>
        <pt x="179" y="676" on="0"/>
        <pt x="221" y="724" on="0"/>
        <pt x="268" y="736" on="0"/>
        <pt x="282" y="736" on="1"/>
        <pt x="328" y="736" on="0"/>
        <pt x="376" y="694" on="0"/>
        <pt x="382" y="665" on="1"/>
        <pt x="528" y="100" on="1"/>
        <pt x="531" y="86" on="0"/>
        <pt x="550" y="87" on="0"/>
        <pt x="553" y="103" on="1"/>
        <pt x="652" y="732" on="1"/>
        <pt x="744" y="732" on="1"/>
        <pt x="646" y="91" on="1"/>
        <pt x="639" y="47" on="0"/>
        <pt x="609" y="21" on="1"/>
        <pt x="576" y="-7" on="0"/>
        <pt x="506" y="-7" on="0"/>
        <pt x="445" y="39" on="0"/>
        <pt x="436" y="84" on="1"/>
        <pt x="293" y="640" on="1"/>
        <pt x="291" y="647" on="0"/>
        <pt x="280" y="650" on="0"/>
        <pt x="268" y="641" on="0"/>
        <pt x="267" y="633" on="1"/>
        <pt x="167" y="0" on="1"/>
        <pt x="75" y="0" on="1"/>
        <pt x="174" y="641" on="1"/>
      </contour>
    </TTGlyph>
    <TTGlyph name="Ntilde" xMin="74" yMin="0" xMax="722" yMax="904">
      <contour>
        <pt x="453" y="902" on="0"/>
        <pt x="513" y="869" on="0"/>
        <pt x="527" y="869" on="0"/>
        <pt x="545" y="869" on="0"/>
        <pt x="617" y="897" on="0"/>
        <pt x="626" y="904" on="1"/>
        <pt x="641" y="857" on="1"/>
        <pt x="634" y="852" on="0"/>
        <pt x="601" y="828" on="0"/>
        <pt x="582" y="816" on="0"/>
        <pt x="568" y="808" on="1"/>
        <pt x="514" y="778" on="0"/>
        <pt x="457" y="811" on="1"/>
        <pt x="429" y="828" on="0"/>
        <pt x="413" y="828" on="1"/>
        <pt x="385" y="828" on="0"/>
        <pt x="351" y="813" on="0"/>
        <pt x="318" y="796" on="0"/>
        <pt x="312" y="793" on="1"/>
        <pt x="297" y="838" on="1"/>
        <pt x="349" y="878" on="0"/>
        <pt x="406" y="903" on="0"/>
      </contour>
      <contour>
        <pt x="75" y="0" on="1"/>
        <pt x="191" y="732" on="1"/>
        <pt x="281" y="732" on="1"/>
        <pt x="541" y="170" on="1"/>
        <pt x="630" y="732" on="1"/>
        <pt x="722" y="732" on="1"/>
        <pt x="606" y="0" on="1"/>
        <pt x="517" y="0" on="1"/>
        <pt x="256" y="560" on="1"/>
        <pt x="168" y="0" on="1"/>
      </contour>
    </TTGlyph>
    <TTGlyph name="Ntilde.salt" xMin="74" yMin="-8" xMax="745" yMax="909">
      <contour>
        <pt x="445" y="906" on="0"/>
        <pt x="505" y="874" on="0"/>
        <pt x="519" y="873" on="0"/>
        <pt x="537" y="873" on="0"/>
        <pt x="608" y="901" on="0"/>
        <pt x="618" y="908" on="1"/>
        <pt x="633" y="861" on="1"/>
        <pt x="626" y="856" on="0"/>
        <pt x="592" y="832" on="0"/>
        <pt x="574" y="820" on="0"/>
        <pt x="560" y="812" on="1"/>
        <pt x="506" y="782" on="0"/>
        <pt x="449" y="815" on="1"/>
        <pt x="421" y="832" on="0"/>
        <pt x="404" y="832" on="1"/>
        <pt x="371" y="832" on="0"/>
        <pt x="335" y="813" on="1"/>
        <pt x="311" y="801" on="0"/>
        <pt x="304" y="797" on="1"/>
        <pt x="289" y="842" on="1"/>
        <pt x="353" y="892" on="0"/>
        <pt x="402" y="907" on="0"/>
      </contour>
      <contour>
        <pt x="179" y="676" on="0"/>
        <pt x="221" y="724" on="0"/>
        <pt x="268" y="736" on="0"/>
        <pt x="282" y="736" on="1"/>
        <pt x="328" y="736" on="0"/>
        <pt x="376" y="694" on="0"/>
        <pt x="382" y="665" on="1"/>
        <pt x="528" y="100" on="1"/>
        <pt x="531" y="86" on="0"/>
        <pt x="550" y="87" on="0"/>
        <pt x="553" y="103" on="1"/>
        <pt x="652" y="732" on="1"/>
        <pt x="744" y="732" on="1"/>
        <pt x="646" y="91" on="1"/>
        <pt x="639" y="47" on="0"/>
        <pt x="609" y="21" on="1"/>
        <pt x="576" y="-7" on="0"/>
        <pt x="506" y="-7" on="0"/>
        <pt x="445" y="39" on="0"/>
        <pt x="436" y="84" on="1"/>
        <pt x="293" y="640" on="1"/>
        <pt x="291" y="647" on="0"/>
        <pt x="280" y="650" on="0"/>
        <pt x="268" y="641" on="0"/>
        <pt x="267" y="633" on="1"/>
        <pt x="167" y="0" on="1"/>
        <pt x="75" y="0" on="1"/>
        <pt x="174" y="641" on="1"/>
      </contour>
    </TTGlyph>
    <TTGlyph name="O" xMin="99" yMin="-2" xMax="696" yMax="737">
      <contour>
        <pt x="361" y="733" on="0"/>
        <pt x="413" y="737" on="0"/>
        <pt x="490" y="737" on="0"/>
        <pt x="550" y="730" on="0"/>
        <pt x="611" y="710" on="0"/>
        <pt x="631" y="692" on="1"/>
        <pt x="678" y="652" on="0"/>
        <pt x="690" y="578" on="1"/>
        <pt x="696" y="544" on="0"/>
        <pt x="696" y="491" on="0"/>
        <pt x="695" y="427" on="0"/>
        <pt x="673" y="289" on="0"/>
        <pt x="644" y="182" on="0"/>
        <pt x="609" y="106" on="0"/>
        <pt x="562" y="53" on="0"/>
        <pt x="514" y="20" on="0"/>
        <pt x="482" y="11" on="1"/>
        <pt x="397" y="-13" on="0"/>
        <pt x="280" y="-1" on="1"/>
        <pt x="208" y="6" on="0"/>
        <pt x="169" y="36" on="1"/>
        <pt x="120" y="75" on="0"/>
        <pt x="106" y="146" on="1"/>
        <pt x="100" y="181" on="0"/>
        <pt x="100" y="234" on="0"/>
        <pt x="101" y="295" on="0"/>
        <pt x="122" y="428" on="0"/>
        <pt x="147" y="530" on="0"/>
        <pt x="179" y="605" on="0"/>
        <pt x="213" y="661" on="0"/>
        <pt x="259" y="698" on="0"/>
        <pt x="301" y="721" on="0"/>
      </contour>
      <contour>
        <pt x="218" y="437" on="1"/>
        <pt x="191" y="308" on="0"/>
        <pt x="191" y="223" on="1"/>
        <pt x="191" y="129" on="0"/>
        <pt x="244" y="103" on="1"/>
        <pt x="280" y="85" on="0"/>
        <pt x="408" y="85" on="0"/>
        <pt x="478" y="105" on="0"/>
        <pt x="509" y="135" on="1"/>
        <pt x="565" y="189" on="0"/>
        <pt x="592" y="361" on="1"/>
        <pt x="605" y="444" on="0"/>
        <pt x="605" y="538" on="0"/>
        <pt x="594" y="581" on="0"/>
        <pt x="582" y="610" on="0"/>
        <pt x="556" y="630" on="0"/>
        <pt x="534" y="641" on="0"/>
        <pt x="515" y="644" on="1"/>
        <pt x="487" y="648" on="0"/>
        <pt x="421" y="648" on="0"/>
        <pt x="394" y="647" on="0"/>
        <pt x="356" y="643" on="0"/>
        <pt x="333" y="635" on="0"/>
        <pt x="302" y="621" on="0"/>
        <pt x="283" y="599" on="0"/>
        <pt x="259" y="568" on="0"/>
        <pt x="251" y="547" on="1"/>
        <pt x="229" y="490" on="0"/>
      </contour>
    </TTGlyph>
    <TTGlyph name="OE" xMin="87" yMin="-4" xMax="1089" yMax="737">
      <contour>
        <pt x="457" y="737" on="1"/>
        <pt x="592" y="737" on="0"/>
        <pt x="642" y="662" on="1"/>
        <pt x="661" y="704" on="0"/>
        <pt x="723" y="732" on="0"/>
        <pt x="763" y="732" on="1"/>
        <pt x="769" y="732" on="0"/>
        <pt x="1071" y="718" on="0"/>
        <pt x="1088" y="716" on="1"/>
        <pt x="1077" y="642" on="1"/>
        <pt x="770" y="642" on="1"/>
        <pt x="726" y="642" on="0"/>
        <pt x="714" y="607" on="1"/>
        <pt x="711" y="598" on="0"/>
        <pt x="709" y="586" on="1"/>
        <pt x="682" y="410" on="1"/>
        <pt x="997" y="400" on="1"/>
        <pt x="986" y="326" on="1"/>
        <pt x="667" y="316" on="1"/>
        <pt x="638" y="139" on="1"/>
        <pt x="633" y="101" on="0"/>
        <pt x="653" y="93" on="1"/>
        <pt x="668" y="87" on="0"/>
        <pt x="693" y="87" on="1"/>
        <pt x="990" y="87" on="1"/>
        <pt x="977" y="14" on="1"/>
        <pt x="670" y="-3" on="1"/>
        <pt x="665" y="-3" on="0"/>
        <pt x="660" y="-3" on="1"/>
        <pt x="627" y="-3" on="0"/>
        <pt x="567" y="27" on="0"/>
        <pt x="554" y="61" on="1"/>
        <pt x="503" y="11" on="0"/>
        <pt x="421" y="1" on="1"/>
        <pt x="385" y="-4" on="0"/>
        <pt x="297" y="-4" on="0"/>
        <pt x="239" y="2" on="0"/>
        <pt x="177" y="20" on="0"/>
        <pt x="157" y="36" on="1"/>
        <pt x="107" y="75" on="0"/>
        <pt x="94" y="146" on="1"/>
        <pt x="87" y="181" on="0"/>
        <pt x="87" y="234" on="0"/>
        <pt x="88" y="295" on="0"/>
        <pt x="109" y="428" on="0"/>
        <pt x="135" y="530" on="0"/>
        <pt x="167" y="605" on="0"/>
        <pt x="201" y="661" on="0"/>
        <pt x="246" y="698" on="0"/>
        <pt x="289" y="721" on="0"/>
        <pt x="318" y="727" on="1"/>
        <pt x="368" y="737" on="0"/>
      </contour>
      <contour>
        <pt x="205" y="437" on="1"/>
        <pt x="178" y="308" on="0"/>
        <pt x="178" y="223" on="1"/>
        <pt x="178" y="129" on="0"/>
        <pt x="231" y="103" on="1"/>
        <pt x="268" y="85" on="0"/>
        <pt x="395" y="85" on="0"/>
        <pt x="466" y="105" on="0"/>
        <pt x="496" y="135" on="1"/>
        <pt x="552" y="189" on="0"/>
        <pt x="579" y="361" on="1"/>
        <pt x="592" y="444" on="0"/>
        <pt x="592" y="538" on="0"/>
        <pt x="581" y="581" on="0"/>
        <pt x="569" y="610" on="0"/>
        <pt x="543" y="630" on="0"/>
        <pt x="522" y="641" on="0"/>
        <pt x="503" y="644" on="1"/>
        <pt x="475" y="648" on="0"/>
        <pt x="408" y="648" on="0"/>
        <pt x="381" y="647" on="0"/>
        <pt x="343" y="643" on="0"/>
        <pt x="320" y="635" on="0"/>
        <pt x="290" y="621" on="0"/>
        <pt x="271" y="599" on="0"/>
        <pt x="247" y="568" on="0"/>
        <pt x="238" y="547" on="1"/>
        <pt x="216" y="490" on="0"/>
      </contour>
    </TTGlyph>
    <TTGlyph name="Oacute" xMin="99" yMin="-2" xMax="697" yMax="932">
      <contour>
        <pt x="421" y="797" on="1"/>
        <pt x="545" y="932" on="1"/>
        <pt x="648" y="932" on="1"/>
        <pt x="496" y="797" on="1"/>
      </contour>
      <contour>
        <pt x="361" y="733" on="0"/>
        <pt x="413" y="737" on="0"/>
        <pt x="484" y="737" on="0"/>
        <pt x="539" y="732" on="0"/>
        <pt x="594" y="717" on="0"/>
        <pt x="633" y="692" on="0"/>
        <pt x="651" y="672" on="1"/>
        <pt x="682" y="637" on="0"/>
        <pt x="693" y="557" on="1"/>
        <pt x="696" y="531" on="0"/>
        <pt x="696" y="508" on="1"/>
        <pt x="696" y="439" on="0"/>
        <pt x="673" y="289" on="0"/>
        <pt x="644" y="182" on="0"/>
        <pt x="609" y="106" on="0"/>
        <pt x="562" y="53" on="0"/>
        <pt x="514" y="20" on="0"/>
        <pt x="482" y="11" on="1"/>
        <pt x="397" y="-13" on="0"/>
        <pt x="280" y="-1" on="1"/>
        <pt x="208" y="6" on="0"/>
        <pt x="169" y="36" on="1"/>
        <pt x="120" y="75" on="0"/>
        <pt x="106" y="146" on="1"/>
        <pt x="100" y="181" on="0"/>
        <pt x="100" y="234" on="0"/>
        <pt x="101" y="295" on="0"/>
        <pt x="122" y="428" on="0"/>
        <pt x="147" y="530" on="0"/>
        <pt x="179" y="605" on="0"/>
        <pt x="213" y="661" on="0"/>
        <pt x="259" y="698" on="0"/>
        <pt x="301" y="721" on="0"/>
      </contour>
      <contour>
        <pt x="225" y="472" on="0"/>
        <pt x="210" y="403" on="0"/>
        <pt x="192" y="288" on="0"/>
        <pt x="191" y="235" on="0"/>
        <pt x="191" y="188" on="0"/>
        <pt x="207" y="129" on="0"/>
        <pt x="251" y="96" on="0"/>
        <pt x="308" y="85" on="0"/>
        <pt x="397" y="85" on="0"/>
        <pt x="457" y="97" on="0"/>
        <pt x="512" y="132" on="0"/>
        <pt x="531" y="162" on="1"/>
        <pt x="571" y="227" on="0"/>
        <pt x="592" y="361" on="1"/>
        <pt x="605" y="444" on="0"/>
        <pt x="605" y="538" on="0"/>
        <pt x="594" y="581" on="0"/>
        <pt x="582" y="610" on="0"/>
        <pt x="556" y="630" on="0"/>
        <pt x="534" y="641" on="0"/>
        <pt x="515" y="644" on="1"/>
        <pt x="487" y="648" on="0"/>
        <pt x="421" y="648" on="0"/>
        <pt x="394" y="647" on="0"/>
        <pt x="356" y="643" on="0"/>
        <pt x="333" y="635" on="0"/>
        <pt x="302" y="621" on="0"/>
        <pt x="283" y="599" on="0"/>
        <pt x="259" y="568" on="0"/>
        <pt x="243" y="526" on="0"/>
      </contour>
    </TTGlyph>
    <TTGlyph name="Ocircumflex" xMin="99" yMin="-2" xMax="697" yMax="929">
      <contour>
        <pt x="311" y="797" on="1"/>
        <pt x="446" y="928" on="1"/>
        <pt x="526" y="928" on="1"/>
        <pt x="607" y="797" on="1"/>
        <pt x="535" y="797" on="1"/>
        <pt x="482" y="875" on="1"/>
        <pt x="397" y="797" on="1"/>
      </contour>
      <contour>
        <pt x="361" y="733" on="0"/>
        <pt x="413" y="737" on="0"/>
        <pt x="484" y="737" on="0"/>
        <pt x="539" y="732" on="0"/>
        <pt x="594" y="717" on="0"/>
        <pt x="633" y="692" on="0"/>
        <pt x="651" y="672" on="1"/>
        <pt x="682" y="637" on="0"/>
        <pt x="693" y="557" on="1"/>
        <pt x="696" y="531" on="0"/>
        <pt x="696" y="508" on="1"/>
        <pt x="696" y="439" on="0"/>
        <pt x="673" y="289" on="0"/>
        <pt x="644" y="182" on="0"/>
        <pt x="609" y="106" on="0"/>
        <pt x="562" y="53" on="0"/>
        <pt x="514" y="20" on="0"/>
        <pt x="482" y="11" on="1"/>
        <pt x="397" y="-13" on="0"/>
        <pt x="280" y="-1" on="1"/>
        <pt x="208" y="6" on="0"/>
        <pt x="169" y="36" on="1"/>
        <pt x="120" y="75" on="0"/>
        <pt x="106" y="146" on="1"/>
        <pt x="100" y="181" on="0"/>
        <pt x="100" y="234" on="0"/>
        <pt x="101" y="295" on="0"/>
        <pt x="122" y="428" on="0"/>
        <pt x="147" y="530" on="0"/>
        <pt x="179" y="605" on="0"/>
        <pt x="213" y="661" on="0"/>
        <pt x="259" y="698" on="0"/>
        <pt x="301" y="721" on="0"/>
      </contour>
      <contour>
        <pt x="225" y="472" on="0"/>
        <pt x="210" y="403" on="0"/>
        <pt x="192" y="288" on="0"/>
        <pt x="191" y="235" on="0"/>
        <pt x="191" y="188" on="0"/>
        <pt x="207" y="129" on="0"/>
        <pt x="251" y="96" on="0"/>
        <pt x="308" y="85" on="0"/>
        <pt x="397" y="85" on="0"/>
        <pt x="457" y="97" on="0"/>
        <pt x="512" y="132" on="0"/>
        <pt x="531" y="162" on="1"/>
        <pt x="571" y="227" on="0"/>
        <pt x="592" y="361" on="1"/>
        <pt x="605" y="444" on="0"/>
        <pt x="605" y="538" on="0"/>
        <pt x="594" y="581" on="0"/>
        <pt x="582" y="610" on="0"/>
        <pt x="556" y="630" on="0"/>
        <pt x="534" y="641" on="0"/>
        <pt x="515" y="644" on="1"/>
        <pt x="487" y="648" on="0"/>
        <pt x="421" y="648" on="0"/>
        <pt x="394" y="647" on="0"/>
        <pt x="356" y="643" on="0"/>
        <pt x="333" y="635" on="0"/>
        <pt x="302" y="621" on="0"/>
        <pt x="283" y="599" on="0"/>
        <pt x="259" y="568" on="0"/>
        <pt x="243" y="526" on="0"/>
      </contour>
    </TTGlyph>
    <TTGlyph name="Odieresis" xMin="99" yMin="-2" xMax="697" yMax="903">
      <contour>
        <pt x="327" y="902" on="0"/>
        <pt x="371" y="902" on="0"/>
        <pt x="393" y="875" on="0"/>
        <pt x="393" y="865" on="1"/>
        <pt x="393" y="832" on="0"/>
        <pt x="354" y="797" on="0"/>
        <pt x="310" y="797" on="0"/>
        <pt x="287" y="825" on="0"/>
        <pt x="287" y="836" on="1"/>
        <pt x="287" y="869" on="0"/>
      </contour>
      <contour>
        <pt x="582" y="902" on="0"/>
        <pt x="626" y="902" on="0"/>
        <pt x="648" y="875" on="0"/>
        <pt x="648" y="865" on="1"/>
        <pt x="648" y="832" on="0"/>
        <pt x="609" y="797" on="0"/>
        <pt x="565" y="797" on="0"/>
        <pt x="542" y="825" on="0"/>
        <pt x="542" y="836" on="1"/>
        <pt x="542" y="869" on="0"/>
      </contour>
      <contour>
        <pt x="361" y="733" on="0"/>
        <pt x="413" y="737" on="0"/>
        <pt x="484" y="737" on="0"/>
        <pt x="539" y="732" on="0"/>
        <pt x="594" y="717" on="0"/>
        <pt x="633" y="692" on="0"/>
        <pt x="651" y="672" on="1"/>
        <pt x="682" y="637" on="0"/>
        <pt x="693" y="557" on="1"/>
        <pt x="696" y="531" on="0"/>
        <pt x="696" y="508" on="1"/>
        <pt x="696" y="439" on="0"/>
        <pt x="673" y="289" on="0"/>
        <pt x="644" y="182" on="0"/>
        <pt x="609" y="106" on="0"/>
        <pt x="562" y="53" on="0"/>
        <pt x="514" y="20" on="0"/>
        <pt x="482" y="11" on="1"/>
        <pt x="397" y="-13" on="0"/>
        <pt x="280" y="-1" on="1"/>
        <pt x="208" y="6" on="0"/>
        <pt x="169" y="36" on="1"/>
        <pt x="120" y="75" on="0"/>
        <pt x="106" y="146" on="1"/>
        <pt x="100" y="181" on="0"/>
        <pt x="100" y="234" on="0"/>
        <pt x="101" y="295" on="0"/>
        <pt x="122" y="428" on="0"/>
        <pt x="147" y="530" on="0"/>
        <pt x="179" y="605" on="0"/>
        <pt x="213" y="661" on="0"/>
        <pt x="259" y="698" on="0"/>
        <pt x="301" y="721" on="0"/>
      </contour>
      <contour>
        <pt x="225" y="472" on="0"/>
        <pt x="210" y="403" on="0"/>
        <pt x="192" y="288" on="0"/>
        <pt x="191" y="235" on="0"/>
        <pt x="191" y="188" on="0"/>
        <pt x="207" y="129" on="0"/>
        <pt x="251" y="96" on="0"/>
        <pt x="308" y="85" on="0"/>
        <pt x="397" y="85" on="0"/>
        <pt x="457" y="97" on="0"/>
        <pt x="512" y="132" on="0"/>
        <pt x="531" y="162" on="1"/>
        <pt x="571" y="227" on="0"/>
        <pt x="592" y="361" on="1"/>
        <pt x="605" y="444" on="0"/>
        <pt x="605" y="538" on="0"/>
        <pt x="594" y="581" on="0"/>
        <pt x="582" y="610" on="0"/>
        <pt x="556" y="630" on="0"/>
        <pt x="534" y="641" on="0"/>
        <pt x="515" y="644" on="1"/>
        <pt x="487" y="648" on="0"/>
        <pt x="421" y="648" on="0"/>
        <pt x="394" y="647" on="0"/>
        <pt x="356" y="643" on="0"/>
        <pt x="333" y="635" on="0"/>
        <pt x="302" y="621" on="0"/>
        <pt x="283" y="599" on="0"/>
        <pt x="259" y="568" on="0"/>
        <pt x="243" y="526" on="0"/>
      </contour>
    </TTGlyph>
    <TTGlyph name="Ograve" xMin="99" yMin="-2" xMax="697" yMax="932">
      <contour>
        <pt x="302" y="932" on="1"/>
        <pt x="398" y="932" on="1"/>
        <pt x="496" y="797" on="1"/>
        <pt x="421" y="797" on="1"/>
      </contour>
      <contour>
        <pt x="361" y="733" on="0"/>
        <pt x="413" y="737" on="0"/>
        <pt x="484" y="737" on="0"/>
        <pt x="539" y="732" on="0"/>
        <pt x="594" y="717" on="0"/>
        <pt x="633" y="692" on="0"/>
        <pt x="651" y="672" on="1"/>
        <pt x="682" y="637" on="0"/>
        <pt x="693" y="557" on="1"/>
        <pt x="696" y="531" on="0"/>
        <pt x="696" y="508" on="1"/>
        <pt x="696" y="439" on="0"/>
        <pt x="673" y="289" on="0"/>
        <pt x="644" y="182" on="0"/>
        <pt x="609" y="106" on="0"/>
        <pt x="562" y="53" on="0"/>
        <pt x="514" y="20" on="0"/>
        <pt x="482" y="11" on="1"/>
        <pt x="397" y="-13" on="0"/>
        <pt x="280" y="-1" on="1"/>
        <pt x="208" y="6" on="0"/>
        <pt x="169" y="36" on="1"/>
        <pt x="120" y="75" on="0"/>
        <pt x="106" y="146" on="1"/>
        <pt x="100" y="181" on="0"/>
        <pt x="100" y="234" on="0"/>
        <pt x="101" y="295" on="0"/>
        <pt x="122" y="428" on="0"/>
        <pt x="147" y="530" on="0"/>
        <pt x="179" y="605" on="0"/>
        <pt x="213" y="661" on="0"/>
        <pt x="259" y="698" on="0"/>
        <pt x="301" y="721" on="0"/>
      </contour>
      <contour>
        <pt x="225" y="472" on="0"/>
        <pt x="210" y="403" on="0"/>
        <pt x="192" y="288" on="0"/>
        <pt x="191" y="235" on="0"/>
        <pt x="191" y="188" on="0"/>
        <pt x="207" y="129" on="0"/>
        <pt x="251" y="96" on="0"/>
        <pt x="308" y="85" on="0"/>
        <pt x="397" y="85" on="0"/>
        <pt x="457" y="97" on="0"/>
        <pt x="512" y="132" on="0"/>
        <pt x="531" y="162" on="1"/>
        <pt x="571" y="227" on="0"/>
        <pt x="592" y="361" on="1"/>
        <pt x="605" y="444" on="0"/>
        <pt x="605" y="538" on="0"/>
        <pt x="594" y="581" on="0"/>
        <pt x="582" y="610" on="0"/>
        <pt x="556" y="630" on="0"/>
        <pt x="534" y="641" on="0"/>
        <pt x="515" y="644" on="1"/>
        <pt x="487" y="648" on="0"/>
        <pt x="421" y="648" on="0"/>
        <pt x="394" y="647" on="0"/>
        <pt x="356" y="643" on="0"/>
        <pt x="333" y="635" on="0"/>
        <pt x="302" y="621" on="0"/>
        <pt x="283" y="599" on="0"/>
        <pt x="259" y="568" on="0"/>
        <pt x="243" y="526" on="0"/>
      </contour>
    </TTGlyph>
    <TTGlyph name="Ohungarumlaut" xMin="99" yMin="-2" xMax="719" yMax="932">
      <contour>
        <pt x="351" y="797" on="1"/>
        <pt x="475" y="932" on="1"/>
        <pt x="577" y="932" on="1"/>
        <pt x="426" y="797" on="1"/>
      </contour>
      <contour>
        <pt x="492" y="797" on="1"/>
        <pt x="616" y="932" on="1"/>
        <pt x="718" y="932" on="1"/>
        <pt x="567" y="797" on="1"/>
      </contour>
      <contour>
        <pt x="361" y="733" on="0"/>
        <pt x="413" y="737" on="0"/>
        <pt x="484" y="737" on="0"/>
        <pt x="539" y="732" on="0"/>
        <pt x="594" y="717" on="0"/>
        <pt x="633" y="692" on="0"/>
        <pt x="651" y="672" on="1"/>
        <pt x="682" y="637" on="0"/>
        <pt x="693" y="557" on="1"/>
        <pt x="696" y="531" on="0"/>
        <pt x="696" y="508" on="1"/>
        <pt x="696" y="439" on="0"/>
        <pt x="673" y="289" on="0"/>
        <pt x="644" y="182" on="0"/>
        <pt x="609" y="106" on="0"/>
        <pt x="562" y="53" on="0"/>
        <pt x="514" y="20" on="0"/>
        <pt x="482" y="11" on="1"/>
        <pt x="397" y="-13" on="0"/>
        <pt x="280" y="-1" on="1"/>
        <pt x="208" y="6" on="0"/>
        <pt x="169" y="36" on="1"/>
        <pt x="120" y="75" on="0"/>
        <pt x="106" y="146" on="1"/>
        <pt x="100" y="181" on="0"/>
        <pt x="100" y="234" on="0"/>
        <pt x="101" y="295" on="0"/>
        <pt x="122" y="428" on="0"/>
        <pt x="147" y="530" on="0"/>
        <pt x="179" y="605" on="0"/>
        <pt x="213" y="661" on="0"/>
        <pt x="259" y="698" on="0"/>
        <pt x="301" y="721" on="0"/>
      </contour>
      <contour>
        <pt x="225" y="472" on="0"/>
        <pt x="210" y="403" on="0"/>
        <pt x="192" y="288" on="0"/>
        <pt x="191" y="235" on="0"/>
        <pt x="191" y="188" on="0"/>
        <pt x="207" y="129" on="0"/>
        <pt x="251" y="96" on="0"/>
        <pt x="308" y="85" on="0"/>
        <pt x="397" y="85" on="0"/>
        <pt x="457" y="97" on="0"/>
        <pt x="512" y="132" on="0"/>
        <pt x="531" y="162" on="1"/>
        <pt x="571" y="227" on="0"/>
        <pt x="592" y="361" on="1"/>
        <pt x="605" y="444" on="0"/>
        <pt x="605" y="538" on="0"/>
        <pt x="594" y="581" on="0"/>
        <pt x="582" y="610" on="0"/>
        <pt x="556" y="630" on="0"/>
        <pt x="534" y="641" on="0"/>
        <pt x="515" y="644" on="1"/>
        <pt x="487" y="648" on="0"/>
        <pt x="421" y="648" on="0"/>
        <pt x="394" y="647" on="0"/>
        <pt x="356" y="643" on="0"/>
        <pt x="333" y="635" on="0"/>
        <pt x="302" y="621" on="0"/>
        <pt x="283" y="599" on="0"/>
        <pt x="259" y="568" on="0"/>
        <pt x="243" y="526" on="0"/>
      </contour>
    </TTGlyph>
    <TTGlyph name="Omacron" xMin="99" yMin="-2" xMax="697" yMax="861">
      <contour>
        <pt x="319" y="793" on="1"/>
        <pt x="330" y="860" on="1"/>
        <pt x="622" y="860" on="1"/>
        <pt x="611" y="793" on="1"/>
      </contour>
      <contour>
        <pt x="361" y="733" on="0"/>
        <pt x="413" y="737" on="0"/>
        <pt x="484" y="737" on="0"/>
        <pt x="539" y="732" on="0"/>
        <pt x="594" y="717" on="0"/>
        <pt x="633" y="692" on="0"/>
        <pt x="651" y="672" on="1"/>
        <pt x="682" y="637" on="0"/>
        <pt x="693" y="557" on="1"/>
        <pt x="696" y="531" on="0"/>
        <pt x="696" y="508" on="1"/>
        <pt x="696" y="439" on="0"/>
        <pt x="673" y="289" on="0"/>
        <pt x="644" y="182" on="0"/>
        <pt x="609" y="106" on="0"/>
        <pt x="562" y="53" on="0"/>
        <pt x="514" y="20" on="0"/>
        <pt x="482" y="11" on="1"/>
        <pt x="397" y="-13" on="0"/>
        <pt x="280" y="-1" on="1"/>
        <pt x="208" y="6" on="0"/>
        <pt x="169" y="36" on="1"/>
        <pt x="120" y="75" on="0"/>
        <pt x="106" y="146" on="1"/>
        <pt x="100" y="181" on="0"/>
        <pt x="100" y="234" on="0"/>
        <pt x="101" y="295" on="0"/>
        <pt x="122" y="428" on="0"/>
        <pt x="147" y="530" on="0"/>
        <pt x="179" y="605" on="0"/>
        <pt x="213" y="661" on="0"/>
        <pt x="259" y="698" on="0"/>
        <pt x="301" y="721" on="0"/>
      </contour>
      <contour>
        <pt x="225" y="472" on="0"/>
        <pt x="210" y="403" on="0"/>
        <pt x="192" y="288" on="0"/>
        <pt x="191" y="235" on="0"/>
        <pt x="191" y="188" on="0"/>
        <pt x="207" y="129" on="0"/>
        <pt x="251" y="96" on="0"/>
        <pt x="308" y="85" on="0"/>
        <pt x="397" y="85" on="0"/>
        <pt x="457" y="97" on="0"/>
        <pt x="512" y="132" on="0"/>
        <pt x="531" y="162" on="1"/>
        <pt x="571" y="227" on="0"/>
        <pt x="592" y="361" on="1"/>
        <pt x="605" y="444" on="0"/>
        <pt x="605" y="538" on="0"/>
        <pt x="594" y="581" on="0"/>
        <pt x="582" y="610" on="0"/>
        <pt x="556" y="630" on="0"/>
        <pt x="534" y="641" on="0"/>
        <pt x="515" y="644" on="1"/>
        <pt x="487" y="648" on="0"/>
        <pt x="421" y="648" on="0"/>
        <pt x="394" y="647" on="0"/>
        <pt x="356" y="643" on="0"/>
        <pt x="333" y="635" on="0"/>
        <pt x="302" y="621" on="0"/>
        <pt x="283" y="599" on="0"/>
        <pt x="259" y="568" on="0"/>
        <pt x="243" y="526" on="0"/>
      </contour>
    </TTGlyph>
    <TTGlyph name="Omega" xMin="66" yMin="0" xMax="776" yMax="739">
      <contour>
        <pt x="209" y="92" on="1"/>
        <pt x="113" y="167" on="0"/>
        <pt x="113" y="296" on="1"/>
        <pt x="113" y="390" on="0"/>
        <pt x="148" y="490" on="1"/>
        <pt x="164" y="535" on="0"/>
        <pt x="224" y="629" on="0"/>
        <pt x="304" y="696" on="0"/>
        <pt x="428" y="739" on="0"/>
        <pt x="570" y="739" on="0"/>
        <pt x="674" y="700" on="0"/>
        <pt x="705" y="667" on="1"/>
        <pt x="776" y="589" on="0"/>
        <pt x="776" y="472" on="1"/>
        <pt x="776" y="430" on="0"/>
        <pt x="762" y="333" on="0"/>
        <pt x="744" y="265" on="0"/>
        <pt x="727" y="225" on="1"/>
        <pt x="693" y="148" on="0"/>
        <pt x="606" y="90" on="1"/>
        <pt x="727" y="80" on="1"/>
        <pt x="714" y="0" on="1"/>
        <pt x="480" y="0" on="1"/>
        <pt x="495" y="92" on="1"/>
        <pt x="613" y="164" on="0"/>
        <pt x="646" y="253" on="1"/>
        <pt x="665" y="303" on="0"/>
        <pt x="685" y="426" on="0"/>
        <pt x="685" y="461" on="1"/>
        <pt x="685" y="650" on="0"/>
        <pt x="490" y="650" on="1"/>
        <pt x="426" y="650" on="0"/>
        <pt x="324" y="605" on="0"/>
        <pt x="292" y="566" on="1"/>
        <pt x="230" y="490" on="0"/>
        <pt x="213" y="380" on="1"/>
        <pt x="202" y="319" on="0"/>
        <pt x="202" y="229" on="0"/>
        <pt x="250" y="144" on="0"/>
        <pt x="308" y="92" on="1"/>
        <pt x="293" y="0" on="1"/>
        <pt x="67" y="0" on="1"/>
        <pt x="80" y="82" on="1"/>
      </contour>
    </TTGlyph>
    <TTGlyph name="Oslash" xMin="61" yMin="-4" xMax="721" yMax="737">
      <contour>
        <pt x="132" y="480" on="1"/>
        <pt x="154" y="568" on="0"/>
        <pt x="194" y="634" on="1"/>
        <pt x="222" y="680" on="0"/>
        <pt x="277" y="710" on="1"/>
        <pt x="328" y="737" on="0"/>
        <pt x="573" y="737" on="0"/>
        <pt x="626" y="695" on="1"/>
        <pt x="656" y="732" on="1"/>
        <pt x="721" y="732" on="1"/>
        <pt x="660" y="657" on="1"/>
        <pt x="694" y="603" on="0"/>
        <pt x="694" y="501" on="1"/>
        <pt x="694" y="438" on="0"/>
        <pt x="671" y="288" on="0"/>
        <pt x="641" y="182" on="0"/>
        <pt x="607" y="106" on="0"/>
        <pt x="559" y="52" on="0"/>
        <pt x="512" y="20" on="0"/>
        <pt x="479" y="11" on="1"/>
        <pt x="426" y="-4" on="0"/>
        <pt x="282" y="-4" on="0"/>
        <pt x="191" y="15" on="0"/>
        <pt x="160" y="41" on="1"/>
        <pt x="127" y="0" on="1"/>
        <pt x="62" y="0" on="1"/>
        <pt x="127" y="80" on="1"/>
        <pt x="96" y="133" on="0"/>
        <pt x="96" y="338" on="0"/>
      </contour>
      <contour>
        <pt x="222" y="472" on="0"/>
        <pt x="208" y="403" on="0"/>
        <pt x="189" y="288" on="0"/>
        <pt x="189" y="193" on="0"/>
        <pt x="198" y="166" on="1"/>
        <pt x="565" y="621" on="1"/>
        <pt x="546" y="638" on="0"/>
        <pt x="488" y="648" on="0"/>
        <pt x="418" y="648" on="0"/>
        <pt x="391" y="647" on="0"/>
        <pt x="353" y="643" on="0"/>
        <pt x="330" y="635" on="0"/>
        <pt x="300" y="621" on="0"/>
        <pt x="280" y="599" on="0"/>
        <pt x="257" y="568" on="0"/>
        <pt x="240" y="526" on="0"/>
      </contour>
      <contour>
        <pt x="352" y="85" on="1"/>
        <pt x="405" y="85" on="0"/>
        <pt x="476" y="105" on="0"/>
        <pt x="506" y="135" on="1"/>
        <pt x="562" y="189" on="0"/>
        <pt x="589" y="361" on="1"/>
        <pt x="601" y="441" on="0"/>
        <pt x="601" y="545" on="0"/>
        <pt x="592" y="574" on="1"/>
        <pt x="222" y="117" on="1"/>
        <pt x="255" y="85" on="0"/>
      </contour>
    </TTGlyph>
    <TTGlyph name="Otilde" xMin="99" yMin="-2" xMax="697" yMax="909">
      <contour>
        <pt x="451" y="906" on="0"/>
        <pt x="512" y="874" on="0"/>
        <pt x="525" y="873" on="0"/>
        <pt x="544" y="873" on="0"/>
        <pt x="615" y="901" on="0"/>
        <pt x="625" y="908" on="1"/>
        <pt x="639" y="861" on="1"/>
        <pt x="632" y="856" on="0"/>
        <pt x="599" y="832" on="0"/>
        <pt x="581" y="820" on="0"/>
        <pt x="566" y="812" on="1"/>
        <pt x="512" y="782" on="0"/>
        <pt x="456" y="815" on="1"/>
        <pt x="428" y="832" on="0"/>
        <pt x="411" y="832" on="1"/>
        <pt x="384" y="832" on="0"/>
        <pt x="349" y="817" on="0"/>
        <pt x="317" y="800" on="0"/>
        <pt x="311" y="797" on="1"/>
        <pt x="296" y="842" on="1"/>
        <pt x="348" y="883" on="0"/>
        <pt x="404" y="907" on="0"/>
      </contour>
      <contour>
        <pt x="361" y="733" on="0"/>
        <pt x="413" y="737" on="0"/>
        <pt x="484" y="737" on="0"/>
        <pt x="539" y="732" on="0"/>
        <pt x="594" y="717" on="0"/>
        <pt x="633" y="692" on="0"/>
        <pt x="651" y="672" on="1"/>
        <pt x="682" y="637" on="0"/>
        <pt x="693" y="557" on="1"/>
        <pt x="696" y="531" on="0"/>
        <pt x="696" y="508" on="1"/>
        <pt x="696" y="439" on="0"/>
        <pt x="673" y="289" on="0"/>
        <pt x="644" y="182" on="0"/>
        <pt x="609" y="106" on="0"/>
        <pt x="562" y="53" on="0"/>
        <pt x="514" y="20" on="0"/>
        <pt x="482" y="11" on="1"/>
        <pt x="397" y="-13" on="0"/>
        <pt x="280" y="-1" on="1"/>
        <pt x="208" y="6" on="0"/>
        <pt x="169" y="36" on="1"/>
        <pt x="120" y="75" on="0"/>
        <pt x="106" y="146" on="1"/>
        <pt x="100" y="181" on="0"/>
        <pt x="100" y="234" on="0"/>
        <pt x="101" y="295" on="0"/>
        <pt x="122" y="428" on="0"/>
        <pt x="147" y="530" on="0"/>
        <pt x="179" y="605" on="0"/>
        <pt x="213" y="661" on="0"/>
        <pt x="259" y="698" on="0"/>
        <pt x="301" y="721" on="0"/>
      </contour>
      <contour>
        <pt x="225" y="472" on="0"/>
        <pt x="210" y="403" on="0"/>
        <pt x="192" y="288" on="0"/>
        <pt x="191" y="235" on="0"/>
        <pt x="191" y="188" on="0"/>
        <pt x="207" y="129" on="0"/>
        <pt x="251" y="96" on="0"/>
        <pt x="308" y="85" on="0"/>
        <pt x="397" y="85" on="0"/>
        <pt x="457" y="97" on="0"/>
        <pt x="512" y="132" on="0"/>
        <pt x="531" y="162" on="1"/>
        <pt x="571" y="227" on="0"/>
        <pt x="592" y="361" on="1"/>
        <pt x="605" y="444" on="0"/>
        <pt x="605" y="538" on="0"/>
        <pt x="594" y="581" on="0"/>
        <pt x="582" y="610" on="0"/>
        <pt x="556" y="630" on="0"/>
        <pt x="534" y="641" on="0"/>
        <pt x="515" y="644" on="1"/>
        <pt x="487" y="648" on="0"/>
        <pt x="421" y="648" on="0"/>
        <pt x="394" y="647" on="0"/>
        <pt x="356" y="643" on="0"/>
        <pt x="333" y="635" on="0"/>
        <pt x="302" y="621" on="0"/>
        <pt x="283" y="599" on="0"/>
        <pt x="259" y="568" on="0"/>
        <pt x="243" y="526" on="0"/>
      </contour>
    </TTGlyph>
    <TTGlyph name="P" xMin="70" yMin="0" xMax="645" yMax="732">
      <contour>
        <pt x="492" y="732" on="1"/>
        <pt x="536" y="732" on="0"/>
        <pt x="592" y="703" on="0"/>
        <pt x="607" y="686" on="1"/>
        <pt x="645" y="641" on="0"/>
        <pt x="645" y="568" on="1"/>
        <pt x="645" y="542" on="0"/>
        <pt x="635" y="470" on="0"/>
        <pt x="616" y="404" on="0"/>
        <pt x="593" y="359" on="0"/>
        <pt x="564" y="325" on="0"/>
        <pt x="534" y="307" on="0"/>
        <pt x="501" y="294" on="0"/>
        <pt x="469" y="292" on="0"/>
        <pt x="437" y="289" on="0"/>
        <pt x="394" y="291" on="0"/>
        <pt x="216" y="306" on="0"/>
        <pt x="212" y="308" on="1"/>
        <pt x="162" y="0" on="1"/>
        <pt x="70" y="0" on="1"/>
        <pt x="186" y="732" on="1"/>
      </contour>
      <contour>
        <pt x="548" y="516" on="1"/>
        <pt x="552" y="556" on="0"/>
        <pt x="552" y="589" on="0"/>
        <pt x="539" y="616" on="0"/>
        <pt x="526" y="633" on="0"/>
        <pt x="515" y="637" on="1"/>
        <pt x="497" y="644" on="0"/>
        <pt x="475" y="644" on="1"/>
        <pt x="264" y="644" on="1"/>
        <pt x="222" y="378" on="1"/>
        <pt x="432" y="378" on="1"/>
        <pt x="503" y="378" on="0"/>
        <pt x="530" y="444" on="1"/>
        <pt x="541" y="472" on="0"/>
      </contour>
    </TTGlyph>
    <TTGlyph name="Q" xMin="103" yMin="-154" xMax="700" yMax="737">
      <contour>
        <pt x="452" y="737" on="1"/>
        <pt x="488" y="737" on="0"/>
        <pt x="542" y="731" on="0"/>
        <pt x="597" y="717" on="0"/>
        <pt x="636" y="691" on="0"/>
        <pt x="654" y="672" on="1"/>
        <pt x="685" y="636" on="0"/>
        <pt x="696" y="556" on="1"/>
        <pt x="700" y="531" on="0"/>
        <pt x="700" y="507" on="1"/>
        <pt x="700" y="439" on="0"/>
        <pt x="677" y="288" on="0"/>
        <pt x="647" y="182" on="0"/>
        <pt x="613" y="106" on="0"/>
        <pt x="565" y="52" on="0"/>
        <pt x="518" y="20" on="0"/>
        <pt x="485" y="11" on="1"/>
        <pt x="409" y="-10" on="0"/>
        <pt x="298" y="-2" on="1"/>
        <pt x="241" y="2" on="0"/>
        <pt x="186" y="26" on="0"/>
        <pt x="150" y="55" on="0"/>
        <pt x="138" y="74" on="1"/>
        <pt x="103" y="131" on="0"/>
        <pt x="103" y="226" on="1"/>
        <pt x="103" y="339" on="0"/>
        <pt x="138" y="480" on="1"/>
        <pt x="160" y="568" on="0"/>
        <pt x="200" y="634" on="1"/>
        <pt x="228" y="680" on="0"/>
        <pt x="283" y="710" on="1"/>
        <pt x="334" y="737" on="0"/>
      </contour>
      <contour>
        <pt x="221" y="437" on="1"/>
        <pt x="194" y="308" on="0"/>
        <pt x="194" y="223" on="1"/>
        <pt x="194" y="129" on="0"/>
        <pt x="247" y="103" on="1"/>
        <pt x="284" y="85" on="0"/>
        <pt x="411" y="85" on="0"/>
        <pt x="482" y="105" on="0"/>
        <pt x="512" y="135" on="1"/>
        <pt x="568" y="189" on="0"/>
        <pt x="595" y="361" on="1"/>
        <pt x="608" y="444" on="0"/>
        <pt x="608" y="538" on="0"/>
        <pt x="597" y="581" on="0"/>
        <pt x="585" y="610" on="0"/>
        <pt x="559" y="630" on="0"/>
        <pt x="538" y="641" on="0"/>
        <pt x="518" y="644" on="1"/>
        <pt x="491" y="648" on="0"/>
        <pt x="424" y="648" on="0"/>
        <pt x="397" y="647" on="0"/>
        <pt x="359" y="643" on="0"/>
        <pt x="336" y="635" on="0"/>
        <pt x="306" y="621" on="0"/>
        <pt x="286" y="599" on="0"/>
        <pt x="263" y="568" on="0"/>
        <pt x="254" y="547" on="1"/>
        <pt x="232" y="490" on="0"/>
      </contour>
      <contour>
        <pt x="364" y="-33" on="1"/>
        <pt x="400" y="-70" on="0"/>
        <pt x="454" y="-70" on="1"/>
        <pt x="483" y="-70" on="0"/>
        <pt x="527" y="-55" on="1"/>
        <pt x="513" y="-144" on="1"/>
        <pt x="488" y="-153" on="0"/>
        <pt x="452" y="-153" on="0"/>
        <pt x="408" y="-150" on="0"/>
        <pt x="345" y="-127" on="0"/>
        <pt x="303" y="-71" on="0"/>
        <pt x="305" y="-33" on="1"/>
      </contour>
    </TTGlyph>
    <TTGlyph name="R" xMin="70" yMin="0" xMax="643" yMax="732">
      <contour>
        <pt x="498" y="732" on="1"/>
        <pt x="573" y="732" on="0"/>
        <pt x="613" y="679" on="1"/>
        <pt x="643" y="638" on="0"/>
        <pt x="643" y="561" on="1"/>
        <pt x="643" y="453" on="0"/>
        <pt x="605" y="383" on="1"/>
        <pt x="569" y="314" on="0"/>
        <pt x="501" y="301" on="1"/>
        <pt x="493" y="300" on="0"/>
        <pt x="483" y="298" on="1"/>
        <pt x="588" y="0" on="1"/>
        <pt x="486" y="0" on="1"/>
        <pt x="391" y="290" on="1"/>
        <pt x="210" y="303" on="1"/>
        <pt x="162" y="0" on="1"/>
        <pt x="70" y="0" on="1"/>
        <pt x="186" y="732" on="1"/>
      </contour>
      <contour>
        <pt x="533" y="448" on="1"/>
        <pt x="543" y="474" on="0"/>
        <pt x="549" y="533" on="0"/>
        <pt x="549" y="580" on="0"/>
        <pt x="537" y="627" on="0"/>
        <pt x="508" y="644" on="0"/>
        <pt x="480" y="644" on="1"/>
        <pt x="265" y="644" on="1"/>
        <pt x="223" y="379" on="1"/>
        <pt x="434" y="379" on="1"/>
        <pt x="506" y="379" on="0"/>
      </contour>
    </TTGlyph>
    <TTGlyph name="Racute" xMin="68" yMin="0" xMax="642" yMax="931">
      <contour>
        <pt x="378" y="796" on="1"/>
        <pt x="502" y="931" on="1"/>
        <pt x="605" y="931" on="1"/>
        <pt x="453" y="796" on="1"/>
      </contour>
      <contour>
        <pt x="496" y="732" on="1"/>
        <pt x="571" y="732" on="0"/>
        <pt x="611" y="679" on="1"/>
        <pt x="641" y="638" on="0"/>
        <pt x="641" y="561" on="1"/>
        <pt x="641" y="453" on="0"/>
        <pt x="603" y="383" on="1"/>
        <pt x="567" y="314" on="0"/>
        <pt x="499" y="301" on="1"/>
        <pt x="492" y="300" on="0"/>
        <pt x="481" y="298" on="1"/>
        <pt x="587" y="0" on="1"/>
        <pt x="485" y="0" on="1"/>
        <pt x="389" y="290" on="1"/>
        <pt x="209" y="303" on="1"/>
        <pt x="161" y="0" on="1"/>
        <pt x="69" y="0" on="1"/>
        <pt x="185" y="732" on="1"/>
      </contour>
      <contour>
        <pt x="432" y="379" on="1"/>
        <pt x="477" y="379" on="0"/>
        <pt x="508" y="410" on="1"/>
        <pt x="547" y="448" on="0"/>
        <pt x="547" y="552" on="1"/>
        <pt x="547" y="621" on="0"/>
        <pt x="521" y="635" on="1"/>
        <pt x="506" y="644" on="0"/>
        <pt x="478" y="644" on="1"/>
        <pt x="263" y="644" on="1"/>
        <pt x="222" y="379" on="1"/>
      </contour>
    </TTGlyph>
    <TTGlyph name="Rcaron" xMin="70" yMin="0" xMax="643" yMax="929">
      <contour>
        <pt x="296" y="928" on="1"/>
        <pt x="367" y="928" on="1"/>
        <pt x="421" y="850" on="1"/>
        <pt x="506" y="928" on="1"/>
        <pt x="592" y="928" on="1"/>
        <pt x="456" y="797" on="1"/>
        <pt x="377" y="797" on="1"/>
      </contour>
      <contour>
        <pt x="498" y="732" on="1"/>
        <pt x="573" y="732" on="0"/>
        <pt x="613" y="679" on="1"/>
        <pt x="643" y="638" on="0"/>
        <pt x="643" y="561" on="1"/>
        <pt x="643" y="453" on="0"/>
        <pt x="605" y="383" on="1"/>
        <pt x="569" y="314" on="0"/>
        <pt x="501" y="301" on="1"/>
        <pt x="493" y="300" on="0"/>
        <pt x="483" y="298" on="1"/>
        <pt x="588" y="0" on="1"/>
        <pt x="486" y="0" on="1"/>
        <pt x="391" y="290" on="1"/>
        <pt x="210" y="303" on="1"/>
        <pt x="162" y="0" on="1"/>
        <pt x="70" y="0" on="1"/>
        <pt x="186" y="732" on="1"/>
      </contour>
      <contour>
        <pt x="434" y="379" on="1"/>
        <pt x="549" y="379" on="0"/>
        <pt x="549" y="552" on="1"/>
        <pt x="549" y="621" on="0"/>
        <pt x="523" y="635" on="1"/>
        <pt x="508" y="644" on="0"/>
        <pt x="480" y="644" on="1"/>
        <pt x="265" y="644" on="1"/>
        <pt x="223" y="379" on="1"/>
      </contour>
    </TTGlyph>
    <TTGlyph name="Rcommaaccent" xMin="70" yMin="-253" xMax="643" yMax="732">
      <contour>
        <pt x="279" y="-171" on="1"/>
        <pt x="269" y="-171" on="0"/>
        <pt x="258" y="-159" on="0"/>
        <pt x="260" y="-148" on="1"/>
        <pt x="269" y="-92" on="1"/>
        <pt x="273" y="-68" on="0"/>
        <pt x="296" y="-68" on="1"/>
        <pt x="350" y="-68" on="1"/>
        <pt x="367" y="-68" on="0"/>
        <pt x="367" y="-86" on="1"/>
        <pt x="367" y="-88" on="0"/>
        <pt x="367" y="-92" on="1"/>
        <pt x="353" y="-181" on="1"/>
        <pt x="349" y="-206" on="0"/>
        <pt x="337" y="-222" on="1"/>
        <pt x="314" y="-252" on="0"/>
        <pt x="267" y="-252" on="1"/>
        <pt x="262" y="-252" on="0"/>
        <pt x="249" y="-250" on="1"/>
        <pt x="254" y="-217" on="1"/>
        <pt x="266" y="-218" on="0"/>
        <pt x="274" y="-213" on="1"/>
        <pt x="283" y="-206" on="0"/>
        <pt x="286" y="-191" on="1"/>
        <pt x="289" y="-171" on="1"/>
      </contour>
      <contour>
        <pt x="498" y="732" on="1"/>
        <pt x="573" y="732" on="0"/>
        <pt x="613" y="679" on="1"/>
        <pt x="643" y="638" on="0"/>
        <pt x="643" y="561" on="1"/>
        <pt x="643" y="453" on="0"/>
        <pt x="605" y="383" on="1"/>
        <pt x="569" y="314" on="0"/>
        <pt x="501" y="301" on="1"/>
        <pt x="493" y="300" on="0"/>
        <pt x="483" y="298" on="1"/>
        <pt x="588" y="0" on="1"/>
        <pt x="486" y="0" on="1"/>
        <pt x="391" y="290" on="1"/>
        <pt x="210" y="303" on="1"/>
        <pt x="162" y="0" on="1"/>
        <pt x="70" y="0" on="1"/>
        <pt x="186" y="732" on="1"/>
      </contour>
      <contour>
        <pt x="434" y="379" on="1"/>
        <pt x="549" y="379" on="0"/>
        <pt x="549" y="552" on="1"/>
        <pt x="549" y="621" on="0"/>
        <pt x="523" y="635" on="1"/>
        <pt x="508" y="644" on="0"/>
        <pt x="480" y="644" on="1"/>
        <pt x="265" y="644" on="1"/>
        <pt x="223" y="379" on="1"/>
      </contour>
    </TTGlyph>
    <TTGlyph name="S" xMin="76" yMin="-8" xMax="619" yMax="739">
      <contour>
        <pt x="607" y="640" on="1"/>
        <pt x="362" y="649" on="1"/>
        <pt x="353" y="649" on="0"/>
        <pt x="346" y="649" on="1"/>
        <pt x="297" y="649" on="0"/>
        <pt x="240" y="615" on="0"/>
        <pt x="231" y="554" on="1"/>
        <pt x="222" y="496" on="1"/>
        <pt x="216" y="460" on="0"/>
        <pt x="223" y="434" on="0"/>
        <pt x="229" y="421" on="0"/>
        <pt x="242" y="413" on="0"/>
        <pt x="252" y="408" on="0"/>
        <pt x="262" y="407" on="1"/>
        <pt x="277" y="406" on="0"/>
        <pt x="302" y="406" on="0"/>
        <pt x="304" y="406" on="1"/>
        <pt x="434" y="406" on="1"/>
        <pt x="479" y="406" on="0"/>
        <pt x="541" y="373" on="0"/>
        <pt x="553" y="347" on="1"/>
        <pt x="572" y="308" on="0"/>
        <pt x="572" y="246" on="0"/>
        <pt x="568" y="228" on="1"/>
        <pt x="559" y="160" on="1"/>
        <pt x="537" y="3" on="0"/>
        <pt x="365" y="-7" on="1"/>
        <pt x="348" y="-8" on="0"/>
        <pt x="266" y="-8" on="0"/>
        <pt x="112" y="9" on="0"/>
        <pt x="77" y="18" on="1"/>
        <pt x="88" y="91" on="1"/>
        <pt x="164" y="81" on="0"/>
        <pt x="335" y="81" on="1"/>
        <pt x="454" y="81" on="0"/>
        <pt x="466" y="164" on="1"/>
        <pt x="476" y="224" on="1"/>
        <pt x="480" y="241" on="0"/>
        <pt x="480" y="275" on="0"/>
        <pt x="474" y="288" on="1"/>
        <pt x="462" y="314" on="0"/>
        <pt x="411" y="314" on="1"/>
        <pt x="283" y="314" on="1"/>
        <pt x="125" y="314" on="0"/>
        <pt x="125" y="448" on="1"/>
        <pt x="125" y="469" on="0"/>
        <pt x="129" y="492" on="1"/>
        <pt x="139" y="561" on="1"/>
        <pt x="156" y="673" on="0"/>
        <pt x="221" y="709" on="1"/>
        <pt x="274" y="738" on="0"/>
        <pt x="351" y="738" on="1"/>
        <pt x="405" y="738" on="0"/>
        <pt x="575" y="721" on="0"/>
        <pt x="618" y="713" on="1"/>
      </contour>
    </TTGlyph>
    <TTGlyph name="Sacute" xMin="66" yMin="0" xMax="608" yMax="933">
      <contour>
        <pt x="368" y="798" on="1"/>
        <pt x="492" y="933" on="1"/>
        <pt x="594" y="933" on="1"/>
        <pt x="443" y="798" on="1"/>
      </contour>
      <contour>
        <pt x="597" y="640" on="1"/>
        <pt x="352" y="649" on="1"/>
        <pt x="343" y="649" on="0"/>
        <pt x="336" y="649" on="1"/>
        <pt x="287" y="649" on="0"/>
        <pt x="230" y="615" on="0"/>
        <pt x="220" y="554" on="1"/>
        <pt x="212" y="496" on="1"/>
        <pt x="206" y="460" on="0"/>
        <pt x="213" y="434" on="0"/>
        <pt x="218" y="421" on="0"/>
        <pt x="232" y="413" on="0"/>
        <pt x="242" y="408" on="0"/>
        <pt x="252" y="407" on="1"/>
        <pt x="266" y="406" on="0"/>
        <pt x="292" y="406" on="0"/>
        <pt x="294" y="406" on="1"/>
        <pt x="424" y="406" on="1"/>
        <pt x="469" y="406" on="0"/>
        <pt x="531" y="373" on="0"/>
        <pt x="543" y="347" on="1"/>
        <pt x="562" y="308" on="0"/>
        <pt x="562" y="246" on="0"/>
        <pt x="558" y="228" on="1"/>
        <pt x="548" y="160" on="1"/>
        <pt x="542" y="115" on="0"/>
        <pt x="505" y="50" on="0"/>
        <pt x="460" y="16" on="0"/>
        <pt x="428" y="6" on="1"/>
        <pt x="348" y="-18" on="0"/>
        <pt x="179" y="0" on="1"/>
        <pt x="102" y="9" on="0"/>
        <pt x="67" y="18" on="1"/>
        <pt x="78" y="91" on="1"/>
        <pt x="153" y="81" on="0"/>
        <pt x="325" y="81" on="1"/>
        <pt x="444" y="81" on="0"/>
        <pt x="456" y="164" on="1"/>
        <pt x="466" y="224" on="1"/>
        <pt x="469" y="242" on="0"/>
        <pt x="469" y="278" on="0"/>
        <pt x="462" y="292" on="1"/>
        <pt x="450" y="314" on="0"/>
        <pt x="401" y="314" on="1"/>
        <pt x="273" y="314" on="1"/>
        <pt x="115" y="314" on="0"/>
        <pt x="115" y="448" on="1"/>
        <pt x="115" y="469" on="0"/>
        <pt x="118" y="492" on="1"/>
        <pt x="129" y="561" on="1"/>
        <pt x="146" y="673" on="0"/>
        <pt x="211" y="709" on="1"/>
        <pt x="264" y="738" on="0"/>
        <pt x="341" y="738" on="1"/>
        <pt x="395" y="738" on="0"/>
        <pt x="565" y="721" on="0"/>
        <pt x="608" y="713" on="1"/>
      </contour>
    </TTGlyph>
    <TTGlyph name="Scaron" xMin="76" yMin="0" xMax="619" yMax="930">
      <contour>
        <pt x="295" y="930" on="1"/>
        <pt x="367" y="930" on="1"/>
        <pt x="420" y="852" on="1"/>
        <pt x="505" y="930" on="1"/>
        <pt x="591" y="930" on="1"/>
        <pt x="456" y="798" on="1"/>
        <pt x="376" y="798" on="1"/>
      </contour>
      <contour>
        <pt x="607" y="640" on="1"/>
        <pt x="362" y="649" on="1"/>
        <pt x="353" y="649" on="0"/>
        <pt x="346" y="649" on="1"/>
        <pt x="297" y="649" on="0"/>
        <pt x="240" y="615" on="0"/>
        <pt x="231" y="554" on="1"/>
        <pt x="222" y="496" on="1"/>
        <pt x="216" y="460" on="0"/>
        <pt x="223" y="434" on="0"/>
        <pt x="229" y="421" on="0"/>
        <pt x="242" y="413" on="0"/>
        <pt x="252" y="408" on="0"/>
        <pt x="262" y="407" on="1"/>
        <pt x="277" y="406" on="0"/>
        <pt x="302" y="406" on="0"/>
        <pt x="304" y="406" on="1"/>
        <pt x="434" y="406" on="1"/>
        <pt x="479" y="406" on="0"/>
        <pt x="541" y="373" on="0"/>
        <pt x="553" y="347" on="1"/>
        <pt x="572" y="308" on="0"/>
        <pt x="572" y="246" on="0"/>
        <pt x="568" y="228" on="1"/>
        <pt x="559" y="160" on="1"/>
        <pt x="552" y="115" on="0"/>
        <pt x="515" y="50" on="0"/>
        <pt x="470" y="16" on="0"/>
        <pt x="438" y="6" on="1"/>
        <pt x="358" y="-18" on="0"/>
        <pt x="189" y="0" on="1"/>
        <pt x="112" y="9" on="0"/>
        <pt x="77" y="18" on="1"/>
        <pt x="88" y="91" on="1"/>
        <pt x="164" y="81" on="0"/>
        <pt x="335" y="81" on="1"/>
        <pt x="454" y="81" on="0"/>
        <pt x="466" y="164" on="1"/>
        <pt x="476" y="224" on="1"/>
        <pt x="479" y="242" on="0"/>
        <pt x="479" y="278" on="0"/>
        <pt x="472" y="292" on="1"/>
        <pt x="460" y="314" on="0"/>
        <pt x="411" y="314" on="1"/>
        <pt x="283" y="314" on="1"/>
        <pt x="125" y="314" on="0"/>
        <pt x="125" y="448" on="1"/>
        <pt x="125" y="469" on="0"/>
        <pt x="129" y="492" on="1"/>
        <pt x="139" y="561" on="1"/>
        <pt x="156" y="673" on="0"/>
        <pt x="221" y="709" on="1"/>
        <pt x="274" y="738" on="0"/>
        <pt x="351" y="738" on="1"/>
        <pt x="405" y="738" on="0"/>
        <pt x="575" y="721" on="0"/>
        <pt x="618" y="713" on="1"/>
      </contour>
    </TTGlyph>
    <TTGlyph name="Scedilla" xMin="76" yMin="-183" xMax="619" yMax="739">
      <contour>
        <pt x="226" y="-182" on="1"/>
        <pt x="174" y="-182" on="1"/>
        <pt x="181" y="-139" on="1"/>
        <pt x="233" y="-124" on="1"/>
        <pt x="260" y="-113" on="0"/>
        <pt x="270" y="-80" on="1"/>
        <pt x="274" y="-67" on="0"/>
        <pt x="278" y="-45" on="1"/>
        <pt x="352" y="-45" on="1"/>
        <pt x="340" y="-123" on="0"/>
        <pt x="287" y="-182" on="0"/>
      </contour>
      <contour>
        <pt x="607" y="640" on="1"/>
        <pt x="362" y="649" on="1"/>
        <pt x="353" y="649" on="0"/>
        <pt x="346" y="649" on="1"/>
        <pt x="297" y="649" on="0"/>
        <pt x="240" y="615" on="0"/>
        <pt x="231" y="554" on="1"/>
        <pt x="222" y="496" on="1"/>
        <pt x="216" y="460" on="0"/>
        <pt x="223" y="434" on="0"/>
        <pt x="229" y="421" on="0"/>
        <pt x="242" y="413" on="0"/>
        <pt x="252" y="408" on="0"/>
        <pt x="262" y="407" on="1"/>
        <pt x="277" y="406" on="0"/>
        <pt x="302" y="406" on="0"/>
        <pt x="304" y="406" on="1"/>
        <pt x="434" y="406" on="1"/>
        <pt x="479" y="406" on="0"/>
        <pt x="541" y="373" on="0"/>
        <pt x="553" y="347" on="1"/>
        <pt x="572" y="308" on="0"/>
        <pt x="572" y="246" on="0"/>
        <pt x="568" y="228" on="1"/>
        <pt x="559" y="160" on="1"/>
        <pt x="552" y="115" on="0"/>
        <pt x="515" y="50" on="0"/>
        <pt x="470" y="16" on="0"/>
        <pt x="438" y="6" on="1"/>
        <pt x="358" y="-18" on="0"/>
        <pt x="189" y="0" on="1"/>
        <pt x="112" y="9" on="0"/>
        <pt x="77" y="18" on="1"/>
        <pt x="88" y="91" on="1"/>
        <pt x="164" y="81" on="0"/>
        <pt x="335" y="81" on="1"/>
        <pt x="454" y="81" on="0"/>
        <pt x="466" y="164" on="1"/>
        <pt x="476" y="224" on="1"/>
        <pt x="479" y="242" on="0"/>
        <pt x="479" y="278" on="0"/>
        <pt x="472" y="292" on="1"/>
        <pt x="460" y="314" on="0"/>
        <pt x="411" y="314" on="1"/>
        <pt x="283" y="314" on="1"/>
        <pt x="125" y="314" on="0"/>
        <pt x="125" y="448" on="1"/>
        <pt x="125" y="469" on="0"/>
        <pt x="129" y="492" on="1"/>
        <pt x="139" y="561" on="1"/>
        <pt x="156" y="673" on="0"/>
        <pt x="221" y="709" on="1"/>
        <pt x="274" y="738" on="0"/>
        <pt x="351" y="738" on="1"/>
        <pt x="405" y="738" on="0"/>
        <pt x="575" y="721" on="0"/>
        <pt x="618" y="713" on="1"/>
      </contour>
    </TTGlyph>
    <TTGlyph name="Scircumflex" xMin="76" yMin="0" xMax="619" yMax="930">
      <contour>
        <pt x="261" y="798" on="1"/>
        <pt x="397" y="930" on="1"/>
        <pt x="477" y="930" on="1"/>
        <pt x="558" y="798" on="1"/>
        <pt x="486" y="798" on="1"/>
        <pt x="433" y="877" on="1"/>
        <pt x="347" y="798" on="1"/>
      </contour>
      <contour>
        <pt x="607" y="640" on="1"/>
        <pt x="362" y="649" on="1"/>
        <pt x="353" y="649" on="0"/>
        <pt x="346" y="649" on="1"/>
        <pt x="297" y="649" on="0"/>
        <pt x="240" y="615" on="0"/>
        <pt x="231" y="554" on="1"/>
        <pt x="222" y="496" on="1"/>
        <pt x="216" y="460" on="0"/>
        <pt x="223" y="434" on="0"/>
        <pt x="229" y="421" on="0"/>
        <pt x="242" y="413" on="0"/>
        <pt x="252" y="408" on="0"/>
        <pt x="262" y="407" on="1"/>
        <pt x="277" y="406" on="0"/>
        <pt x="302" y="406" on="0"/>
        <pt x="304" y="406" on="1"/>
        <pt x="434" y="406" on="1"/>
        <pt x="479" y="406" on="0"/>
        <pt x="541" y="373" on="0"/>
        <pt x="553" y="347" on="1"/>
        <pt x="572" y="308" on="0"/>
        <pt x="572" y="246" on="0"/>
        <pt x="568" y="228" on="1"/>
        <pt x="559" y="160" on="1"/>
        <pt x="552" y="115" on="0"/>
        <pt x="515" y="50" on="0"/>
        <pt x="470" y="16" on="0"/>
        <pt x="438" y="6" on="1"/>
        <pt x="358" y="-18" on="0"/>
        <pt x="189" y="0" on="1"/>
        <pt x="112" y="9" on="0"/>
        <pt x="77" y="18" on="1"/>
        <pt x="88" y="91" on="1"/>
        <pt x="164" y="81" on="0"/>
        <pt x="335" y="81" on="1"/>
        <pt x="454" y="81" on="0"/>
        <pt x="466" y="164" on="1"/>
        <pt x="476" y="224" on="1"/>
        <pt x="479" y="242" on="0"/>
        <pt x="479" y="278" on="0"/>
        <pt x="472" y="292" on="1"/>
        <pt x="460" y="314" on="0"/>
        <pt x="411" y="314" on="1"/>
        <pt x="283" y="314" on="1"/>
        <pt x="125" y="314" on="0"/>
        <pt x="125" y="448" on="1"/>
        <pt x="125" y="469" on="0"/>
        <pt x="129" y="492" on="1"/>
        <pt x="139" y="561" on="1"/>
        <pt x="156" y="673" on="0"/>
        <pt x="221" y="709" on="1"/>
        <pt x="274" y="738" on="0"/>
        <pt x="351" y="738" on="1"/>
        <pt x="405" y="738" on="0"/>
        <pt x="575" y="721" on="0"/>
        <pt x="618" y="713" on="1"/>
      </contour>
    </TTGlyph>
    <TTGlyph name="T" xMin="134" yMin="0" xMax="666" yMax="732">
      <contour>
        <pt x="134" y="643" on="1"/>
        <pt x="149" y="732" on="1"/>
        <pt x="666" y="732" on="1"/>
        <pt x="651" y="643" on="1"/>
        <pt x="436" y="643" on="1"/>
        <pt x="334" y="0" on="1"/>
        <pt x="242" y="0" on="1"/>
        <pt x="344" y="643" on="1"/>
      </contour>
    </TTGlyph>
    <TTGlyph name="Tbar" xMin="134" yMin="0" xMax="666" yMax="732">
      <contour>
        <pt x="134" y="643" on="1"/>
        <pt x="149" y="732" on="1"/>
        <pt x="666" y="732" on="1"/>
        <pt x="651" y="643" on="1"/>
        <pt x="436" y="643" on="1"/>
        <pt x="404" y="441" on="1"/>
        <pt x="518" y="441" on="1"/>
        <pt x="509" y="384" on="1"/>
        <pt x="395" y="384" on="1"/>
        <pt x="334" y="0" on="1"/>
        <pt x="242" y="0" on="1"/>
        <pt x="303" y="384" on="1"/>
        <pt x="189" y="384" on="1"/>
        <pt x="198" y="441" on="1"/>
        <pt x="312" y="441" on="1"/>
        <pt x="344" y="643" on="1"/>
      </contour>
    </TTGlyph>
    <TTGlyph name="Tcaron" xMin="134" yMin="0" xMax="666" yMax="929">
      <contour>
        <pt x="290" y="928" on="1"/>
        <pt x="362" y="928" on="1"/>
        <pt x="416" y="850" on="1"/>
        <pt x="500" y="928" on="1"/>
        <pt x="587" y="928" on="1"/>
        <pt x="451" y="797" on="1"/>
        <pt x="372" y="797" on="1"/>
      </contour>
      <contour>
        <pt x="134" y="643" on="1"/>
        <pt x="149" y="732" on="1"/>
        <pt x="666" y="732" on="1"/>
        <pt x="651" y="643" on="1"/>
        <pt x="436" y="643" on="1"/>
        <pt x="334" y="0" on="1"/>
        <pt x="242" y="0" on="1"/>
        <pt x="344" y="643" on="1"/>
      </contour>
    </TTGlyph>
    <TTGlyph name="Tcommaaccent" xMin="113" yMin="-185" xMax="646" yMax="732">
      <contour>
        <pt x="173" y="-184" on="1"/>
        <pt x="120" y="-184" on="1"/>
        <pt x="127" y="-141" on="1"/>
        <pt x="180" y="-126" on="1"/>
        <pt x="200" y="-118" on="0"/>
        <pt x="219" y="-80" on="0"/>
        <pt x="224" y="-47" on="1"/>
        <pt x="299" y="-47" on="1"/>
        <pt x="287" y="-125" on="0"/>
        <pt x="233" y="-184" on="0"/>
      </contour>
      <contour>
        <pt x="114" y="643" on="1"/>
        <pt x="128" y="732" on="1"/>
        <pt x="645" y="732" on="1"/>
        <pt x="631" y="643" on="1"/>
        <pt x="415" y="643" on="1"/>
        <pt x="314" y="0" on="1"/>
        <pt x="222" y="0" on="1"/>
        <pt x="323" y="643" on="1"/>
      </contour>
    </TTGlyph>
    <TTGlyph name="Thorn" xMin="56" yMin="0" xMax="570" yMax="729">
      <contour>
        <pt x="56" y="0" on="1"/>
        <pt x="56" y="0" on="0"/>
        <pt x="171" y="729" on="1"/>
        <pt x="263" y="729" on="1"/>
        <pt x="241" y="588" on="1"/>
        <pt x="425" y="588" on="1"/>
        <pt x="461" y="588" on="0"/>
        <pt x="514" y="563" on="0"/>
        <pt x="528" y="548" on="1"/>
        <pt x="569" y="503" on="0"/>
        <pt x="569" y="426" on="1"/>
        <pt x="569" y="402" on="0"/>
        <pt x="561" y="329" on="0"/>
        <pt x="541" y="261" on="0"/>
        <pt x="517" y="215" on="0"/>
        <pt x="483" y="183" on="0"/>
        <pt x="454" y="165" on="0"/>
        <pt x="433" y="161" on="1"/>
        <pt x="401" y="153" on="0"/>
        <pt x="349" y="153" on="1"/>
        <pt x="232" y="153" on="0"/>
        <pt x="176" y="173" on="1"/>
        <pt x="148" y="0" on="1"/>
      </contour>
      <contour>
        <pt x="358" y="241" on="1"/>
        <pt x="382" y="241" on="0"/>
        <pt x="414" y="249" on="0"/>
        <pt x="430" y="263" on="1"/>
        <pt x="459" y="288" on="0"/>
        <pt x="473" y="376" on="1"/>
        <pt x="477" y="394" on="0"/>
        <pt x="477" y="415" on="0"/>
        <pt x="473" y="440" on="0"/>
        <pt x="469" y="466" on="0"/>
        <pt x="453" y="484" on="0"/>
        <pt x="440" y="494" on="0"/>
        <pt x="430" y="496" on="1"/>
        <pt x="415" y="500" on="0"/>
        <pt x="398" y="500" on="1"/>
        <pt x="227" y="500" on="1"/>
        <pt x="186" y="241" on="1"/>
      </contour>
    </TTGlyph>
    <TTGlyph name="U" xMin="113" yMin="-5" xMax="716" yMax="732">
      <contour>
        <pt x="215" y="305" on="1"/>
        <pt x="207" y="246" on="0"/>
        <pt x="207" y="201" on="0"/>
        <pt x="207" y="196" on="1"/>
        <pt x="209" y="116" on="0"/>
        <pt x="273" y="94" on="1"/>
        <pt x="301" y="84" on="0"/>
        <pt x="346" y="84" on="1"/>
        <pt x="440" y="84" on="0"/>
        <pt x="536" y="183" on="0"/>
        <pt x="555" y="305" on="1"/>
        <pt x="622" y="732" on="1"/>
        <pt x="715" y="732" on="1"/>
        <pt x="649" y="300" on="1"/>
        <pt x="620" y="120" on="0"/>
        <pt x="536" y="53" on="1"/>
        <pt x="464" y="-5" on="0"/>
        <pt x="337" y="-5" on="1"/>
        <pt x="179" y="-5" on="0"/>
        <pt x="136" y="96" on="1"/>
        <pt x="113" y="148" on="0"/>
        <pt x="113" y="259" on="0"/>
        <pt x="122" y="309" on="1"/>
        <pt x="189" y="732" on="1"/>
        <pt x="282" y="732" on="1"/>
      </contour>
    </TTGlyph>
    <TTGlyph name="Uacute" xMin="113" yMin="-5" xMax="716" yMax="932">
      <contour>
        <pt x="425" y="797" on="1"/>
        <pt x="549" y="932" on="1"/>
        <pt x="652" y="932" on="1"/>
        <pt x="500" y="797" on="1"/>
      </contour>
      <contour>
        <pt x="215" y="305" on="1"/>
        <pt x="207" y="246" on="0"/>
        <pt x="207" y="201" on="0"/>
        <pt x="207" y="196" on="1"/>
        <pt x="209" y="116" on="0"/>
        <pt x="273" y="94" on="1"/>
        <pt x="301" y="84" on="0"/>
        <pt x="346" y="84" on="1"/>
        <pt x="440" y="84" on="0"/>
        <pt x="536" y="183" on="0"/>
        <pt x="555" y="305" on="1"/>
        <pt x="622" y="732" on="1"/>
        <pt x="715" y="732" on="1"/>
        <pt x="649" y="300" on="1"/>
        <pt x="620" y="120" on="0"/>
        <pt x="536" y="53" on="1"/>
        <pt x="464" y="-5" on="0"/>
        <pt x="337" y="-5" on="1"/>
        <pt x="179" y="-5" on="0"/>
        <pt x="136" y="96" on="1"/>
        <pt x="113" y="148" on="0"/>
        <pt x="113" y="259" on="0"/>
        <pt x="122" y="309" on="1"/>
        <pt x="189" y="732" on="1"/>
        <pt x="282" y="732" on="1"/>
      </contour>
    </TTGlyph>
    <TTGlyph name="Ubreve" xMin="113" yMin="-5" xMax="716" yMax="911">
      <contour>
        <pt x="416" y="911" on="1"/>
        <pt x="416" y="905" on="0"/>
        <pt x="416" y="877" on="0"/>
        <pt x="444" y="846" on="0"/>
        <pt x="469" y="846" on="1"/>
        <pt x="471" y="846" on="0"/>
        <pt x="472" y="846" on="1"/>
        <pt x="536" y="846" on="0"/>
        <pt x="546" y="911" on="1"/>
        <pt x="595" y="911" on="1"/>
        <pt x="580" y="797" on="0"/>
        <pt x="469" y="797" on="1"/>
        <pt x="425" y="797" on="0"/>
        <pt x="367" y="855" on="0"/>
        <pt x="367" y="898" on="1"/>
        <pt x="367" y="904" on="0"/>
        <pt x="367" y="911" on="1"/>
      </contour>
      <contour>
        <pt x="215" y="305" on="1"/>
        <pt x="207" y="246" on="0"/>
        <pt x="207" y="201" on="0"/>
        <pt x="207" y="196" on="1"/>
        <pt x="209" y="116" on="0"/>
        <pt x="273" y="94" on="1"/>
        <pt x="301" y="84" on="0"/>
        <pt x="346" y="84" on="1"/>
        <pt x="440" y="84" on="0"/>
        <pt x="536" y="183" on="0"/>
        <pt x="555" y="305" on="1"/>
        <pt x="622" y="732" on="1"/>
        <pt x="715" y="732" on="1"/>
        <pt x="649" y="300" on="1"/>
        <pt x="620" y="120" on="0"/>
        <pt x="536" y="53" on="1"/>
        <pt x="464" y="-5" on="0"/>
        <pt x="337" y="-5" on="1"/>
        <pt x="179" y="-5" on="0"/>
        <pt x="136" y="96" on="1"/>
        <pt x="113" y="148" on="0"/>
        <pt x="113" y="259" on="0"/>
        <pt x="122" y="309" on="1"/>
        <pt x="189" y="732" on="1"/>
        <pt x="282" y="732" on="1"/>
      </contour>
    </TTGlyph>
    <TTGlyph name="Ucircumflex" xMin="113" yMin="-5" xMax="716" yMax="929">
      <contour>
        <pt x="315" y="797" on="1"/>
        <pt x="450" y="928" on="1"/>
        <pt x="530" y="928" on="1"/>
        <pt x="611" y="797" on="1"/>
        <pt x="539" y="797" on="1"/>
        <pt x="486" y="875" on="1"/>
        <pt x="401" y="797" on="1"/>
      </contour>
      <contour>
        <pt x="215" y="305" on="1"/>
        <pt x="207" y="246" on="0"/>
        <pt x="207" y="201" on="0"/>
        <pt x="207" y="196" on="1"/>
        <pt x="209" y="116" on="0"/>
        <pt x="273" y="94" on="1"/>
        <pt x="301" y="84" on="0"/>
        <pt x="346" y="84" on="1"/>
        <pt x="440" y="84" on="0"/>
        <pt x="536" y="183" on="0"/>
        <pt x="555" y="305" on="1"/>
        <pt x="622" y="732" on="1"/>
        <pt x="715" y="732" on="1"/>
        <pt x="649" y="300" on="1"/>
        <pt x="620" y="120" on="0"/>
        <pt x="536" y="53" on="1"/>
        <pt x="464" y="-5" on="0"/>
        <pt x="337" y="-5" on="1"/>
        <pt x="179" y="-5" on="0"/>
        <pt x="136" y="96" on="1"/>
        <pt x="113" y="148" on="0"/>
        <pt x="113" y="259" on="0"/>
        <pt x="122" y="309" on="1"/>
        <pt x="189" y="732" on="1"/>
        <pt x="282" y="732" on="1"/>
      </contour>
    </TTGlyph>
    <TTGlyph name="Udieresis" xMin="113" yMin="-5" xMax="716" yMax="903">
      <contour>
        <pt x="331" y="902" on="0"/>
        <pt x="375" y="902" on="0"/>
        <pt x="397" y="875" on="0"/>
        <pt x="397" y="865" on="1"/>
        <pt x="397" y="832" on="0"/>
        <pt x="358" y="797" on="0"/>
        <pt x="314" y="797" on="0"/>
        <pt x="291" y="825" on="0"/>
        <pt x="291" y="836" on="1"/>
        <pt x="291" y="869" on="0"/>
      </contour>
      <contour>
        <pt x="586" y="902" on="0"/>
        <pt x="630" y="902" on="0"/>
        <pt x="652" y="875" on="0"/>
        <pt x="652" y="855" on="0"/>
        <pt x="650" y="836" on="0"/>
        <pt x="641" y="824" on="1"/>
        <pt x="621" y="797" on="0"/>
        <pt x="569" y="797" on="0"/>
        <pt x="546" y="825" on="0"/>
        <pt x="546" y="836" on="1"/>
        <pt x="546" y="869" on="0"/>
      </contour>
      <contour>
        <pt x="215" y="305" on="1"/>
        <pt x="207" y="246" on="0"/>
        <pt x="207" y="201" on="0"/>
        <pt x="207" y="196" on="1"/>
        <pt x="209" y="116" on="0"/>
        <pt x="273" y="94" on="1"/>
        <pt x="301" y="84" on="0"/>
        <pt x="346" y="84" on="1"/>
        <pt x="440" y="84" on="0"/>
        <pt x="536" y="183" on="0"/>
        <pt x="555" y="305" on="1"/>
        <pt x="622" y="732" on="1"/>
        <pt x="715" y="732" on="1"/>
        <pt x="649" y="300" on="1"/>
        <pt x="620" y="120" on="0"/>
        <pt x="536" y="53" on="1"/>
        <pt x="464" y="-5" on="0"/>
        <pt x="337" y="-5" on="1"/>
        <pt x="179" y="-5" on="0"/>
        <pt x="136" y="96" on="1"/>
        <pt x="113" y="148" on="0"/>
        <pt x="113" y="259" on="0"/>
        <pt x="122" y="309" on="1"/>
        <pt x="189" y="732" on="1"/>
        <pt x="282" y="732" on="1"/>
      </contour>
    </TTGlyph>
    <TTGlyph name="Ugrave" xMin="113" yMin="-5" xMax="716" yMax="932">
      <contour>
        <pt x="306" y="932" on="1"/>
        <pt x="402" y="932" on="1"/>
        <pt x="500" y="797" on="1"/>
        <pt x="425" y="797" on="1"/>
      </contour>
      <contour>
        <pt x="215" y="305" on="1"/>
        <pt x="207" y="246" on="0"/>
        <pt x="207" y="201" on="0"/>
        <pt x="207" y="196" on="1"/>
        <pt x="209" y="116" on="0"/>
        <pt x="273" y="94" on="1"/>
        <pt x="301" y="84" on="0"/>
        <pt x="346" y="84" on="1"/>
        <pt x="440" y="84" on="0"/>
        <pt x="536" y="183" on="0"/>
        <pt x="555" y="305" on="1"/>
        <pt x="622" y="732" on="1"/>
        <pt x="715" y="732" on="1"/>
        <pt x="649" y="300" on="1"/>
        <pt x="620" y="120" on="0"/>
        <pt x="536" y="53" on="1"/>
        <pt x="464" y="-5" on="0"/>
        <pt x="337" y="-5" on="1"/>
        <pt x="179" y="-5" on="0"/>
        <pt x="136" y="96" on="1"/>
        <pt x="113" y="148" on="0"/>
        <pt x="113" y="259" on="0"/>
        <pt x="122" y="309" on="1"/>
        <pt x="189" y="732" on="1"/>
        <pt x="282" y="732" on="1"/>
      </contour>
    </TTGlyph>
    <TTGlyph name="Uhungarumlaut" xMin="113" yMin="-5" xMax="723" yMax="932">
      <contour>
        <pt x="355" y="797" on="1"/>
        <pt x="479" y="932" on="1"/>
        <pt x="581" y="932" on="1"/>
        <pt x="430" y="797" on="1"/>
      </contour>
      <contour>
        <pt x="496" y="797" on="1"/>
        <pt x="620" y="932" on="1"/>
        <pt x="722" y="932" on="1"/>
        <pt x="571" y="797" on="1"/>
      </contour>
      <contour>
        <pt x="215" y="305" on="1"/>
        <pt x="207" y="246" on="0"/>
        <pt x="207" y="201" on="0"/>
        <pt x="207" y="196" on="1"/>
        <pt x="209" y="116" on="0"/>
        <pt x="273" y="94" on="1"/>
        <pt x="301" y="84" on="0"/>
        <pt x="346" y="84" on="1"/>
        <pt x="440" y="84" on="0"/>
        <pt x="536" y="183" on="0"/>
        <pt x="555" y="305" on="1"/>
        <pt x="622" y="732" on="1"/>
        <pt x="715" y="732" on="1"/>
        <pt x="649" y="300" on="1"/>
        <pt x="620" y="120" on="0"/>
        <pt x="536" y="53" on="1"/>
        <pt x="464" y="-5" on="0"/>
        <pt x="337" y="-5" on="1"/>
        <pt x="179" y="-5" on="0"/>
        <pt x="136" y="96" on="1"/>
        <pt x="113" y="148" on="0"/>
        <pt x="113" y="259" on="0"/>
        <pt x="122" y="309" on="1"/>
        <pt x="189" y="732" on="1"/>
        <pt x="282" y="732" on="1"/>
      </contour>
    </TTGlyph>
    <TTGlyph name="Umacron" xMin="113" yMin="-5" xMax="716" yMax="865">
      <contour>
        <pt x="317" y="797" on="1"/>
        <pt x="328" y="864" on="1"/>
        <pt x="620" y="864" on="1"/>
        <pt x="609" y="797" on="1"/>
      </contour>
      <contour>
        <pt x="215" y="305" on="1"/>
        <pt x="207" y="246" on="0"/>
        <pt x="207" y="201" on="0"/>
        <pt x="207" y="196" on="1"/>
        <pt x="209" y="116" on="0"/>
        <pt x="273" y="94" on="1"/>
        <pt x="301" y="84" on="0"/>
        <pt x="346" y="84" on="1"/>
        <pt x="440" y="84" on="0"/>
        <pt x="536" y="183" on="0"/>
        <pt x="555" y="305" on="1"/>
        <pt x="622" y="732" on="1"/>
        <pt x="715" y="732" on="1"/>
        <pt x="649" y="300" on="1"/>
        <pt x="620" y="120" on="0"/>
        <pt x="536" y="53" on="1"/>
        <pt x="464" y="-5" on="0"/>
        <pt x="337" y="-5" on="1"/>
        <pt x="179" y="-5" on="0"/>
        <pt x="136" y="96" on="1"/>
        <pt x="113" y="148" on="0"/>
        <pt x="113" y="259" on="0"/>
        <pt x="122" y="309" on="1"/>
        <pt x="189" y="732" on="1"/>
        <pt x="282" y="732" on="1"/>
      </contour>
    </TTGlyph>
    <TTGlyph name="Uogonek" xMin="113" yMin="-184" xMax="716" yMax="732">
      <contour>
        <pt x="221" y="-108" on="1"/>
        <pt x="221" y="-39" on="0"/>
        <pt x="318" y="1" on="1"/>
        <pt x="361" y="1" on="1"/>
        <pt x="291" y="-49" on="0"/>
        <pt x="291" y="-86" on="1"/>
        <pt x="291" y="-117" on="0"/>
        <pt x="338" y="-117" on="1"/>
        <pt x="342" y="-117" on="0"/>
        <pt x="347" y="-117" on="1"/>
        <pt x="336" y="-182" on="1"/>
        <pt x="324" y="-184" on="0"/>
        <pt x="312" y="-184" on="1"/>
        <pt x="272" y="-184" on="0"/>
        <pt x="221" y="-137" on="0"/>
      </contour>
      <contour>
        <pt x="215" y="305" on="1"/>
        <pt x="282" y="732" on="1"/>
        <pt x="189" y="732" on="1"/>
        <pt x="122" y="309" on="1"/>
        <pt x="113" y="259" on="0"/>
        <pt x="113" y="148" on="0"/>
        <pt x="136" y="96" on="1"/>
        <pt x="179" y="-5" on="0"/>
        <pt x="337" y="-5" on="1"/>
        <pt x="464" y="-5" on="0"/>
        <pt x="536" y="53" on="1"/>
        <pt x="620" y="120" on="0"/>
        <pt x="649" y="300" on="1"/>
        <pt x="715" y="732" on="1"/>
        <pt x="622" y="732" on="1"/>
        <pt x="555" y="305" on="1"/>
        <pt x="536" y="183" on="0"/>
        <pt x="440" y="84" on="0"/>
        <pt x="346" y="84" on="1"/>
        <pt x="301" y="84" on="0"/>
        <pt x="273" y="94" on="1"/>
        <pt x="209" y="116" on="0"/>
        <pt x="207" y="196" on="1"/>
        <pt x="207" y="201" on="0"/>
        <pt x="207" y="246" on="0"/>
      </contour>
    </TTGlyph>
    <TTGlyph name="Uring" xMin="113" yMin="-5" xMax="716" yMax="1002">
      <contour>
        <pt x="446" y="1001" on="0"/>
        <pt x="530" y="1001" on="0"/>
        <pt x="581" y="945" on="0"/>
        <pt x="581" y="909" on="1"/>
        <pt x="581" y="860" on="0"/>
        <pt x="513" y="797" on="0"/>
        <pt x="429" y="797" on="0"/>
        <pt x="377" y="853" on="0"/>
        <pt x="377" y="889" on="1"/>
        <pt x="377" y="937" on="0"/>
      </contour>
      <contour>
        <pt x="505" y="951" on="0"/>
        <pt x="463" y="951" on="0"/>
        <pt x="427" y="918" on="0"/>
        <pt x="427" y="876" on="0"/>
        <pt x="454" y="848" on="0"/>
        <pt x="496" y="848" on="0"/>
        <pt x="512" y="863" on="1"/>
        <pt x="531" y="879" on="0"/>
        <pt x="531" y="922" on="0"/>
      </contour>
      <contour>
        <pt x="215" y="305" on="1"/>
        <pt x="207" y="246" on="0"/>
        <pt x="207" y="201" on="0"/>
        <pt x="207" y="196" on="1"/>
        <pt x="209" y="116" on="0"/>
        <pt x="273" y="94" on="1"/>
        <pt x="301" y="84" on="0"/>
        <pt x="346" y="84" on="1"/>
        <pt x="440" y="84" on="0"/>
        <pt x="536" y="183" on="0"/>
        <pt x="555" y="305" on="1"/>
        <pt x="622" y="732" on="1"/>
        <pt x="715" y="732" on="1"/>
        <pt x="649" y="300" on="1"/>
        <pt x="620" y="120" on="0"/>
        <pt x="536" y="53" on="1"/>
        <pt x="464" y="-5" on="0"/>
        <pt x="337" y="-5" on="1"/>
        <pt x="179" y="-5" on="0"/>
        <pt x="136" y="96" on="1"/>
        <pt x="113" y="148" on="0"/>
        <pt x="113" y="259" on="0"/>
        <pt x="122" y="309" on="1"/>
        <pt x="189" y="732" on="1"/>
        <pt x="282" y="732" on="1"/>
      </contour>
    </TTGlyph>
    <TTGlyph name="Utilde" xMin="113" yMin="-5" xMax="716" yMax="909">
      <contour>
        <pt x="455" y="906" on="0"/>
        <pt x="516" y="874" on="0"/>
        <pt x="529" y="873" on="0"/>
        <pt x="548" y="873" on="0"/>
        <pt x="619" y="901" on="0"/>
        <pt x="629" y="908" on="1"/>
        <pt x="643" y="861" on="1"/>
        <pt x="636" y="856" on="0"/>
        <pt x="603" y="832" on="0"/>
        <pt x="585" y="820" on="0"/>
        <pt x="570" y="812" on="1"/>
        <pt x="516" y="782" on="0"/>
        <pt x="460" y="815" on="1"/>
        <pt x="432" y="832" on="0"/>
        <pt x="415" y="832" on="1"/>
        <pt x="385" y="832" on="0"/>
        <pt x="344" y="812" on="0"/>
        <pt x="322" y="800" on="0"/>
        <pt x="315" y="797" on="1"/>
        <pt x="300" y="842" on="1"/>
        <pt x="352" y="883" on="0"/>
        <pt x="408" y="907" on="0"/>
      </contour>
      <contour>
        <pt x="215" y="305" on="1"/>
        <pt x="207" y="246" on="0"/>
        <pt x="207" y="201" on="0"/>
        <pt x="207" y="196" on="1"/>
        <pt x="209" y="116" on="0"/>
        <pt x="273" y="94" on="1"/>
        <pt x="301" y="84" on="0"/>
        <pt x="346" y="84" on="1"/>
        <pt x="440" y="84" on="0"/>
        <pt x="536" y="183" on="0"/>
        <pt x="555" y="305" on="1"/>
        <pt x="622" y="732" on="1"/>
        <pt x="715" y="732" on="1"/>
        <pt x="649" y="300" on="1"/>
        <pt x="620" y="120" on="0"/>
        <pt x="536" y="53" on="1"/>
        <pt x="464" y="-5" on="0"/>
        <pt x="337" y="-5" on="1"/>
        <pt x="179" y="-5" on="0"/>
        <pt x="136" y="96" on="1"/>
        <pt x="113" y="148" on="0"/>
        <pt x="113" y="259" on="0"/>
        <pt x="122" y="309" on="1"/>
        <pt x="189" y="732" on="1"/>
        <pt x="282" y="732" on="1"/>
      </contour>
    </TTGlyph>
    <TTGlyph name="V" xMin="147" yMin="0" xMax="756" yMax="732">
      <contour>
        <pt x="147" y="732" on="1"/>
        <pt x="244" y="732" on="1"/>
        <pt x="348" y="137" on="1"/>
        <pt x="652" y="732" on="1"/>
        <pt x="756" y="732" on="1"/>
        <pt x="378" y="0" on="1"/>
        <pt x="280" y="0" on="1"/>
      </contour>
    </TTGlyph>
    <TTGlyph name="W" xMin="147" yMin="0" xMax="1087" yMax="732">
      <contour>
        <pt x="147" y="732" on="1"/>
        <pt x="241" y="732" on="1"/>
        <pt x="347" y="140" on="1"/>
        <pt x="647" y="732" on="1"/>
        <pt x="749" y="732" on="1"/>
        <pt x="629" y="494" on="1"/>
        <pt x="686" y="135" on="1"/>
        <pt x="987" y="732" on="1"/>
        <pt x="1086" y="732" on="1"/>
        <pt x="715" y="0" on="1"/>
        <pt x="618" y="0" on="1"/>
        <pt x="561" y="354" on="1"/>
        <pt x="380" y="0" on="1"/>
        <pt x="280" y="0" on="1"/>
      </contour>
    </TTGlyph>
    <TTGlyph name="Wacute" xMin="147" yMin="0" xMax="1087" yMax="932">
      <contour>
        <pt x="590" y="797" on="1"/>
        <pt x="713" y="932" on="1"/>
        <pt x="816" y="932" on="1"/>
        <pt x="665" y="797" on="1"/>
      </contour>
      <contour>
        <pt x="147" y="732" on="1"/>
        <pt x="241" y="732" on="1"/>
        <pt x="347" y="140" on="1"/>
        <pt x="647" y="732" on="1"/>
        <pt x="749" y="732" on="1"/>
        <pt x="629" y="494" on="1"/>
        <pt x="686" y="135" on="1"/>
        <pt x="987" y="732" on="1"/>
        <pt x="1086" y="732" on="1"/>
        <pt x="715" y="0" on="1"/>
        <pt x="618" y="0" on="1"/>
        <pt x="561" y="354" on="1"/>
        <pt x="380" y="0" on="1"/>
        <pt x="280" y="0" on="1"/>
      </contour>
    </TTGlyph>
    <TTGlyph name="Wcircumflex" xMin="147" yMin="0" xMax="1087" yMax="929">
      <contour>
        <pt x="472" y="797" on="1"/>
        <pt x="608" y="928" on="1"/>
        <pt x="688" y="928" on="1"/>
        <pt x="769" y="797" on="1"/>
        <pt x="697" y="797" on="1"/>
        <pt x="644" y="875" on="1"/>
        <pt x="559" y="797" on="1"/>
      </contour>
      <contour>
        <pt x="147" y="732" on="1"/>
        <pt x="241" y="732" on="1"/>
        <pt x="347" y="140" on="1"/>
        <pt x="647" y="732" on="1"/>
        <pt x="749" y="732" on="1"/>
        <pt x="629" y="494" on="1"/>
        <pt x="686" y="135" on="1"/>
        <pt x="987" y="732" on="1"/>
        <pt x="1086" y="732" on="1"/>
        <pt x="715" y="0" on="1"/>
        <pt x="618" y="0" on="1"/>
        <pt x="561" y="354" on="1"/>
        <pt x="380" y="0" on="1"/>
        <pt x="280" y="0" on="1"/>
      </contour>
    </TTGlyph>
    <TTGlyph name="Wdieresis" xMin="147" yMin="0" xMax="1087" yMax="903">
      <contour>
        <pt x="496" y="902" on="0"/>
        <pt x="540" y="902" on="0"/>
        <pt x="563" y="875" on="0"/>
        <pt x="563" y="865" on="1"/>
        <pt x="563" y="832" on="0"/>
        <pt x="523" y="797" on="0"/>
        <pt x="480" y="797" on="0"/>
        <pt x="456" y="825" on="0"/>
        <pt x="456" y="836" on="1"/>
        <pt x="456" y="869" on="0"/>
      </contour>
      <contour>
        <pt x="732" y="889" on="0"/>
        <pt x="759" y="902" on="0"/>
        <pt x="795" y="902" on="0"/>
        <pt x="818" y="875" on="0"/>
        <pt x="818" y="865" on="1"/>
        <pt x="818" y="832" on="0"/>
        <pt x="778" y="797" on="0"/>
        <pt x="735" y="797" on="0"/>
        <pt x="711" y="825" on="0"/>
        <pt x="711" y="846" on="0"/>
        <pt x="714" y="865" on="0"/>
      </contour>
      <contour>
        <pt x="147" y="732" on="1"/>
        <pt x="241" y="732" on="1"/>
        <pt x="347" y="140" on="1"/>
        <pt x="647" y="732" on="1"/>
        <pt x="749" y="732" on="1"/>
        <pt x="629" y="494" on="1"/>
        <pt x="686" y="135" on="1"/>
        <pt x="987" y="732" on="1"/>
        <pt x="1086" y="732" on="1"/>
        <pt x="715" y="0" on="1"/>
        <pt x="618" y="0" on="1"/>
        <pt x="561" y="354" on="1"/>
        <pt x="380" y="0" on="1"/>
        <pt x="280" y="0" on="1"/>
      </contour>
    </TTGlyph>
    <TTGlyph name="Wgrave" xMin="147" yMin="0" xMax="1087" yMax="932">
      <contour>
        <pt x="471" y="932" on="1"/>
        <pt x="566" y="932" on="1"/>
        <pt x="665" y="797" on="1"/>
        <pt x="590" y="797" on="1"/>
      </contour>
      <contour>
        <pt x="147" y="732" on="1"/>
        <pt x="241" y="732" on="1"/>
        <pt x="347" y="140" on="1"/>
        <pt x="647" y="732" on="1"/>
        <pt x="749" y="732" on="1"/>
        <pt x="629" y="494" on="1"/>
        <pt x="686" y="135" on="1"/>
        <pt x="987" y="732" on="1"/>
        <pt x="1086" y="732" on="1"/>
        <pt x="715" y="0" on="1"/>
        <pt x="618" y="0" on="1"/>
        <pt x="561" y="354" on="1"/>
        <pt x="380" y="0" on="1"/>
        <pt x="280" y="0" on="1"/>
      </contour>
    </TTGlyph>
    <TTGlyph name="X" xMin="36" yMin="0" xMax="696" yMax="732">
      <contour>
        <pt x="36" y="0" on="1"/>
        <pt x="311" y="367" on="1"/>
        <pt x="150" y="732" on="1"/>
        <pt x="248" y="732" on="1"/>
        <pt x="373" y="444" on="1"/>
        <pt x="588" y="732" on="1"/>
        <pt x="696" y="732" on="1"/>
        <pt x="413" y="353" on="1"/>
        <pt x="569" y="0" on="1"/>
        <pt x="470" y="0" on="1"/>
        <pt x="351" y="276" on="1"/>
        <pt x="144" y="0" on="1"/>
      </contour>
    </TTGlyph>
    <TTGlyph name="X.salt" xMin="18" yMin="0" xMax="722" yMax="732">
      <contour>
        <pt x="253" y="458" on="1"/>
        <pt x="135" y="732" on="1"/>
        <pt x="232" y="732" on="1"/>
        <pt x="337" y="486" on="1"/>
        <pt x="360" y="435" on="0"/>
        <pt x="360" y="376" on="1"/>
        <pt x="360" y="317" on="0"/>
        <pt x="331" y="279" on="1"/>
        <pt x="127" y="0" on="1"/>
        <pt x="19" y="0" on="1"/>
        <pt x="237" y="306" on="1"/>
        <pt x="271" y="354" on="0"/>
        <pt x="271" y="419" on="0"/>
      </contour>
      <contour>
        <pt x="391" y="279" on="1"/>
        <pt x="381" y="305" on="0"/>
        <pt x="381" y="331" on="1"/>
        <pt x="381" y="421" on="0"/>
        <pt x="431" y="486" on="1"/>
        <pt x="614" y="732" on="1"/>
        <pt x="722" y="732" on="1"/>
        <pt x="516" y="456" on="1"/>
        <pt x="492" y="422" on="0"/>
        <pt x="471" y="380" on="0"/>
        <pt x="471" y="333" on="0"/>
        <pt x="483" y="304" on="1"/>
        <pt x="606" y="0" on="1"/>
        <pt x="508" y="0" on="1"/>
      </contour>
    </TTGlyph>
    <TTGlyph name="Y" xMin="147" yMin="0" xMax="719" yMax="732">
      <contour>
        <pt x="147" y="732" on="1"/>
        <pt x="245" y="732" on="1"/>
        <pt x="361" y="360" on="1"/>
        <pt x="611" y="732" on="1"/>
        <pt x="719" y="732" on="1"/>
        <pt x="393" y="251" on="1"/>
        <pt x="353" y="0" on="1"/>
        <pt x="261" y="0" on="1"/>
        <pt x="301" y="251" on="1"/>
      </contour>
    </TTGlyph>
    <TTGlyph name="Yacute" xMin="147" yMin="0" xMax="719" yMax="932">
      <contour>
        <pt x="406" y="797" on="1"/>
        <pt x="530" y="932" on="1"/>
        <pt x="632" y="932" on="1"/>
        <pt x="481" y="797" on="1"/>
      </contour>
      <contour>
        <pt x="147" y="732" on="1"/>
        <pt x="245" y="732" on="1"/>
        <pt x="361" y="360" on="1"/>
        <pt x="611" y="732" on="1"/>
        <pt x="719" y="732" on="1"/>
        <pt x="393" y="251" on="1"/>
        <pt x="353" y="0" on="1"/>
        <pt x="261" y="0" on="1"/>
        <pt x="301" y="251" on="1"/>
      </contour>
    </TTGlyph>
    <TTGlyph name="Ycircumflex" xMin="147" yMin="0" xMax="719" yMax="929">
      <contour>
        <pt x="295" y="797" on="1"/>
        <pt x="431" y="928" on="1"/>
        <pt x="511" y="928" on="1"/>
        <pt x="592" y="797" on="1"/>
        <pt x="520" y="797" on="1"/>
        <pt x="467" y="875" on="1"/>
        <pt x="381" y="797" on="1"/>
      </contour>
      <contour>
        <pt x="147" y="732" on="1"/>
        <pt x="245" y="732" on="1"/>
        <pt x="361" y="360" on="1"/>
        <pt x="611" y="732" on="1"/>
        <pt x="719" y="732" on="1"/>
        <pt x="393" y="251" on="1"/>
        <pt x="353" y="0" on="1"/>
        <pt x="261" y="0" on="1"/>
        <pt x="301" y="251" on="1"/>
      </contour>
    </TTGlyph>
    <TTGlyph name="Ydieresis" xMin="110" yMin="0" xMax="683" yMax="899">
      <contour>
        <pt x="264" y="890" on="0"/>
        <pt x="285" y="898" on="0"/>
        <pt x="318" y="898" on="0"/>
        <pt x="341" y="871" on="0"/>
        <pt x="341" y="861" on="1"/>
        <pt x="341" y="827" on="0"/>
        <pt x="301" y="793" on="0"/>
        <pt x="265" y="793" on="0"/>
        <pt x="254" y="800" on="1"/>
        <pt x="230" y="815" on="0"/>
        <pt x="235" y="846" on="1"/>
        <pt x="238" y="868" on="0"/>
      </contour>
      <contour>
        <pt x="493" y="868" on="0"/>
        <pt x="529" y="898" on="0"/>
        <pt x="573" y="898" on="0"/>
        <pt x="596" y="871" on="0"/>
        <pt x="596" y="861" on="1"/>
        <pt x="596" y="827" on="0"/>
        <pt x="556" y="793" on="0"/>
        <pt x="520" y="793" on="0"/>
        <pt x="509" y="800" on="1"/>
        <pt x="485" y="815" on="0"/>
      </contour>
      <contour>
        <pt x="110" y="732" on="1"/>
        <pt x="208" y="732" on="1"/>
        <pt x="324" y="360" on="1"/>
        <pt x="575" y="732" on="1"/>
        <pt x="682" y="732" on="1"/>
        <pt x="356" y="251" on="1"/>
        <pt x="317" y="0" on="1"/>
        <pt x="225" y="0" on="1"/>
        <pt x="264" y="251" on="1"/>
      </contour>
    </TTGlyph>
    <TTGlyph name="Ygrave" xMin="147" yMin="0" xMax="719" yMax="932">
      <contour>
        <pt x="287" y="932" on="1"/>
        <pt x="383" y="932" on="1"/>
        <pt x="481" y="797" on="1"/>
        <pt x="406" y="797" on="1"/>
      </contour>
      <contour>
        <pt x="147" y="732" on="1"/>
        <pt x="245" y="732" on="1"/>
        <pt x="361" y="360" on="1"/>
        <pt x="611" y="732" on="1"/>
        <pt x="719" y="732" on="1"/>
        <pt x="393" y="251" on="1"/>
        <pt x="353" y="0" on="1"/>
        <pt x="261" y="0" on="1"/>
        <pt x="301" y="251" on="1"/>
      </contour>
    </TTGlyph>
    <TTGlyph name="Z" xMin="32" yMin="0" xMax="645" yMax="732">
      <contour>
        <pt x="33" y="0" on="1"/>
        <pt x="47" y="89" on="1"/>
        <pt x="513" y="643" on="1"/>
        <pt x="134" y="643" on="1"/>
        <pt x="149" y="732" on="1"/>
        <pt x="645" y="732" on="1"/>
        <pt x="630" y="643" on="1"/>
        <pt x="167" y="89" on="1"/>
        <pt x="543" y="89" on="1"/>
        <pt x="529" y="0" on="1"/>
      </contour>
    </TTGlyph>
    <TTGlyph name="Zacute" xMin="121" yMin="0" xMax="734" yMax="928">
      <contour>
        <pt x="457" y="793" on="1"/>
        <pt x="581" y="927" on="1"/>
        <pt x="683" y="927" on="1"/>
        <pt x="532" y="793" on="1"/>
      </contour>
      <contour>
        <pt x="121" y="0" on="1"/>
        <pt x="136" y="89" on="1"/>
        <pt x="602" y="643" on="1"/>
        <pt x="223" y="643" on="1"/>
        <pt x="237" y="732" on="1"/>
        <pt x="733" y="732" on="1"/>
        <pt x="719" y="643" on="1"/>
        <pt x="256" y="89" on="1"/>
        <pt x="632" y="89" on="1"/>
        <pt x="617" y="0" on="1"/>
      </contour>
    </TTGlyph>
    <TTGlyph name="Zcaron" xMin="32" yMin="0" xMax="645" yMax="929">
      <contour>
        <pt x="280" y="928" on="1"/>
        <pt x="352" y="928" on="1"/>
        <pt x="405" y="850" on="1"/>
        <pt x="490" y="928" on="1"/>
        <pt x="576" y="928" on="1"/>
        <pt x="441" y="797" on="1"/>
        <pt x="361" y="797" on="1"/>
      </contour>
      <contour>
        <pt x="33" y="0" on="1"/>
        <pt x="47" y="89" on="1"/>
        <pt x="513" y="643" on="1"/>
        <pt x="134" y="643" on="1"/>
        <pt x="149" y="732" on="1"/>
        <pt x="645" y="732" on="1"/>
        <pt x="630" y="643" on="1"/>
        <pt x="167" y="89" on="1"/>
        <pt x="543" y="89" on="1"/>
        <pt x="529" y="0" on="1"/>
      </contour>
    </TTGlyph>
    <TTGlyph name="Zdotaccent" xMin="32" yMin="0" xMax="645" yMax="905">
      <contour>
        <pt x="397" y="905" on="1"/>
        <pt x="453" y="905" on="1"/>
        <pt x="476" y="905" on="0"/>
        <pt x="472" y="880" on="1"/>
        <pt x="462" y="820" on="1"/>
        <pt x="459" y="797" on="0"/>
        <pt x="436" y="797" on="1"/>
        <pt x="380" y="797" on="1"/>
        <pt x="370" y="797" on="0"/>
        <pt x="358" y="810" on="0"/>
        <pt x="359" y="820" on="1"/>
        <pt x="369" y="880" on="1"/>
        <pt x="372" y="905" on="0"/>
      </contour>
      <contour>
        <pt x="33" y="0" on="1"/>
        <pt x="47" y="89" on="1"/>
        <pt x="513" y="643" on="1"/>
        <pt x="134" y="643" on="1"/>
        <pt x="149" y="732" on="1"/>
        <pt x="645" y="732" on="1"/>
        <pt x="630" y="643" on="1"/>
        <pt x="167" y="89" on="1"/>
        <pt x="543" y="89" on="1"/>
        <pt x="529" y="0" on="1"/>
      </contour>
    </TTGlyph>
    <TTGlyph name="a" xMin="74" yMin="-7" xMax="566" yMax="543">
      <contour>
        <pt x="235" y="526" on="0"/>
        <pt x="281" y="538" on="0"/>
        <pt x="327" y="543" on="0"/>
        <pt x="392" y="543" on="0"/>
        <pt x="530" y="513" on="0"/>
        <pt x="566" y="479" on="1"/>
        <pt x="496" y="0" on="1"/>
        <pt x="428" y="0" on="1"/>
        <pt x="414" y="59" on="1"/>
        <pt x="386" y="36" on="0"/>
        <pt x="284" y="-7" on="0"/>
        <pt x="199" y="-7" on="0"/>
        <pt x="146" y="8" on="0"/>
        <pt x="99" y="47" on="0"/>
        <pt x="88" y="80" on="1"/>
        <pt x="74" y="124" on="0"/>
        <pt x="74" y="226" on="0"/>
        <pt x="96" y="346" on="0"/>
        <pt x="135" y="439" on="0"/>
        <pt x="177" y="492" on="0"/>
      </contour>
      <contour>
        <pt x="206" y="380" on="0"/>
        <pt x="182" y="307" on="0"/>
        <pt x="167" y="211" on="0"/>
        <pt x="167" y="142" on="0"/>
        <pt x="176" y="120" on="1"/>
        <pt x="193" y="79" on="0"/>
        <pt x="298" y="79" on="0"/>
        <pt x="370" y="102" on="0"/>
        <pt x="421" y="128" on="1"/>
        <pt x="469" y="443" on="1"/>
        <pt x="405" y="461" on="0"/>
        <pt x="334" y="461" on="0"/>
        <pt x="292" y="453" on="0"/>
        <pt x="267" y="445" on="0"/>
        <pt x="230" y="420" on="0"/>
      </contour>
    </TTGlyph>
    <TTGlyph name="a.salt" xMin="76" yMin="-8" xMax="561" yMax="535">
      <contour>
        <pt x="105" y="422" on="0"/>
        <pt x="216" y="535" on="0"/>
        <pt x="446" y="535" on="0"/>
        <pt x="561" y="483" on="1"/>
        <pt x="500" y="13" on="1"/>
        <pt x="494" y="9" on="0"/>
        <pt x="261" y="-7" on="0"/>
        <pt x="207" y="-7" on="0"/>
        <pt x="150" y="9" on="0"/>
        <pt x="127" y="29" on="1"/>
        <pt x="85" y="64" on="0"/>
        <pt x="77" y="161" on="1"/>
        <pt x="76" y="173" on="0"/>
        <pt x="76" y="226" on="0"/>
        <pt x="85" y="275" on="1"/>
      </contour>
      <contour>
        <pt x="223" y="423" on="0"/>
        <pt x="187" y="339" on="0"/>
        <pt x="170" y="213" on="0"/>
        <pt x="170" y="139" on="0"/>
        <pt x="179" y="117" on="1"/>
        <pt x="195" y="77" on="0"/>
        <pt x="248" y="77" on="1"/>
        <pt x="417" y="82" on="1"/>
        <pt x="465" y="434" on="1"/>
        <pt x="371" y="454" on="0"/>
        <pt x="281" y="454" on="0"/>
      </contour>
    </TTGlyph>
    <TTGlyph name="a.smcp" xMin="32" yMin="0" xMax="563" yMax="570">
      <contour>
        <pt x="33" y="0" on="1"/>
        <pt x="347" y="570" on="1"/>
        <pt x="446" y="570" on="1"/>
        <pt x="563" y="0" on="1"/>
        <pt x="470" y="0" on="1"/>
        <pt x="438" y="142" on="1"/>
        <pt x="212" y="142" on="1"/>
        <pt x="137" y="0" on="1"/>
      </contour>
      <contour>
        <pt x="257" y="227" on="1"/>
        <pt x="425" y="227" on="1"/>
        <pt x="379" y="450" on="1"/>
      </contour>
    </TTGlyph>
    <TTGlyph name="a.superior" xMin="107" yMin="363" xMax="462" yMax="735">
      <contour>
        <pt x="217" y="725" on="0"/>
        <pt x="249" y="733" on="0"/>
        <pt x="276" y="735" on="0"/>
        <pt x="324" y="735" on="0"/>
        <pt x="438" y="713" on="0"/>
        <pt x="462" y="690" on="1"/>
        <pt x="414" y="368" on="1"/>
        <pt x="366" y="368" on="1"/>
        <pt x="351" y="420" on="1"/>
        <pt x="333" y="400" on="0"/>
        <pt x="256" y="363" on="0"/>
        <pt x="215" y="363" on="1"/>
        <pt x="153" y="363" on="0"/>
        <pt x="125" y="407" on="1"/>
        <pt x="107" y="435" on="0"/>
        <pt x="107" y="518" on="0"/>
        <pt x="120" y="600" on="0"/>
        <pt x="147" y="665" on="0"/>
        <pt x="178" y="702" on="0"/>
      </contour>
      <contour>
        <pt x="199" y="614" on="0"/>
        <pt x="187" y="575" on="0"/>
        <pt x="178" y="517" on="0"/>
        <pt x="178" y="472" on="0"/>
        <pt x="183" y="459" on="1"/>
        <pt x="192" y="432" on="0"/>
        <pt x="226" y="432" on="1"/>
        <pt x="281" y="432" on="0"/>
        <pt x="356" y="475" on="1"/>
        <pt x="385" y="658" on="1"/>
        <pt x="339" y="670" on="0"/>
        <pt x="284" y="670" on="0"/>
        <pt x="262" y="668" on="0"/>
        <pt x="248" y="664" on="0"/>
        <pt x="230" y="655" on="0"/>
        <pt x="214" y="638" on="0"/>
      </contour>
    </TTGlyph>
    <TTGlyph name="aacute" xMin="74" yMin="-7" xMax="566" yMax="738">
      <contour>
        <pt x="329" y="603" on="1"/>
        <pt x="453" y="737" on="1"/>
        <pt x="555" y="737" on="1"/>
        <pt x="404" y="603" on="1"/>
      </contour>
      <contour>
        <pt x="235" y="526" on="0"/>
        <pt x="281" y="538" on="0"/>
        <pt x="327" y="543" on="0"/>
        <pt x="392" y="543" on="0"/>
        <pt x="530" y="513" on="0"/>
        <pt x="566" y="479" on="1"/>
        <pt x="496" y="0" on="1"/>
        <pt x="428" y="0" on="1"/>
        <pt x="414" y="59" on="1"/>
        <pt x="386" y="36" on="0"/>
        <pt x="284" y="-7" on="0"/>
        <pt x="199" y="-7" on="0"/>
        <pt x="146" y="8" on="0"/>
        <pt x="99" y="47" on="0"/>
        <pt x="88" y="80" on="1"/>
        <pt x="74" y="124" on="0"/>
        <pt x="74" y="226" on="0"/>
        <pt x="96" y="346" on="0"/>
        <pt x="135" y="439" on="0"/>
        <pt x="177" y="492" on="0"/>
      </contour>
      <contour>
        <pt x="196" y="351" on="0"/>
        <pt x="180" y="293" on="0"/>
        <pt x="167" y="211" on="0"/>
        <pt x="167" y="142" on="0"/>
        <pt x="176" y="120" on="1"/>
        <pt x="193" y="79" on="0"/>
        <pt x="298" y="79" on="0"/>
        <pt x="370" y="102" on="0"/>
        <pt x="421" y="128" on="1"/>
        <pt x="469" y="443" on="1"/>
        <pt x="405" y="461" on="0"/>
        <pt x="334" y="461" on="0"/>
        <pt x="299" y="454" on="0"/>
        <pt x="280" y="449" on="0"/>
        <pt x="252" y="437" on="0"/>
        <pt x="234" y="420" on="0"/>
        <pt x="212" y="391" on="0"/>
      </contour>
    </TTGlyph>
    <TTGlyph name="aacute.salt" xMin="76" yMin="-8" xMax="561" yMax="736">
      <contour>
        <pt x="319" y="601" on="1"/>
        <pt x="443" y="735" on="1"/>
        <pt x="545" y="735" on="1"/>
        <pt x="394" y="601" on="1"/>
      </contour>
      <contour>
        <pt x="105" y="422" on="0"/>
        <pt x="216" y="535" on="0"/>
        <pt x="446" y="535" on="0"/>
        <pt x="561" y="483" on="1"/>
        <pt x="500" y="13" on="1"/>
        <pt x="494" y="9" on="0"/>
        <pt x="261" y="-7" on="0"/>
        <pt x="207" y="-7" on="0"/>
        <pt x="150" y="9" on="0"/>
        <pt x="127" y="29" on="1"/>
        <pt x="85" y="64" on="0"/>
        <pt x="77" y="161" on="1"/>
        <pt x="76" y="173" on="0"/>
        <pt x="76" y="226" on="0"/>
        <pt x="85" y="275" on="1"/>
      </contour>
      <contour>
        <pt x="223" y="423" on="0"/>
        <pt x="187" y="339" on="0"/>
        <pt x="170" y="213" on="0"/>
        <pt x="170" y="139" on="0"/>
        <pt x="179" y="117" on="1"/>
        <pt x="195" y="77" on="0"/>
        <pt x="248" y="77" on="1"/>
        <pt x="417" y="82" on="1"/>
        <pt x="465" y="434" on="1"/>
        <pt x="371" y="454" on="0"/>
        <pt x="281" y="454" on="0"/>
      </contour>
    </TTGlyph>
    <TTGlyph name="aacute.smcp" xMin="32" yMin="0" xMax="595" yMax="765">
      <contour>
        <pt x="369" y="630" on="1"/>
        <pt x="492" y="764" on="1"/>
        <pt x="595" y="764" on="1"/>
        <pt x="444" y="630" on="1"/>
      </contour>
      <contour>
        <pt x="33" y="0" on="1"/>
        <pt x="347" y="570" on="1"/>
        <pt x="446" y="570" on="1"/>
        <pt x="563" y="0" on="1"/>
        <pt x="470" y="0" on="1"/>
        <pt x="438" y="142" on="1"/>
        <pt x="212" y="142" on="1"/>
        <pt x="137" y="0" on="1"/>
      </contour>
      <contour>
        <pt x="257" y="227" on="1"/>
        <pt x="425" y="227" on="1"/>
        <pt x="379" y="450" on="1"/>
      </contour>
    </TTGlyph>
    <TTGlyph name="abreve" xMin="74" yMin="-7" xMax="566" yMax="717">
      <contour>
        <pt x="327" y="717" on="1"/>
        <pt x="326" y="711" on="0"/>
        <pt x="326" y="683" on="0"/>
        <pt x="354" y="652" on="0"/>
        <pt x="380" y="652" on="1"/>
        <pt x="382" y="652" on="0"/>
        <pt x="383" y="652" on="1"/>
        <pt x="447" y="652" on="0"/>
        <pt x="456" y="717" on="1"/>
        <pt x="506" y="717" on="1"/>
        <pt x="491" y="603" on="0"/>
        <pt x="380" y="603" on="1"/>
        <pt x="336" y="603" on="0"/>
        <pt x="278" y="661" on="0"/>
        <pt x="278" y="704" on="1"/>
        <pt x="278" y="710" on="0"/>
        <pt x="278" y="717" on="1"/>
      </contour>
      <contour>
        <pt x="235" y="526" on="0"/>
        <pt x="281" y="538" on="0"/>
        <pt x="327" y="543" on="0"/>
        <pt x="392" y="543" on="0"/>
        <pt x="530" y="513" on="0"/>
        <pt x="566" y="479" on="1"/>
        <pt x="496" y="0" on="1"/>
        <pt x="428" y="0" on="1"/>
        <pt x="414" y="59" on="1"/>
        <pt x="386" y="36" on="0"/>
        <pt x="284" y="-7" on="0"/>
        <pt x="199" y="-7" on="0"/>
        <pt x="146" y="8" on="0"/>
        <pt x="99" y="47" on="0"/>
        <pt x="88" y="80" on="1"/>
        <pt x="74" y="124" on="0"/>
        <pt x="74" y="226" on="0"/>
        <pt x="96" y="346" on="0"/>
        <pt x="135" y="439" on="0"/>
        <pt x="177" y="492" on="0"/>
      </contour>
      <contour>
        <pt x="196" y="351" on="0"/>
        <pt x="180" y="293" on="0"/>
        <pt x="167" y="211" on="0"/>
        <pt x="167" y="142" on="0"/>
        <pt x="176" y="120" on="1"/>
        <pt x="193" y="79" on="0"/>
        <pt x="298" y="79" on="0"/>
        <pt x="370" y="102" on="0"/>
        <pt x="421" y="128" on="1"/>
        <pt x="469" y="443" on="1"/>
        <pt x="405" y="461" on="0"/>
        <pt x="334" y="461" on="0"/>
        <pt x="299" y="454" on="0"/>
        <pt x="280" y="449" on="0"/>
        <pt x="252" y="437" on="0"/>
        <pt x="234" y="420" on="0"/>
        <pt x="212" y="391" on="0"/>
      </contour>
    </TTGlyph>
    <TTGlyph name="abreve.salt" xMin="76" yMin="-8" xMax="561" yMax="711">
      <contour>
        <pt x="303" y="710" on="1"/>
        <pt x="303" y="704" on="0"/>
        <pt x="303" y="677" on="0"/>
        <pt x="331" y="645" on="0"/>
        <pt x="357" y="645" on="1"/>
        <pt x="358" y="645" on="0"/>
        <pt x="359" y="645" on="1"/>
        <pt x="423" y="645" on="0"/>
        <pt x="433" y="710" on="1"/>
        <pt x="482" y="710" on="1"/>
        <pt x="467" y="596" on="0"/>
        <pt x="356" y="596" on="1"/>
        <pt x="312" y="596" on="0"/>
        <pt x="254" y="654" on="0"/>
        <pt x="254" y="698" on="1"/>
        <pt x="254" y="704" on="0"/>
        <pt x="254" y="710" on="1"/>
      </contour>
      <contour>
        <pt x="105" y="422" on="0"/>
        <pt x="216" y="535" on="0"/>
        <pt x="446" y="535" on="0"/>
        <pt x="561" y="483" on="1"/>
        <pt x="500" y="13" on="1"/>
        <pt x="494" y="9" on="0"/>
        <pt x="261" y="-7" on="0"/>
        <pt x="207" y="-7" on="0"/>
        <pt x="150" y="9" on="0"/>
        <pt x="127" y="29" on="1"/>
        <pt x="85" y="64" on="0"/>
        <pt x="77" y="161" on="1"/>
        <pt x="76" y="173" on="0"/>
        <pt x="76" y="226" on="0"/>
        <pt x="85" y="275" on="1"/>
      </contour>
      <contour>
        <pt x="223" y="423" on="0"/>
        <pt x="187" y="339" on="0"/>
        <pt x="170" y="213" on="0"/>
        <pt x="170" y="139" on="0"/>
        <pt x="179" y="117" on="1"/>
        <pt x="195" y="77" on="0"/>
        <pt x="248" y="77" on="1"/>
        <pt x="417" y="82" on="1"/>
        <pt x="465" y="434" on="1"/>
        <pt x="371" y="454" on="0"/>
        <pt x="281" y="454" on="0"/>
      </contour>
    </TTGlyph>
    <TTGlyph name="abreve.smcp" xMin="32" yMin="0" xMax="563" yMax="744">
      <contour>
        <pt x="351" y="744" on="1"/>
        <pt x="350" y="738" on="0"/>
        <pt x="350" y="710" on="0"/>
        <pt x="378" y="679" on="0"/>
        <pt x="404" y="679" on="1"/>
        <pt x="406" y="679" on="0"/>
        <pt x="407" y="679" on="1"/>
        <pt x="471" y="679" on="0"/>
        <pt x="480" y="744" on="1"/>
        <pt x="529" y="744" on="1"/>
        <pt x="515" y="630" on="0"/>
        <pt x="404" y="630" on="1"/>
        <pt x="360" y="630" on="0"/>
        <pt x="302" y="688" on="0"/>
        <pt x="302" y="731" on="1"/>
        <pt x="302" y="737" on="0"/>
        <pt x="302" y="744" on="1"/>
      </contour>
      <contour>
        <pt x="33" y="0" on="1"/>
        <pt x="347" y="570" on="1"/>
        <pt x="446" y="570" on="1"/>
        <pt x="563" y="0" on="1"/>
        <pt x="470" y="0" on="1"/>
        <pt x="438" y="142" on="1"/>
        <pt x="212" y="142" on="1"/>
        <pt x="137" y="0" on="1"/>
      </contour>
      <contour>
        <pt x="257" y="227" on="1"/>
        <pt x="425" y="227" on="1"/>
        <pt x="379" y="450" on="1"/>
      </contour>
    </TTGlyph>
    <TTGlyph name="acircumflex" xMin="74" yMin="-7" xMax="566" yMax="735">
      <contour>
        <pt x="210" y="603" on="1"/>
        <pt x="346" y="734" on="1"/>
        <pt x="426" y="734" on="1"/>
        <pt x="506" y="603" on="1"/>
        <pt x="435" y="603" on="1"/>
        <pt x="381" y="681" on="1"/>
        <pt x="296" y="603" on="1"/>
      </contour>
      <contour>
        <pt x="235" y="526" on="0"/>
        <pt x="281" y="538" on="0"/>
        <pt x="327" y="543" on="0"/>
        <pt x="392" y="543" on="0"/>
        <pt x="530" y="513" on="0"/>
        <pt x="566" y="479" on="1"/>
        <pt x="496" y="0" on="1"/>
        <pt x="428" y="0" on="1"/>
        <pt x="414" y="59" on="1"/>
        <pt x="386" y="36" on="0"/>
        <pt x="284" y="-7" on="0"/>
        <pt x="199" y="-7" on="0"/>
        <pt x="146" y="8" on="0"/>
        <pt x="99" y="47" on="0"/>
        <pt x="88" y="80" on="1"/>
        <pt x="74" y="124" on="0"/>
        <pt x="74" y="226" on="0"/>
        <pt x="96" y="346" on="0"/>
        <pt x="135" y="439" on="0"/>
        <pt x="177" y="492" on="0"/>
      </contour>
      <contour>
        <pt x="196" y="351" on="0"/>
        <pt x="180" y="293" on="0"/>
        <pt x="167" y="211" on="0"/>
        <pt x="167" y="142" on="0"/>
        <pt x="176" y="120" on="1"/>
        <pt x="193" y="79" on="0"/>
        <pt x="298" y="79" on="0"/>
        <pt x="370" y="102" on="0"/>
        <pt x="421" y="128" on="1"/>
        <pt x="469" y="443" on="1"/>
        <pt x="405" y="461" on="0"/>
        <pt x="334" y="461" on="0"/>
        <pt x="299" y="454" on="0"/>
        <pt x="280" y="449" on="0"/>
        <pt x="252" y="437" on="0"/>
        <pt x="234" y="420" on="0"/>
        <pt x="212" y="391" on="0"/>
      </contour>
    </TTGlyph>
    <TTGlyph name="acircumflex.salt" xMin="76" yMin="-8" xMax="561" yMax="728">
      <contour>
        <pt x="210" y="596" on="1"/>
        <pt x="346" y="728" on="1"/>
        <pt x="426" y="728" on="1"/>
        <pt x="507" y="596" on="1"/>
        <pt x="435" y="596" on="1"/>
        <pt x="382" y="675" on="1"/>
        <pt x="297" y="596" on="1"/>
      </contour>
      <contour>
        <pt x="105" y="422" on="0"/>
        <pt x="216" y="535" on="0"/>
        <pt x="446" y="535" on="0"/>
        <pt x="561" y="483" on="1"/>
        <pt x="500" y="13" on="1"/>
        <pt x="494" y="9" on="0"/>
        <pt x="261" y="-7" on="0"/>
        <pt x="207" y="-7" on="0"/>
        <pt x="150" y="9" on="0"/>
        <pt x="127" y="29" on="1"/>
        <pt x="85" y="64" on="0"/>
        <pt x="77" y="161" on="1"/>
        <pt x="76" y="173" on="0"/>
        <pt x="76" y="226" on="0"/>
        <pt x="85" y="275" on="1"/>
      </contour>
      <contour>
        <pt x="223" y="423" on="0"/>
        <pt x="187" y="339" on="0"/>
        <pt x="170" y="213" on="0"/>
        <pt x="170" y="139" on="0"/>
        <pt x="179" y="117" on="1"/>
        <pt x="195" y="77" on="0"/>
        <pt x="248" y="77" on="1"/>
        <pt x="417" y="82" on="1"/>
        <pt x="465" y="434" on="1"/>
        <pt x="371" y="454" on="0"/>
        <pt x="281" y="454" on="0"/>
      </contour>
    </TTGlyph>
    <TTGlyph name="acircumflex.smcp" xMin="32" yMin="0" xMax="563" yMax="762">
      <contour>
        <pt x="258" y="630" on="1"/>
        <pt x="394" y="762" on="1"/>
        <pt x="474" y="762" on="1"/>
        <pt x="554" y="630" on="1"/>
        <pt x="483" y="630" on="1"/>
        <pt x="429" y="708" on="1"/>
        <pt x="344" y="630" on="1"/>
      </contour>
      <contour>
        <pt x="33" y="0" on="1"/>
        <pt x="347" y="570" on="1"/>
        <pt x="446" y="570" on="1"/>
        <pt x="563" y="0" on="1"/>
        <pt x="470" y="0" on="1"/>
        <pt x="438" y="142" on="1"/>
        <pt x="212" y="142" on="1"/>
        <pt x="137" y="0" on="1"/>
      </contour>
      <contour>
        <pt x="257" y="227" on="1"/>
        <pt x="425" y="227" on="1"/>
        <pt x="379" y="450" on="1"/>
      </contour>
    </TTGlyph>
    <TTGlyph name="acute" xMin="102" yMin="531" xMax="329" yMax="666">
      <contour>
        <pt x="103" y="531" on="1"/>
        <pt x="226" y="666" on="1"/>
        <pt x="329" y="666" on="1"/>
        <pt x="178" y="531" on="1"/>
      </contour>
    </TTGlyph>
</ttFont>
